<svg xmlns="http://www.w3.org/2000/svg" version="1.1" width="1500" height="1000" viewBox="-10 520 160 40"
     style="-webkit-tap-highlight-color: rgba(0, 0, 0, 0);">
    <desc style="-webkit-tap-highlight-color: rgba(0, 0, 0, 0);">Russian Map</desc>
    <defs style="-webkit-tap-highlight-color: rgba(0, 0, 0, 0);"></defs>
    <path fill="#615dff" stroke="#ffffff"
          d="M94.625,535.244L92.917,536.953L92.917,539.703L94.667,541.453L95.667,544.619L94.833,547.785L94.083,550.703L92.167,552.619L92.167,553.785L90.5,555.285L86.833,561.285L86.833,565.953L87.833,571.619L87.167,575.953L87.5,581.285L83.5,583.119L80.833,581.953L77,583.285L73.333,582.453L72.833,579.285L71,573.785L70.667,569.785L68,567.953L68,565.785L66.667,562.285L64.333,559.285L65.833,556.785L68.706,556.424L70.514,555.021L73.273,555.248L75.036,553.938L77.795,555.52L78.835,551.631L81.729,548.104L84.758,546.43L86.522,545.842L86.206,542.045L82.814,541.727L80.915,539.195L78.5,536.621L79.5,533.953L77.75,533.121L77.75,531.703L79.833,531.703L81,530.621L80.208,529.244L81.5,527.953L83.667,528.703L86.167,527.871L88.833,526.203L91.089,527.844L92.22,529.563L94.029,530.195L94.843,532.322L94.625,535.244"
          stroke-width="1" stroke-linejoin="round"
          style="-webkit-tap-highlight-color: rgba(0, 0, 0, 0); stroke-width: 1; stroke-linejoin: round;"></path>
    <path fill="#615dff" stroke="#ffffff"
          d="M70.417,542.871L68.841,546.338L66.852,549.502L64.333,551.285L63.5,548.285L60.667,547.953L62.285,545.297L64.817,545.297L65.043,543.533L64.319,540.91L65.043,536.977L67.256,536.115L68.417,538.287L71.063,540.346L70.417,542.871"
          stroke-width="1" stroke-linejoin="round"
          style="-webkit-tap-highlight-color: rgba(0, 0, 0, 0); stroke-width: 1; stroke-linejoin: round;"></path>
    <path fill="#615dff" stroke="#ffffff"
          d="M45.333,524.287L47.25,523.494L49.25,521.494L50.875,521.682L53.188,520.744L55.813,521.557L58.375,522.119L59.031,524.088L62.063,527.119L64.375,526.619L65.625,527.869L67.5,529.182L66.807,530.494L65.541,531.596L65.541,533.586L64.319,534.807L61.29,534.988L60.272,536.004L58.819,534.625L56.497,534.625L55.004,535.529L53.557,535.213L51.333,535.953L49,533.785L49.667,530.453L46.833,528.119L45.333,524.287"
          stroke-width="1" stroke-linejoin="round"
          style="-webkit-tap-highlight-color: rgba(0, 0, 0, 0); stroke-width: 1; stroke-linejoin: round;"></path>
    <path fill="#615dff" stroke="#ffffff"
          d="M45.333,524.287L42.833,523.119L39.167,520.619L38,516.619L35.5,512.787L34.667,509.453L36.688,507.432L39.063,507.057L40.719,505.4L42.375,505.4L43.313,507.432L44.75,509.557L48,509.557L50.5,506.432L52.5,507.057L52.5,509.682L54.313,510.932L54.75,512.994L55.688,514.369L52.75,514.369L51.938,515.869L53.25,517.182L54.125,518.682L53.188,520.744L50.875,521.682L49.25,521.494L47.25,523.494L45.333,524.287"
          stroke-width="1" stroke-linejoin="round"
          style="-webkit-tap-highlight-color: rgba(0, 0, 0, 0); stroke-width: 1; stroke-linejoin: round;"></path>
    <path fill="#615dff" stroke="#ffffff"
          d="M51.333,535.953L52,541.285L54.333,543.619L58,544.119L60.083,546.203L60.667,547.953L62.285,545.297L64.817,545.297L65.043,543.533L64.319,540.91L65.043,536.977L67.256,536.115L70.667,536.203L70,533.371L66.807,530.494L65.541,531.596L65.541,533.586L64.319,534.807L61.29,534.988L60.272,536.004L58.622,534.625L56.497,534.625L55.004,535.529L53.557,535.213L51.333,535.953"
          stroke-width="1" stroke-linejoin="round"
          style="-webkit-tap-highlight-color: rgba(0, 0, 0, 0); stroke-width: 1; stroke-linejoin: round;"></path>
    <path fill="#615dff" stroke="#ffffff"
          d="M66.807,530.494L67.5,529.182L65.625,527.869L64.375,526.619L62.063,527.119L59.031,524.088L58.375,522.119L55.813,521.557L53.188,520.744L54.02,518.912L53.25,517.182L51.938,515.869L52.75,514.369L55.688,514.369L54.75,512.994L54.313,510.932L52.5,509.682L52.5,507.057L50.5,506.432L51.375,504.619L50.75,502.244L52.5,501.744L55.25,499.619L53.625,497.994L55,495.807L54,493.807L52.75,492.744L54.125,490.744L54.125,488.744L55.375,487.307L56.688,487.744L57.563,489.119L59.875,488.807L61.344,487.338L63.188,487.338L64.375,488.619L66.25,489.557L67,491.744L68.688,491.744L70.063,491.244L70.813,493.432L72.156,494.775L75.125,494.244L77,495.037L77.333,497.453L78.917,499.287L79.417,501.371L81,502.953L82.083,505.953L80.917,508.203L82.167,510.537L83.875,512.244L85.167,513.953L85.167,515.953L86.958,517.744L87.417,520.287L88.833,522.371L88.833,526.203L86.167,527.871L83.667,528.703L81.5,527.953L80.208,529.244L81,530.621L79.833,531.703L77.75,531.703L77.75,533.121L79.5,533.953L78.5,536.621L75.75,536.621L74.5,535.371L74.5,534.203L73.333,534.287L72.083,535.953L70.667,536.203L70,533.371L66.807,530.494"
          stroke-width="1" stroke-linejoin="round"
          style="-webkit-tap-highlight-color: rgba(0, 0, 0, 0); stroke-width: 1; stroke-linejoin: round;"></path>
    <path fill="#615dff" stroke="#ffffff"
          d="M81.052,539.377L82.814,541.727L86.206,542.045L86.522,545.842L84.758,546.43L81.729,548.104L78.835,551.631L77.795,555.52L75.036,553.938L73.273,555.248L70.514,555.021L68.706,556.424L65.833,556.785L66.833,553.953L64.333,551.285L66.852,549.502L68.841,546.338L70.417,542.871L71.063,540.346L68.417,538.287L67.256,536.115L70.667,536.203L72.333,535.621L73.333,534.287L74.5,534.203L74.5,535.371L75.75,536.621L78.5,536.621L81.052,539.377"
          stroke-width="1" stroke-linejoin="round"
          style="-webkit-tap-highlight-color: rgba(0, 0, 0, 0); stroke-width: 1; stroke-linejoin: round;"></path>
</svg>