<svg xmlns="http://www.w3.org/2000/svg" version="1.1" viewBox="50 300 200 400"
     style="-webkit-tap-highlight-color: rgba(0, 0, 0, 0);">
    <desc style="-webkit-tap-highlight-color: rgba(0, 0, 0, 0);">Russian Map</desc>
    <defs style="-webkit-tap-highlight-color: rgba(0, 0, 0, 0);"></defs>
    <path fill="#615dff" stroke="#ffffff"
          d="M140.706,368.024L139.931,366.419L139.931,364.259L138.38,363.594L137.549,361.379L139.432,359.995L139.321,357.78L140.678,356.424L141.315,354.292L143.197,353.406C143.197,353.406,142.533,351.523,142.699,351.357C142.865,351.191,143.884,349.951,143.884,349.951L141.728,349.305L139.464,348.012L136.661,348.012L134.936,346.287L132.349,346.287L130.193,345.101L128.792,344.131L126.313,344.131L125.989,342.298L125.127,342.19L125.127,340.034L122.524,341.039L121.207,342.92L119.279,342.92L118.164,344.285L117.331,347.035L114.331,348.285L112.081,350.535L110.914,352.368L113.247,353.035L114.353,355.173L116.039,356.993L118.747,356.993L119.747,358.951L120.83,360.784L118.747,364.284L118.747,366.784L120.216,369.185L122.32,369.628L122.32,371.455L121.655,373.504L122.264,375.553L121.433,378.322L121.71,380.592L124.257,380.205L124.645,378.433L126.694,377.99L127.358,378.654L130.404,378.544L131.318,377.63L133.892,378.101L135.442,378.655L137.159,378.268L137.907,377.52L139.817,377.714L141.81,377.714L141.755,375.333L142.862,374.835L143.416,373.118L143.638,369.962L142.337,368.661L140.706,368.024ZM132.456,359.553L131.404,360.992L131.792,362.764L129.522,362.764L128.885,362.127L128.193,361.435L126.975,362.653L125.314,362.764L126.034,360.937L126.034,359.442L126.034,357.781L127.197,357.947L128.249,356.397L127.861,355.511L128.913,354.57L130.408,354.182L130.353,355.289L130.907,356.341L130.962,356.563L132.596,357.255L133.731,358.39L132.456,359.553Z"
          stroke-width="1" stroke-linejoin="round"
          style="-webkit-tap-highlight-color: rgba(0, 0, 0, 0); stroke-width: 1; stroke-linejoin: round;"></path>
    <path fill="#615dff" stroke="#ffffff"
          d="M130.961,356.563L130.906,356.341L130.352,355.29L130.407,354.182L128.912,354.57L127.86,355.511L128.248,356.397L127.196,357.947L126.033,357.781L126.033,359.442L126.033,360.938L125.313,362.765L126.974,362.654L128.192,361.436L128.885,362.128L129.521,362.765L131.792,362.765L131.404,360.993L132.456,359.553L133.729,358.39L132.595,357.255L130.961,356.563"
          stroke-width="1" stroke-linejoin="round"
          style="-webkit-tap-highlight-color: rgba(0, 0, 0, 0); stroke-width: 1; stroke-linejoin: round;"></path>
    <path fill="#615dff" stroke="#ffffff"
          d="M82.318,430.998L85.232,429.479L84.651,427.389L86.625,427.271L86.625,424.369L89.181,423.092L88.6,420.652L88.6,417.4L90.342,417.4L91.619,414.961L90.399,413.742L89.529,412.871L91.039,411.709L90.342,409.502L92.084,408.69L92.084,406.25L93.71,404.625L96.207,405.496L98.239,403.463L101.143,403.928L102.42,406.483L105.44,407.528L104.802,410.49L106.834,412.522L109.389,412.754L111.77,416.065L113.454,417.749L112.641,420.303L114.615,422.278L117.751,423.555L118.854,425.705L120.771,427.621L121.816,430.873L123.151,434.299L121.932,435.518L118.564,435.518L116.009,434.125L115.428,432.266L112.989,431.801L110.667,433.893L105.905,433.893L104.686,437.898L100.794,441.789L96.497,441.789L94.987,443.299L92.665,443.299L91.502,441.674L88.615,441.674L88.615,439.568L87.333,438.287L84.5,436.953L84.5,433.453L82.318,430.998"
          stroke-width="1" stroke-linejoin="round"
          style="-webkit-tap-highlight-color: rgba(0, 0, 0, 0); stroke-width: 1; stroke-linejoin: round;"></path>
    <path fill="#615dff" stroke="#ffffff"
          d="M81.833,430.453L80.833,426.619L78.333,425.119L75.667,422.12L76.667,418.62L75.667,413.453L72.5,411.12L68.833,408.287L67.667,404.453L65.167,402.453L64.333,400.12L66.5,397.62L69.898,398.377L72.816,398.377L73.945,397.249L76.299,399.79L76.299,401.579L80.912,402.519L83.265,402.048L87.03,404.402L89.571,406.944L90.342,409.502L91.039,411.709L89.529,412.871L91.619,414.961L90.342,417.4L88.6,417.4L88.6,420.652L89.181,423.092L86.625,424.369L86.625,427.271L84.651,427.389L85.232,429.479L82.318,430.998L81.833,430.453"
          stroke-width="1" stroke-linejoin="round"
          style="-webkit-tap-highlight-color: rgba(0, 0, 0, 0); stroke-width: 1; stroke-linejoin: round;"></path>
    <path fill="#615dff" stroke="#ffffff"
          d="M121.714,380.594L120.417,382.87L120.417,384.87L118.667,386.203L116.834,388.786L114.417,388.953L113.584,390.453C113.584,390.453,111.084,389.953,111.084,390.453C111.084,390.953,110.167,392.369,110.167,392.369L108.25,392.369L106.583,389.953L105.416,388.786L104.249,385.119L105.416,383.536L102.416,381.953L100.249,377.703L99.082,371.953L101.415,368.786L102.915,369.369L104.332,367.952L107.165,367.202L108.832,368.119L110.749,370.036L112.957,369.619L112.957,367.744L113.832,366.869L116.249,368.452L118.749,366.785L120.218,369.186L122.322,369.629L122.322,371.456L121.657,373.505L122.266,375.554L121.435,378.323L121.714,380.594Z"
          stroke-width="1" stroke-linejoin="round"
          style="-webkit-tap-highlight-color: rgba(0, 0, 0, 0); stroke-width: 1; stroke-linejoin: round;"></path>
    <path fill="#615dff" stroke="#ffffff"
          d="M153.37,331.412L156.603,330.011L158.657,329.637L161.727,329.345L163.481,331.099L167.647,333.95L169.255,332.342L172.397,335.484L172.397,342.062L176.345,346.009L176.345,348.933L171.959,349.079L170.936,351.418L168.743,351.418L165.527,354.78L163.481,354.78L162.604,357.119L159.242,356.388L157.634,354.78L153.833,354.78L151.494,357.119L148.717,357.119L147.328,358.507L145.354,356.534L143.454,355.072L143.198,353.407L142.7,351.358L143.884,349.952L145.824,348.119L149.058,346.071L147.873,343.376L147.873,341.76L149.705,339.927L148.95,337.017L149.92,334.861L152.292,334.861L153.37,331.412"
          stroke-width="1" stroke-linejoin="round"
          style="-webkit-tap-highlight-color: rgba(0, 0, 0, 0); stroke-width: 1; stroke-linejoin: round;"></path>
    <path fill="#615dff" stroke="#ffffff"
          d="M116.833,388.787L114.417,388.954L113.583,390.454L111.083,390.454L110.167,392.37L108.25,392.37L106.583,389.954L105.417,388.787L102.75,389.704L101.833,392.037L98.5,393.954L99.375,395.745L97.917,397.204L95.75,397.204L93.75,398.787L93.75,401.62L95.917,401.954L98.239,403.463L101.143,403.928L102.42,406.483L105.44,407.528L104.802,410.49L106.834,412.522L109.389,412.754L111.995,416.291L113.917,414.704L115.75,414.704L116.333,412.037L114.5,410.204L114.917,407.787L113.917,406.454L114.5,404.704L116.75,403.954L119.458,401.246L122.917,398.787L122.25,394.37L120,392.12L117.917,393.537L116.833,391.787L117.667,390.12L116.833,388.787"
          stroke-width="1" stroke-linejoin="round"
          style="-webkit-tap-highlight-color: rgba(0, 0, 0, 0); stroke-width: 1; stroke-linejoin: round;"></path>
    <path fill="#615dff" stroke="#ffffff"
          d="M89.167,354.537L87.583,352.037L89.833,351.537L92.25,349.12L94.5,349.12L96.167,350.787L96.667,352.787L99.083,353.037L99.875,352.245L101.25,352.62L103.453,354.292L105.5,353.037L107.833,353.037L110.917,352.37L113.25,353.037L114.5,355.453L116.042,356.995L118.75,356.995L119.75,358.953L120.833,360.787L119.667,362.537L118.75,364.287L118.75,366.787L116.25,368.453L113.833,366.87L112.958,367.745L112.958,369.62L110.75,370.037L108.833,368.12L107.167,367.203L104.333,367.953L102.917,369.37L101.417,368.787L99.083,371.953L95.417,370.537L92.75,370.537L90.333,369.703L90,367.287L88.375,365.662L88.375,363.703L89.646,362.432L89.646,359.953L90.333,357.453L89.042,356.162L89.167,354.537"
          stroke-width="1" stroke-linejoin="round"
          style="-webkit-tap-highlight-color: rgba(0, 0, 0, 0); stroke-width: 1; stroke-linejoin: round;"></path>
    <path fill="#615dff" stroke="#ffffff"
          d="M147.328,358.507L148.717,357.119L151.494,357.119L153.248,359.896L151.787,362.527L151.787,364.866L156.026,366.328L158.511,368.813L162.896,373.199L161.142,377.584L159.68,382.847L156.318,383.432L154.272,385.479L151.495,386.063L149.606,387.966L147.493,384.5L145.718,383.993L145.295,381.795L142.759,380.95L143.436,379.006L141.813,377.715L141.758,375.333L142.866,374.835L143.419,373.119L143.641,369.962L142.34,368.661L140.706,368.024L139.931,366.419L139.931,364.259L138.38,363.595L137.55,361.38L139.433,359.996L139.322,357.781L140.679,356.424L141.315,354.292L143.198,353.407L143.454,355.072L145.354,356.534L147.328,358.507"
          stroke-width="1" stroke-linejoin="round"
          style="-webkit-tap-highlight-color: rgba(0, 0, 0, 0); stroke-width: 1; stroke-linejoin: round;"></path>
    <path fill="#615dff" stroke="#ffffff"
          d="M68.167,393.953L68.167,390.453L66.333,387.12L64.5,384.287L66.167,382.954L67.167,380.454L69.167,380.454L70.667,379.12L72.5,379.203L73.667,377.453L76.083,376.703L77.5,377.787L79.583,377.787L80.5,379.203L82.25,379.87L83.5,380.87L83.5,383.62L85.417,384.12L85.917,385.703L87.667,386.537L88.167,390.204L90,393.287L90.583,397.12L92.417,397.454L93.75,398.787L93.75,401.62L95.917,401.954L98.239,403.463L96.207,405.496L93.71,404.625L92.084,406.25L92.084,408.69L90.342,409.502L89.571,406.944L87.03,404.402L83.265,402.048L80.912,402.519L76.299,401.579L76.299,399.79L73.945,397.249L72.816,398.377L69.898,398.377L66.5,397.62L68.167,393.953"
          stroke-width="1" stroke-linejoin="round"
          style="-webkit-tap-highlight-color: rgba(0, 0, 0, 0); stroke-width: 1; stroke-linejoin: round;"></path>
    <path fill="#615dff" stroke="#ffffff"
          d="M125.129,340.035L125.129,342.191L125.991,342.299L126.315,344.132L128.794,344.132L130.195,345.102L132.351,346.288L134.938,346.288L136.663,348.013L139.466,348.013L141.73,349.306L143.886,349.952L145.826,348.119L149.06,346.071L147.874,343.376L147.874,341.759L149.707,339.926L148.952,337.016L149.922,334.86L152.293,334.86L153.371,331.411L156.604,330.01L156.604,326.669L157.466,323.866L155.095,323.112L152.4,323.651L150.46,322.896L148.951,322.034C148.951,322.034,147.012,320.956,146.58,320.956C146.148,320.956,143.885,319.878,143.885,319.878L142.484,318.477L142.053,319.878L139.897,319.878L138.28,317.938L135.908,317.938C135.908,317.938,135.8,315.513,135.315,315.513C134.83,315.513,133.968,314.166,133.968,314.166L132.135,313.25L129.926,313.25L128.147,315.029L125.345,315.029L123.944,316.43L121.626,316.16L119.74,314.274L116.183,314.274L114.243,313.088L111.71,313.25L110.255,311.795L107.345,311.795L105.836,310.286L104.835,308.12L102.252,310.287L102,312.37L100.5,313.87L100.167,317.37L99.25,319.37L98.25,321.12L95.917,321.12L94.917,323.953L95.167,324.953L97.417,326.203L98.042,329.578L100.119,331.655L102.375,332.911L104,334.536L107.333,335.369L109.916,334.619L112.749,335.369L112.749,337.119L114.082,338.452L115.332,340.952L117.135,342.379L118.165,344.285L119.28,342.92L121.208,342.92L122.525,341.039L125.129,340.035Z"
          stroke-width="1" stroke-linejoin="round"
          style="-webkit-tap-highlight-color: rgba(0, 0, 0, 0); stroke-width: 1; stroke-linejoin: round;"></path>
    <path fill="#615dff" stroke="#ffffff"
          d="M122.917,398.787L122.25,394.37L120,392.12L117.917,393.537L116.833,391.787L117.667,390.12L116.833,388.787L118.667,386.203L120.417,384.87L120.417,382.87L121.714,380.594L124.261,380.207L124.648,378.435L126.697,377.992L127.361,378.656L130.407,378.545L131.321,377.631L133.896,378.102L135.446,378.656L137.163,378.269L137.91,377.521L139.82,377.715L141.813,377.715L143.436,379.006L142.759,380.95L145.295,381.795L145.718,383.993L147.493,384.5L149.606,387.966L149.606,391.009L151.213,392.108L152.312,393.207L152.312,394.813L152.903,396.335L151.297,397.942L149.269,398.449L148.254,399.463L146.69,401.027L144.788,401.027L144.788,402.336L143.309,403.816L141.407,405.126L139.801,404.366L137.856,402.336L136.335,402.421L134.391,400.562L132.531,402.675L129.488,402.252L128.389,399.547L125.346,398.618L122.917,398.787"
          stroke-width="1" stroke-linejoin="round"
          style="-webkit-tap-highlight-color: rgba(0, 0, 0, 0); stroke-width: 1; stroke-linejoin: round;"></path>
    <path fill="#615dff" stroke="#ffffff"
          d="M74,354.12L70.667,352.954L69.667,350.454L67.833,348.454L65.333,348.62L64.5,351.62L62.333,354.12L59.167,357.287L57.667,359.954L59.167,362.454L60.917,364.203L63.167,362.287L64.667,364.454L66.5,366.454L69,366.787L70.833,368.62L72.167,371.954L71.833,374.62L70.667,379.12L72.5,379.203L73.667,377.453L76.083,376.703L77.5,377.787L79.583,377.787L81.417,375.954L83.167,375.953L83.583,374.453L83.083,372.953L84.667,372.37L86.5,372.37L87.875,373.745L88.792,372.828L89.333,370.703L90.333,369.703L90,367.287L88.375,365.662L88.375,363.703L89.646,362.432L89.646,359.953L90.333,357.453L89.042,356.162L89.167,354.537L87.583,352.037L85.083,353.287L82.917,353.12L81.208,355.828L79.667,357.37L79.667,354.453L77.167,353.12L74,354.12"
          stroke-width="1" stroke-linejoin="round"
          style="-webkit-tap-highlight-color: rgba(0, 0, 0, 0); stroke-width: 1; stroke-linejoin: round;"></path>
    <path fill="#615dff" stroke="#ffffff"
          d="M121.816,430.873L124.162,429.811L125.768,429.725L127.417,428.076L130.333,426.514L133.63,424.484L134.56,422.793L137.349,422.793L137.688,417.553L136.335,415.101L136.927,410.706L136.335,408.085L137.899,406.522L139.801,404.366L137.856,402.336L136.335,402.421L134.391,400.562L132.531,402.675L129.488,402.252L128.389,399.547L125.346,398.618L122.917,398.787L119.458,401.246L116.75,403.954L114.5,404.704L113.917,406.454L114.917,407.787L114.5,410.204L116.333,412.037L115.75,414.704L113.917,414.704L111.995,416.291L113.454,417.749L112.641,420.303L114.615,422.278L117.751,423.555L118.854,425.705L120.771,427.621L121.816,430.873"
          stroke-width="1" stroke-linejoin="round"
          style="-webkit-tap-highlight-color: rgba(0, 0, 0, 0); stroke-width: 1; stroke-linejoin: round;"></path>
    <path fill="#615dff" stroke="#ffffff"
          d="M86.667,324.12L85.5,326.62L82.167,327.62L80.833,331.287L79,335.62L78,339.62L78.167,342.454L76.5,343.62L79,346.12L78,349.787L77.167,353.12L79.667,354.453L79.667,357.37L81.208,355.828L82.917,353.12L85.083,353.287L87.583,352.037L89.833,351.537L92.25,349.12L94.5,349.12L96.167,350.787L96.667,352.787L99.083,353.037L99.875,352.245L101.25,352.62L103.667,354.453L105.5,353.037L107.833,353.037L110.917,352.37L112.083,350.537L114.334,348.286L117.333,347.037L118.167,344.287L117.333,342.537L115.333,340.953L114.083,338.453L112.75,337.12L112.75,335.37L109.917,334.62L107.333,335.37L104,334.537L102.375,332.912L99.917,331.453L98.042,329.579L97.417,326.203L95.167,324.953L94.917,323.953L92.667,321.203L89.833,321.454L86.667,324.12"
          stroke-width="1" stroke-linejoin="round"
          style="-webkit-tap-highlight-color: rgba(0, 0, 0, 0); stroke-width: 1; stroke-linejoin: round;"></path>
    <path fill="#615dff" stroke="#ffffff"
          d="M83.167,375.953L81.417,375.954L79.583,377.787L80.5,379.203L82.25,379.87L83.5,380.87L83.5,383.62L85.417,384.12L85.917,385.703L87.667,386.537L88.167,390.204L90,393.287L90.583,397.12L92.417,397.454L93.75,398.787L95.75,397.204L97.917,397.204L99.375,395.745L98.5,393.954L101.833,392.037L102.75,389.704L105.417,388.787L104.25,385.12L105.417,383.953L102.417,381.953L100.25,377.703L99.083,371.953L95.417,370.537L92.75,370.537L90.333,369.703L89.333,370.703L88.792,372.828L87.875,373.745L86.5,372.37L84.667,372.37L83.083,372.953L83.583,374.453L83.167,375.953"
          stroke-width="1" stroke-linejoin="round"
          style="-webkit-tap-highlight-color: rgba(0, 0, 0, 0); stroke-width: 1; stroke-linejoin: round;"></path>
    <path fill="#615dff" stroke="#ffffff"
          d="M151.494,357.119L153.833,354.78L157.634,354.78L159.242,356.388L162.604,357.119L164.796,359.312L167.72,359.312L169.182,360.773L171.521,358.434L172.836,358.727L173.859,361.796L177.514,364.135L179.707,364.135L179.707,367.936L182.923,369.544L182.923,372.614L179.561,372.614L178.245,375.976L174.883,375.976L172.544,373.637L170.644,375.538L169.767,379.046L167.647,381.166L163.334,381.677L159.68,382.847L161.142,377.584L162.896,373.199L158.511,368.813L156.026,366.328L151.787,364.866L151.787,362.527L153.248,359.896L151.494,357.119"
          stroke-width="1" stroke-linejoin="round"
          style="-webkit-tap-highlight-color: rgba(0, 0, 0, 0); stroke-width: 1; stroke-linejoin: round;"></path>
    <path fill="#615dff" stroke="#ffffff"
          d="M219.614,363.697L221.587,361.431L217.713,357.996L215.667,361.212L212.012,360.335L210.478,361.87L208.212,358.581L202.072,355.365L200.903,352.149L197.613,348.86L193.301,348.056L191.109,343.378L187.747,344.986L184.092,343.378L179.999,344.401L176.345,346.009L176.345,348.933L171.959,349.079L170.936,351.418L168.743,351.418L165.527,354.78L163.481,354.78L162.604,357.119L164.796,359.312L167.72,359.312L169.182,360.773L171.521,358.434L172.836,358.727L173.859,361.796L177.514,364.135L179.707,364.135L179.707,367.936L182.923,369.544L182.923,372.614L186.87,373.491L191.986,372.175L193.886,370.275L196.81,370.275L197.979,373.052L199.807,374.879L202.949,374.879L204.082,376.012L206.677,373.417L210.697,372.029L212.378,373.71L214.351,371.591L219.029,371.591L219.614,363.697"
          stroke-width="1" stroke-linejoin="round"
          style="-webkit-tap-highlight-color: rgba(0, 0, 0, 0); stroke-width: 1; stroke-linejoin: round;"></path>
</svg>
