<svg xmlns="http://www.w3.org/2000/svg" version="1.1" width="1500" height="1000" viewBox="350 40 900 520"
     style="-webkit-tap-highlight-color: rgba(0, 0, 0, 0);">
    <desc style="-webkit-tap-highlight-color: rgba(0, 0, 0, 0);">Russian Map</desc>
    <defs style="-webkit-tap-highlight-color: rgba(0, 0, 0, 0);"></defs>
    <path fill="#615dff" stroke="#ffffff"
          d="M881.25,500.869L879.333,502.785L875.5,501.785L872.333,500.953L867.5,501.619L863,501.619L861.167,503.453L856.167,505.285L851.167,504.285L849.084,500.203L846.667,497.785C846.667,497.785,843.834,496.119,843.834,495.451C843.834,494.783,840.667,492.285,840.667,492.285L836.667,491.619L835,487.619L831.166,484.619L828.5,481.953L824.833,480.953L823.5,477.453L820.166,475.953L818.166,473.953L811.5,473.285L808,473.285L804,475.453L799,474.619L795.166,475.953L791,475.953L785.332,480.119L782.666,482.785L780.251,478.621L779.168,476.453L776.334,476.453L775.501,472.871L774.084,470.703L776.584,469.203L776.584,468.037L775.251,468.037L773.001,465.621L771.168,465.371L771.584,461.121L770.501,459.203L769.334,455.953L766.668,454.621L764.751,457.287L762.751,456.537L762.584,453.703L761.251,452.371L759.293,451.828L757.251,453.871L756.251,456.371L752.834,455.453L751.751,453.371L753.751,450.871L752.584,448.953L750.334,449.703L747.418,448.953L745.408,446.924L745.37,444.916L748.285,442.002L751.513,439.295L754.74,439.295L756.25,437.785L758.071,439.607L760.569,440.127L761.714,438.982L765.046,438.982L766.4,440.752C766.4,440.752,768.482,441.002,768.482,440.752C768.482,440.502,769.106,438.254,769.106,438.254L773.27,439.086L774.727,437.629L777.747,437.004L780.558,438.254L784.097,441.793L786.803,440.545L789.823,439.816L791.176,437.941L793.466,438.982L795.132,437.316L797.006,437.316L798.776,439.086L805.385,432.477L808.977,433.049L808.977,430.76L813.454,429.094L816.681,429.719C816.681,429.719,819.842,427.805,820.012,427.637C820.182,427.467,819.804,424.201,819.804,424.201L825.217,420.973L830.319,416.809L831.643,417.561L833.78,416.493L835.633,414.141L838.305,413.749L840.62,411.434L843.612,410.865L846.604,412.574L845.464,415.496C845.464,415.496,845.746,417.775,845.535,417.775C845.324,417.775,843.469,420.625,843.469,420.625L843.469,425.754L842.329,425.613L841.403,427.892L843.183,430.884L843.183,433.163L841.189,434.304L839.977,437.083L842.115,439.647L846.177,440.217L847.602,438.934L850.237,438.079L854.868,444.349L856.863,442.568L858.929,442.64L861.992,438.152L865.162,436.976L866.266,435.871L865.554,432.736L866.408,430.101L869.649,429.494L871.395,427.75L873.176,424.615L876.276,424.295L879.161,427.18L880.015,432.239L883.079,434.376L881.867,438.509L876.453,440.503L873.531,440.433L872.213,442.247L875.598,445.632L875.741,447.841L872.749,451.191L872.393,456.035L869.543,458.672L869.4,460.951L867.12,463.658L869.115,466.65L867.548,469.5L868.226,476.232L870.042,478.048L871.752,478.048L873.605,480.898L875.03,479.474L878.664,479.829L879.305,482.466L882.44,484.745L882.725,487.097L884.15,487.452L886.003,488.878L886.146,492.868L884.521,493.522L885.266,496.131L884.49,498.1L884.839,501.786L881.25,500.869Z"
          stroke-width="1" stroke-linejoin="round"
          style="-webkit-tap-highlight-color: rgba(0, 0, 0, 0); stroke-width: 1; stroke-linejoin: round;"></path>
    <path fill="#615dff" stroke="#ffffff"
          d="M675.5,572.119L669.667,571.285L667.333,569.785L659.667,570.869L654.916,570.869L651,574.785L646.667,575.785L642.5,576.953L636.5,576.453L632.418,574.703L629.834,572.119L627.418,567.035L624.334,563.953L620,562.287L615.834,562.287L611.084,563.535L607.834,560.287L601.334,560.287L597.5,557.453L595.583,559.369L595.375,556.244L593.75,554.619L593.156,551.775L594.938,549.994L594.938,547.057L596.875,545.119L601.25,540.744L602.438,539.557L603.938,538.057L606.25,539.494L605.75,541.744L608.875,543.244L610.75,544.994L614.875,546.244L616.75,548.119L618.875,549.244L621.25,551.619L626.625,550.494L628.625,552.619L631.125,554.744L633.75,554.744L633.75,557.119L635.625,560.119L638.375,560.119L640.375,560.119L641.25,563.119L645,560.994L647.75,560.994L647.75,556.119L651.625,552.244L656.125,546.869L658.375,541.119L664.313,535.182L671,527.119L672,515.244L674.375,507.369L670.75,506.244L668.875,497.244L667.25,489.869L668.5,487.494L670.25,485.744L667.375,483.744L664.625,482.869L663.625,478.369L668.875,474.494L671.5,474.494L671.5,471.119L674,469.994L677.625,471.244L681.375,469.869L681.375,466.619L684,464.744L685.375,466.244L689.625,466.244L692.125,464.494L693.688,466.057L698.875,467.119L701,464.994L703.25,466.244L706.563,462.932L709.125,462.932L709.125,456.369L712.125,454.869L714,450.994L717.125,451.744L718.625,453.244L715,456.619L715,461.119L718.125,462.744L719.375,466.744L721.375,469.119L722.625,473.369L725.5,476.494L728.125,475.494L731.813,477.307L734.375,479.869L735.375,482.494L733.875,487.619L730.125,488.744L727,491.869L724.625,495.744L722.875,499.619L720.125,502.369L718,506.494L719.25,510.619L721.875,511.369L721.875,513.369L723.875,515.369L722.75,519.494L716.375,525.744L712.688,527.432L710.5,529.619L707.625,530.744L706.875,535.494L704.625,537.744L702.125,538.744L700.5,544.369L697.875,544.369L694.625,543.869L690.25,548.244L688,549.369L686.125,548.619L684.25,548.619L682.375,550.494L682.375,553.619L683.75,555.244L681.625,556.119L681.625,561.994L684.563,561.557L686.563,563.557L681.125,568.994L681.833,572.119L675.5,572.119"
          stroke-width="1" stroke-linejoin="round"
          style="-webkit-tap-highlight-color: rgba(0, 0, 0, 0); stroke-width: 1; stroke-linejoin: round;"></path>
    <path fill="#615dff" stroke="#ffffff"
          d="M918.5,486.119L914.5,488.285L913.5,491.619L910.833,495.953L907.833,499.785L909.167,503.953L905.667,506.785L902.167,508.785L899.167,509.785L898.333,512.785L895.167,512.785L892,510.953L889.667,510.119L889.667,506.285L887,503.953L884.833,501.785L884.484,498.099L885.26,496.13L884.515,493.521L886.14,492.867L887.911,493.213L889.667,490.479L891.198,488.948L890.913,485.458L893.62,485.103L896.47,485.601L900.247,483.82L902.954,485.103L906.231,489.021L908.368,486.099C908.368,486.099,912.718,485.312,912.929,485.103C913.14,484.892,914.638,481.968,914.638,481.968L918.058,481.54L920.909,480.399L920.624,483.106L921.692,484.176L921.333,486.119L918.5,486.119L918.5,486.119Z"
          stroke-width="1" stroke-linejoin="round"
          style="-webkit-tap-highlight-color: rgba(0, 0, 0, 0); stroke-width: 1; stroke-linejoin: round;"></path>
    <path fill="#615dff" stroke="#ffffff"
          d="M779.5,517.285L780.5,510.119L781.833,507.285L780.5,501.953L778.166,499.619L776.083,497.535L773.5,499.619L771.666,497.285L773,493.953L774.833,488.453L777.416,485.869L782.666,482.785L780.251,478.621L779.168,476.453L776.334,476.453L775.501,472.871L774.084,470.703L776.584,469.203L776.584,468.037L775.251,468.037L773.001,465.621L771.168,465.371L771.584,461.121L770.501,459.203L769.334,455.953L766.668,454.621L764.751,457.287L762.751,456.537L762.584,453.703L761.251,452.371L759.293,451.828L757.251,453.871L756.251,456.371L752.834,455.453L751.751,453.371L753.751,450.871L752.584,448.953L750.334,449.703L747.418,448.953L745.408,446.924L745.37,444.916L742.664,444.188L742.664,441.273L740.166,440.439L737.563,437.004L733.92,435.652L733.14,431.852L731.422,430.135L729.375,431.682L727.313,431.682L725.75,430.119L723.063,429.932L720.188,432.807L721.375,433.994L720.125,436.869L721.625,438.369L720.313,441.807L725.125,446.619L727.813,445.494L727.813,447.557L729,448.744L728.375,451.994L725.75,453.619L724.25,456.494L720.5,455.494L718,456.869L715,456.619L715,461.119L718.125,462.744L719.375,466.744L721.375,469.119L722.625,473.369L725.5,476.494L728.125,475.494L731.813,477.307L734.375,479.869L735.375,482.494L733.875,487.619L730.125,488.744L727,491.869L724.625,495.744L722.875,499.619L720.125,502.369L718,506.494L719.25,510.619L721.875,511.369L721.875,513.369L723.875,515.369L722.75,519.494L718.938,523.182L716.375,525.744L712.688,527.432L710.5,529.619L707.625,530.744L706.875,535.494L704.625,537.744L702.125,538.744L701.25,541.869L700.5,544.369L697.875,544.369L694.625,543.869L690.25,548.244L688,549.369L686.125,548.619L684.25,548.619L682.375,550.494L682.375,553.619L683.75,555.244L681.625,556.119L681.625,561.994L684.563,561.557L686.563,563.557L681.125,568.994L681.833,572.119L684.166,574.453L685.5,576.953L690,578.453L695,577.785L701.833,577.785L706.667,576.285L712,576.285L714.083,574.203L718.167,570.119L723.5,567.619L727.333,564.953L730.25,562.035L731.667,557.119L737.667,551.119L741.833,549.285L745,550.453L748.5,552.285L753.167,549.619L756.5,547.619L761,548.453L767.166,548.953L772.666,546.953L775.916,543.703L778.166,538.453L781.666,537.453L781.666,532.785L780.166,531.285L777.666,526.453L779.5,521.785L779.5,517.285"
          stroke-width="1" stroke-linejoin="round"
          style="-webkit-tap-highlight-color: rgba(0, 0, 0, 0); stroke-width: 1; stroke-linejoin: round;"></path>
    <path fill="#615dff" stroke="#ffffff"
          d="M974.166,278.287C974.166,278.287,975.583,281.537,976.333,282.287L980.833,285.287L985.5,287.787L992.666,289.954L996,290.62L999,292.62L1000.833,295.12L1007.166,298.454L1012.666,300.787L1018.5,303.454L1021.5,306.454L1024.833,306.454L1027.25,308.87L1030.333,310.454L1035.166,310.454L1037,312.954L1037,309.62L1036.166,305.12L1034.5,298.12L1033.833,292.787L1030.666,289.787L1026.332,285.454L1023.5,284.287L1021.833,278.287L1023.166,275.287L1023.166,272.287L1026.833,271.787L1026.833,269.787L1022,268.62L1020.583,267.203L1017.666,266.12L1014.333,260.954L1013.166,254.287L1014.833,250.62L1017.666,248.787L1019.666,247.454L1018.5,244.454L1015.166,241.787L1009.5,242.454L1007.083,240.037L1004,239.287L1000.5,233.454L999.5,229.454L1002.833,228.454L1004.166,225.287L1000.916,222.037L998.166,222.037L996.458,223.745L992.166,222.787L987.833,219.787L987,215.953L982.667,211.62L981.5,214.12L979.916,215.703L979.916,217.12L981.166,219.953L976.5,219.953L973.75,217.203L969.166,214.787L968.666,211.12L968,206.453L964.833,203.286L962.5,200.953L960.5,198.953L958,194.786L959.833,192.953L959.833,188.62L961.833,188.62L964.916,185.537L961.833,184.12L961.833,180.953L960,176.12L962,175.953L964.333,178.286L967.5,179.786L967.5,177.119L964.667,172.786L964.667,170.286L966,165.62L964.167,163.787L967.667,158.787L969.833,153.787L974,152.454L977,153.954L979.833,151.454L978,149.62L975.167,146.453L973.5,139.786L973.5,134.953L970.333,132.12L968.667,126.953L967.833,121.62L966.166,117.62L965.166,112.953L963.353,115.547L960.438,115.755L958.356,113.673L955.858,114.506L955.129,118.774L953.88,123.042L951.381,126.894C951.381,126.894,952.839,128.371,952.839,129.08C952.839,129.789,951.173,134.181,951.173,134.181L949.508,137.929L946.697,139.595L944.823,137.721L942.325,138.554L940.035,140.844L937.12,141.365L934.569,144.748L932.54,142.719L931.499,139.908L930.145,137.306L929.208,133.87L927.126,133.245L924.263,135.275L922.545,136.993L920.151,135.952L916.195,136.577L917.028,139.076L915.674,141.054L913.904,140.534L909.948,141.783L909.948,144.698L908.125,146.002L907.034,149.487L904.224,149.279L900.893,151.778L902.142,153.027L900.476,154.693L897.77,156.15L896.312,159.169L896.312,162.084L897.56,163.439L901.747,163.876L901.872,165.626L902.935,166.689L902.122,169.002L906.122,170.752L906.622,173.252L910.622,172.502L911.872,175.502L914.622,176.627C914.622,176.627,914.747,178.377,914.747,178.877C914.747,179.377,916.81,180.94,916.81,180.94L919.248,180.252L922.123,180.252L922.623,182.252L924.498,182.252L925.873,183.877L924.873,187.502L926.373,187.502L927.498,185.752L928.623,186.877L928.623,189.127L932.081,189.544L933.664,187.294L935.164,187.461L935.498,185.294L932.164,185.294L929.414,182.544L926.497,179.627L924.498,177.794L925.498,175.127L925.498,171.627L929.164,169.627L931.747,167.044L932.831,168.128L929.664,171.127L929.664,174.96L933.164,177.127L935.498,180.127L937.414,182.044L939.498,182.794L941.664,182.794L943.831,186.961L945.831,188.961L945.831,191.794L945.831,194.127L944.664,198.127L944.831,201.46L946.831,203.127L948.831,209.294L950.498,213.461L951.998,218.628L953.331,224.128L956.498,228.295L958.498,234.462L959.331,239.795L960.998,244.795L959.748,246.045L958.248,247.545L959.831,250.295L958.664,252.795L957.247,254.212L957.247,255.629L960.331,256.295L963.164,260.295L963.664,264.129L965.997,266.463L965.998,269.963L969.331,273.463L974.166,278.287Z"
          stroke-width="1" stroke-linejoin="round"
          style="-webkit-tap-highlight-color: rgba(0, 0, 0, 0); stroke-width: 1; stroke-linejoin: round;"></path>
    <path fill="#615dff" stroke="#ffffff"
          d="M970.709,195.098L970.709,198.27L970.421,201.154L972.151,202.308L973.305,203.75L973.449,206.345L975.757,207.21L975.18,204.615L974.17,202.596L975.18,199.279L975.18,195.242L972.439,194.088L970.709,195.098"
          stroke-width="1" stroke-linejoin="round"
          style="-webkit-tap-highlight-color: rgba(0, 0, 0, 0); stroke-width: 1; stroke-linejoin: round;"></path>
    <path fill="#615dff" stroke="#ffffff"
          d="M1026.804,210.239L1024.785,210.96L1025.795,213.123L1029.256,213.123L1032.717,213.123L1034.88,210.96L1032.14,210.095L1029.399,211.249L1026.804,210.239"
          stroke-width="1" stroke-linejoin="round"
          style="-webkit-tap-highlight-color: rgba(0, 0, 0, 0); stroke-width: 1; stroke-linejoin: round;"></path>
    <path fill="#615dff" stroke="#ffffff"
          d="M1036.756,316.516L1035.891,319.112L1034.521,320.481L1036.107,322.068L1037.044,324.014L1036.756,326.61L1036.611,329.926L1038.125,331.44L1039.784,330.503L1039.784,327.042L1041.298,325.529L1040.072,322.573L1038.054,320.553L1038.197,317.958L1036.756,316.516"
          stroke-width="1" stroke-linejoin="round"
          style="-webkit-tap-highlight-color: rgba(0, 0, 0, 0); stroke-width: 1; stroke-linejoin: round;"></path>
    <path fill="#615dff" stroke="#ffffff"
          d="M1042.956,339.011L1042.956,341.174L1044.398,341.895L1045.408,340.598L1042.956,339.011" stroke-width="1"
          stroke-linejoin="round"
          style="-webkit-tap-highlight-color: rgba(0, 0, 0, 0); stroke-width: 1; stroke-linejoin: round;"></path>
    <path fill="#615dff" stroke="#ffffff"
          d="M1039.065,202.738L1037.19,204.036L1038.199,205.045L1039.569,203.675L1040.939,202.305L1039.065,202.738"
          stroke-width="1" stroke-linejoin="round"
          style="-webkit-tap-highlight-color: rgba(0, 0, 0, 0); stroke-width: 1; stroke-linejoin: round;"></path>
    <path fill="#615dff" stroke="#ffffff"
          d="M932.083,189.537L934.166,191.62L934.166,196.953L935.833,200.953L936.166,207.286L935,211.12L933.666,207.787L930.666,206.287L930.667,210.454L928.167,207.954L926.5,206.287L925.166,203.454L920.5,199.121L921.833,202.788L920.5,206.788L916,206.788L916,209.455L914.5,214.955L912.666,217.122L912.833,224.455L915.833,226.455L915.333,231.122L918.333,235.789L918.333,240.789L919.25,247.372L922,250.122L922,253.122L924.333,255.456L926.5,255.122L928.416,253.372L929.833,251.956L932.333,251.956L932.166,255.122L929.5,255.956L929.5,260.456L924.5,261.289L925.666,267.122L925.166,269.622L922,270.954L922,274.454L920.833,277.62C920.833,277.62,916.916,278.537,917.666,277.787C918.416,277.037,916.166,276.287,916.166,276.287L916.166,274.12L916.833,271.954L919.583,271.037L918.333,269.787L915.333,270.954L912.166,271.454L912.166,272.954L907.5,275.12L905.166,277.954L902.5,278.62L900.333,280.787L899.5,283.287L900.332,286.454L902.166,288.287L900,290.62L896.5,289.287L897.583,292.87L895,295.454L892.666,297.62L891.875,294.995L888.25,291.37L886.25,291.37L884.75,292.745L882.75,291.745L879.875,291.62L877.375,294.62L875.125,294.745L873.25,291.995L873.25,288.245L876.375,286.495L873.875,283.12L873.875,280.62L871.625,279.87L867.875,277.495L865.625,276.37L859.25,275.995L855.875,279.995L853.218,279.919L853.739,276.796L851.241,274.298L850.616,272.319L848.378,270.081L844.475,268.051L843.434,265.657L840.728,262.013L840.728,260.035L839.374,259.41L839.999,256.078L841.543,254.534L839.218,253.112L839.687,250.249L844.059,248.479L844.059,246.917L847.39,247.021L847.077,243.273L844.579,242.544L842.913,240.358L844.995,238.38L847.077,238.38L847.077,235.778L849.159,234.32L849.159,232.446L851.762,231.821L853.324,233.695L855.51,233.382L856.656,230.988L855.927,228.906L858.217,225.262L858.946,222.868L861.236,222.451L861.236,220.369L860.09,217.35L857.384,215.788L854.781,213.185L854.573,206.835L852.075,205.585L850.305,203.191L850.305,200.38L852.283,199.963L851.345,197.256L848.534,196.423L849.055,193.924L851.97,192.779L851.97,189.864L853.324,188.511L856.551,188.511L856.864,185.075L861.028,185.075L862.694,183.409L861.652,179.974L863.11,177.163L861.132,173.935L864.88,172.373L866.598,174.091L868.627,176.954L871.438,176.954L874.769,175.704L875.81,173.622L879.246,174.351L883.202,173.934L886.741,169.041L892.05,169.874L897.568,163.42L901.755,163.857L901.88,165.607L902.943,166.67L902.13,168.983L906.13,170.733L906.63,173.233L910.63,172.483L911.88,175.483L914.63,176.608L914.755,178.858L916.818,180.921L919.256,180.233L922.131,180.233L922.631,182.233L924.506,182.233L925.881,183.858L924.881,187.483L926.381,187.483L927.506,185.733L928.631,186.858L928.631,189.108L932.083,189.537Z"
          stroke-width="1" stroke-linejoin="round"
          style="-webkit-tap-highlight-color: rgba(0, 0, 0, 0); stroke-width: 1; stroke-linejoin: round;"></path>
    <path fill="#615dff" stroke="#ffffff"
          d="M960.5,475.285L962.333,480.119L963.666,485.453L964.666,490.285L965.666,496.785L965.666,503.119L964.666,506.453L964.666,512.953L964.666,520.953L963.666,526.953L964.666,533.119L964.333,541.119L964.333,544.953L961,550.453L958.833,555.119L956.333,559.787L954.166,559.787L950,561.453L946.5,563.453L944.083,562.453L944.083,560.203L942.833,558.953L941.582,561.787L941.582,564.869L940.166,563.453L938,561.287L938,562.953L937.333,567.119L938,569.953L937.083,573.203L935.666,574.619L935.666,576.287L935.666,578.953L932.5,578.787L931.166,577.453L932.333,573.619L934.333,569.619L934.333,566.287L932.583,562.369L929,558.787L927.166,556.953L925.666,553.119L922.5,549.953L919.5,548.953L919.416,545.703L921.5,543.619L923.333,541.787L923.333,538.453L925.666,536.119L928.333,534.787L931.084,535.703L933.5,533.287L935,530.287L932.333,526.119L933.666,522.619L932,518.953L931.666,515.119L929.333,511.953L930,509.287L928.166,506.119L931.418,505.691L931.418,504.301L929.601,502.484L930.028,499.279L932.949,495.291L935.264,495.967L935.941,496.645L938.222,496.572L939.005,495.434L942.425,495.932L942.71,494.863L946.13,494.363L948.766,491.016L948.766,486.313L946.771,485.744L947.341,482.965L951.33,481.539L952.328,479.189L952.684,475.912L951.401,472.705L950.119,472.35L949.051,474.416L946.271,474.701L945.488,472.35L942.425,471.992L941.854,469.713L945.203,466.936L946.414,462.375L948.409,462.09L950.726,463.906L952.542,465.723L954.893,465.582L955.89,467.646L955.106,469.357L957.956,471.424L960.667,469.119L960.5,475.285"
          stroke-width="1" stroke-linejoin="round"
          style="-webkit-tap-highlight-color: rgba(0, 0, 0, 0); stroke-width: 1; stroke-linejoin: round;"></path>
    <path fill="#615dff" stroke="#ffffff"
          d="M833.166,129.787L830,132.953L830,135.287L831.583,136.87L828.333,136.87L825.333,139.287L821.166,141.12L816.5,136.453L814.25,134.203L809.666,134.453L804.166,135.286L801,139.12L797.5,142.62L793.333,148.787L793.333,153.62L790,157.787L786.833,160.954L783.333,161.12L780.166,159.453L775.666,161.953C775.666,161.953,776.666,166.286,776.166,165.786C775.666,165.286,773,162.453,773,162.453L770.666,165.12L767,165.12C767,165.12,764.75,164.37,765.833,163.287C766.916,162.204,768.333,160.287,768.333,160.287L765.333,158.12L760.333,160.287L756.833,161.954L755.333,166.121L754.666,168.454L755.666,173.787L755.666,176.954L752.833,179.621L753.666,173.121L750.5,172.121L748,174.621L745.166,175.954L746.333,171.454C746.333,171.454,749.5,170.287,749.5,169.287C749.5,168.287,748.833,167.62,748.833,167.62L744,169.787L737.833,172.12L736.5,175.953L731.833,178.286L728.666,178.286L726.5,180.453L730,182.62L730.5,184.953L726.833,188.286L726.833,191.786L728.833,193.119L730.5,188.786L731.666,189.786L731.666,193.453L734.5,194.953L737,197.453L738.166,198.12L735.666,200.62L732.5,200.453L730.666,202.453L729.25,203.87L733.166,205.62L733.166,208.12L729.5,207.12L726.333,207.287L722,208.287L719.666,212.62L720.5,216.953L716.333,216.953L712.666,217.953L710.333,215.62L706.166,215.12L706.166,218.12L708.333,220.287L708.333,222.62L709.333,225.12L711,230.62L710.666,233.787L706.833,231.787L705.333,233.287L701.833,232.62L699.333,230.953L696.083,227.703L692.666,227.787L692.666,225.12C692.666,225.12,691.166,222.787,691.166,223.62C691.166,224.453,689.333,225.287,689.333,225.287L687,222.953L688.333,221.62L690.5,220.953L690.5,217.286L688.833,215.619L685.666,217.619L685.666,214.452L683.749,212.535L681.833,212.535L683.166,208.452L679.166,207.119L678,208.286L674.333,205.453C674.333,205.453,674,207.036,672.75,207.036C671.5,207.036,671.666,210.119,671.666,210.119L670.333,211.119L669,209.619L667.666,209.952L667,211.952L664.333,210.119L662.583,208.369L660.5,209.952L658.5,207.952L658,209.952L657.333,213.785L659.833,217.618L660.333,220.951C660.333,220.951,661.166,223.951,660.333,223.951C659.5,223.951,655.833,224.618,655.833,224.618L652.333,227.618L648.833,228.951L646.833,225.784L646.333,227.617L646.166,228.95L641,228.95L638.25,226.2L639.417,225.033L638.166,223.116L633.166,224.616L626.833,225.783L622.666,227.95L619.583,231.033L618,232.62L620.333,234.787L618,234.787L616,231.954L616,228.621L614.25,226.871L612.166,229.788L611.5,231.788L608.166,230.455L605.333,229.788L605.766,232.715L607.093,233.771L606.761,235.371L605.615,236.578L606.37,238.509L607.849,240.742L609.267,242.16L608.694,245.51L609.877,247.996L613.252,249.246L613.252,250.996L617.752,254.246L619.877,256.371L619.877,260.496L622.252,264.996L624.877,264.996L625.127,268.371L623.752,268.371L623.064,270.684L619.876,273.872L617.126,275.747L617.251,281.747L614.751,282.622L613.876,285.872L615.751,287.747L615.751,290.497L614.751,292.747L611.376,291.747L608.876,292.497L605.251,297.622L601.751,298.997L601.751,300.372L602.651,302.615L603.901,305.53L606.815,307.508L607.127,313.026L610.042,318.335L610.042,320.521L610.771,324.685L611.709,331.139L609.21,331.868L607.545,334.575L605.983,336.137L606.92,338.948L607.858,338.011L610.98,339.261L610.98,341.968L612.126,343.114L610.98,344.155L610.98,347.07L613.895,348.632L614.832,353.213L618.268,356.648L617.123,359.875L615.144,362.998L615.977,365.497L615.977,367.683L614.936,368.724L614.936,372.055L616.706,372.888L619.413,372.888L620.767,371.535L622.328,371.535L623.786,373.304L626.805,372.159L629.095,373.2L630.916,371.378L633.362,371.534L633.468,373.513L635.81,375.855L635.81,377.989L633.572,378.614L633.572,381.841L636.279,381.633L639.09,380.8L641.588,382.57L643.67,386.318L644.607,389.961L645.753,391.107L644.712,392.148L644.712,394.543L647.315,395.792L649.71,395.792L651.531,397.613L651.167,400.684L649.866,401.985L649.866,404.223L651.765,406.123L652.728,408.387L653.041,410.365L655.123,411.094L658.038,412.343L658.038,416.403L657.413,420.567L657.413,425.252L656.892,430.248L657.309,438.576L661.316,442.582L664.908,442.322L666.574,439.824L667.615,436.701L670.217,436.701L675.735,434.619L676.256,431.914L678.338,430.976L680.525,433.162L680.525,436.078L682.398,438.68L682.398,435.244L686.77,432.226L686.77,426.396L689.893,423.273L691.142,419.525L690.205,416.297L692.547,413.955L693.536,410.676L695.514,408.282L699.053,408.803L702.593,408.386L706.34,410.156L709.568,410.573L709.568,413.592L711.13,414.946L711.13,417.34L714.773,417.861L717.115,415.519L717.115,412.968L719.77,412.968L721.592,414.79L723.83,417.236L723.83,419.631L725.912,419.839L727.266,423.587L729.452,425.773L732.003,428.324L731.431,430.146L733.149,431.863L733.929,435.664L737.573,437.016L740.176,440.452L742.674,441.286L742.674,444.2L745.38,444.929L748.295,442.015L751.523,439.308L754.75,439.308L756.26,437.798L758.081,439.62L760.579,440.14L761.724,438.995L765.056,438.995L766.41,440.765L768.492,440.765L769.116,438.267L773.28,439.099L774.737,437.642L777.757,437.017L780.568,438.267L784.107,441.806L786.813,440.558L789.833,439.829L791.186,437.954L793.476,438.995L795.142,437.329L797.016,437.329L798.786,439.099L800.503,437.382L805.396,432.489L808.988,433.061L808.988,430.772L813.465,429.106L816.692,429.731L820.023,427.649L819.815,424.213L825.228,420.985L830.33,416.821L828.456,412.448L828.456,409.117L826.27,406.931L828.196,405.005L828.768,400.685L824.188,398.707L820.441,398.707L820.024,396.52L822.627,395.999L821.273,393.293L822.002,388.192L818.879,387.671L815.756,384.443L818.462,383.818L818.775,379.862L817.526,378.613L816.797,376.53L817.838,373.928L815.756,371.846L817.526,369.451L816.016,367.941L816.016,364.35L819.4,362.58L821.69,361.33L824.396,361.643L826.634,359.405L829.601,358.208L830.018,355.293L828.092,353.367L829.185,350.609L833.037,349.88L838.138,344.779L837.93,339.053L841.574,337.804L841.574,335.93L837.982,332.338L837.202,329.788L833.194,325.78L830.643,325.208L830.122,321.981L830.747,318.129L828.717,316.099L831.788,312.092L831.788,308.552L831.996,304.18L830.434,302.618L829.602,299.495L828.144,298.037L828.04,294.186L830.954,293.561L833.453,294.186L836.68,295.956L839.908,294.29L842.511,293.457L845.114,290.855L846.987,287.523L849.485,287.627L850.943,286.69L852.036,287.783L853.441,287.315L853.441,284.5L853.234,279.919L853.755,276.796L851.257,274.298L850.632,272.319L848.394,270.081L844.491,268.051L843.45,265.657L840.744,262.013L840.744,260.035L839.39,259.41L840.015,256.078L841.108,254.985L839.234,253.111L839.703,250.248L844.075,248.478L844.075,246.916L847.406,247.02L847.093,243.272L844.595,242.543L842.929,240.357L845.011,238.379L847.093,238.379L847.093,235.777L849.175,234.319L849.175,232.445L851.778,231.82L853.34,233.694L855.526,233.381L856.672,230.987L855.943,228.905L858.233,225.261L858.962,222.867L861.252,222.45L861.252,220.368L860.106,217.349L857.4,215.787L854.797,213.184L854.797,210.165L854.589,206.833L852.091,205.583L850.321,203.189L850.321,200.378L852.299,199.961L851.361,197.254L848.55,196.421L849.071,193.922L851.986,192.777L851.986,189.862L853.34,188.509L856.567,188.509L856.88,185.073L861.044,185.073L862.71,183.407L861.668,179.972L863.126,177.161L861.148,173.933L859.275,173.933L857.505,170.394L855.526,168.415L852.82,168.415L849.384,169.561L846.261,168.207L842.93,167.687L842.93,163.835L840.327,162.378L838.974,159.047L840.952,155.924L840.952,152.489L843.242,150.927L843.242,147.596L844.804,143.64L848.24,141.038L845.637,136.666L842.617,135.52L841.785,133.438L838.454,133.021L834.498,131.667L833.166,129.787Z"
          stroke-width="1" stroke-linejoin="round"
          style="-webkit-tap-highlight-color: rgba(0, 0, 0, 0); stroke-width: 1; stroke-linejoin: round;"></path>
    <path fill="#615dff" stroke="#ffffff"
          d="M715.671,134.212L715.368,133.002L717.637,134.061L718.771,132.926L720.359,131.338L722.704,128.994L724.141,130.733L724.897,130.733L726.787,128.843L728.527,126.801L731.854,125.289L734.274,127.104L732.913,130.885L732.913,133.002L731.325,134.59L728.829,135.725L726.107,136.784L723.385,136.784L721.343,138.826L718.091,137.691L716.427,135.271L715.671,134.212"
          stroke-width="1" stroke-linejoin="round"
          style="-webkit-tap-highlight-color: rgba(0, 0, 0, 0); stroke-width: 1; stroke-linejoin: round;"></path>
    <path fill="#615dff" stroke="#ffffff"
          d="M710.074,137.389L705.234,137.389L703.646,138.977L701.15,140.716L699.335,138.901L694.949,140.262L695.252,142.985L696.387,144.12L698.05,145.783L699.185,146.917L697.521,148.279L695.252,146.313L694.042,147.522L692.378,145.858L688.597,146.615L686.933,145.708L686.177,147.674L687.387,148.883L685.118,150.094L685.118,152.967L686.934,154.782L686.479,156.9L688.143,156.9L690.261,159.018L689.655,161.438L692.378,162.799L696.008,162.95L697.521,164.462L700.243,164.462L703.419,163.555L703.419,161.135L701.453,159.32L702.512,158.261L704.1,159.849L706.898,154.783L709.545,152.136L710.68,153.27L713.1,150.85L713.855,148.581L711.133,147.674L709.318,149.489L707.05,147.825L704.327,146.161L701.604,144.195L702.512,142.229L703.949,140.792L705.083,144.648L706.822,146.388L709.771,146.917L711.587,146.161L713.1,146.161L714.611,144.649L713.855,141.472L711.436,141.472L712.041,138.75L712.041,136.784L710.074,137.389"
          stroke-width="1" stroke-linejoin="round"
          style="-webkit-tap-highlight-color: rgba(0, 0, 0, 0); stroke-width: 1; stroke-linejoin: round;"></path>
    <path fill="#615dff" stroke="#ffffff"
          d="M712.646,164.009L711.284,165.219L712.343,168.244L714.083,169.984L715.52,167.185L715.52,164.917L714.461,163.858L712.646,164.009"
          stroke-width="1" stroke-linejoin="round"
          style="-webkit-tap-highlight-color: rgba(0, 0, 0, 0); stroke-width: 1; stroke-linejoin: round;"></path>
    <path fill="#615dff" stroke="#ffffff"
          d="M718.847,166.731L717.107,168.471L718.091,170.815L719.755,172.479L718.695,174.899L719.604,175.807L720.965,172.933L724.443,172.176L727.469,170.966L731.552,168.546L729.435,164.614L726.561,164.614L722.477,163.252L720.586,164.992L718.847,166.731"
          stroke-width="1" stroke-linejoin="round"
          style="-webkit-tap-highlight-color: rgba(0, 0, 0, 0); stroke-width: 1; stroke-linejoin: round;"></path>
    <path fill="#615dff" stroke="#ffffff"
          d="M684.815,160.227L683.454,158.866L681.034,158.715L682.623,160.303L683.605,163.857L685.571,163.857L685.571,161.891L684.815,160.227"
          stroke-width="1" stroke-linejoin="round"
          style="-webkit-tap-highlight-color: rgba(0, 0, 0, 0); stroke-width: 1; stroke-linejoin: round;"></path>
    <path fill="#615dff" stroke="#ffffff"
          d="M609.188,219.064L606.391,221.862L606.391,223.752L608.734,223.752L609.491,225.567L611.457,224.66L613.727,222.391L613.727,218.761L610.853,218.761L609.188,219.064"
          stroke-width="1" stroke-linejoin="round"
          style="-webkit-tap-highlight-color: rgba(0, 0, 0, 0); stroke-width: 1; stroke-linejoin: round;"></path>
    <path fill="#615dff" stroke="#ffffff"
          d="M707.798,112.583L706.891,114.247L707.874,115.23L709.009,114.247L707.798,112.583" stroke-width="1"
          stroke-linejoin="round"
          style="-webkit-tap-highlight-color: rgba(0, 0, 0, 0); stroke-width: 1; stroke-linejoin: round;"></path>
    <path fill="#615dff" stroke="#ffffff"
          d="M699.328,178.68L696.454,178.075L695.547,178.831L697.211,179.587L699.328,181.251L700.235,180.041L699.328,178.68"
          stroke-width="1" stroke-linejoin="round"
          style="-webkit-tap-highlight-color: rgba(0, 0, 0, 0); stroke-width: 1; stroke-linejoin: round;"></path>
    <path fill="#615dff" stroke="#ffffff"
          d="M920.815,375.93L919.661,376.219L918.797,373.768L918.797,371.604L922.546,372.614L924.42,373.479L925.43,375.787L927.449,377.806L931.054,378.527L931.919,380.835L935.956,383.431L938.119,383.431L939.849,385.882L941.291,389.776L943.526,392.01L947.78,396.409L950.519,397.13L954.269,398.572L957.874,401.745L962.777,404.484L965.949,407.224L970.132,409.387L973.736,411.55L976.044,413.424L980.081,415.011L979.505,416.886L978.064,418.327L975.324,419.192L973.161,419.192L973.738,422.22L973.161,424.383L973.161,426.113L975.612,429.863C975.612,429.863,977.921,432.457,977.487,432.89C977.053,433.323,977.632,437.361,977.632,437.361L979.507,439.236L982.391,442.121L984.842,443.707L988.591,443.707L990.754,445.869L993.205,445.869L994.503,448.609L997.676,448.754L999.622,446.807L1003.011,448.754L1005.031,451.35C1005.031,451.35,1005.753,453.08,1005.031,453.08C1004.309,453.08,1000.416,451.205,1000.416,451.205L998.758,452.863L995.081,452.863L993.928,455.82L994.649,458.703L996.956,461.01L998.686,464.76L996.379,466.635L994.504,464.328L992.053,461.875L987.727,457.838L987.727,455.098L984.843,452.215L982.104,449.475L980.229,447.024L977.921,442.553L975.037,439.813L972.009,438.083L969.125,437.218L966.672,432.027L961.337,424.673L957.011,420.346L953.407,416.742L950.233,412.416L948.214,409.1L942.735,406.648L938.409,404.774L935.813,404.485L932.352,399.726L932.352,397.564L928.603,393.814L926.584,390.065L922.546,388.767L923.556,385.883L923.556,383.72L926.872,384.729L927.449,381.845L925.503,379.899L925.503,378.817L923.592,376.906L920.815,375.93Z"
          stroke-width="1" stroke-linejoin="round"
          style="-webkit-tap-highlight-color: rgba(0, 0, 0, 0); stroke-width: 1; stroke-linejoin: round;"></path>
    <path fill="#615dff" stroke="#ffffff"
          d="M1042.666,451.203L1043.243,454.23L1043.531,457.115L1044.686,457.547L1044.686,455.24L1045.551,453.365L1045.551,450.77L1042.666,451.203"
          stroke-width="1" stroke-linejoin="round"
          style="-webkit-tap-highlight-color: rgba(0, 0, 0, 0); stroke-width: 1; stroke-linejoin: round;"></path>
    <path fill="#615dff" stroke="#ffffff"
          d="M1052.616,452.934L1052.616,454.23L1054.491,455.24L1054.491,453.076L1052.616,452.934" stroke-width="1"
          stroke-linejoin="round"
          style="-webkit-tap-highlight-color: rgba(0, 0, 0, 0); stroke-width: 1; stroke-linejoin: round;"></path>
    <path fill="#615dff" stroke="#ffffff"
          d="M1046.704,441.252L1048.435,441.973L1049.012,439.666L1048.146,435.053L1049.732,433.467L1049.444,430.148L1046.992,429.428L1046.271,433.178L1047.209,434.113L1046.416,436.926L1046.704,441.252"
          stroke-width="1" stroke-linejoin="round"
          style="-webkit-tap-highlight-color: rgba(0, 0, 0, 0); stroke-width: 1; stroke-linejoin: round;"></path>
    <path fill="#615dff" stroke="#ffffff"
          d="M1051.03,422.217L1050.309,422.938L1050.886,425.391L1052.04,423.66L1051.03,422.217" stroke-width="1"
          stroke-linejoin="round"
          style="-webkit-tap-highlight-color: rgba(0, 0, 0, 0); stroke-width: 1; stroke-linejoin: round;"></path>
    <path fill="#615dff" stroke="#ffffff"
          d="M1052.761,413.42L1053.481,409.671L1052.473,407.365L1053.049,404.913L1054.996,402.965L1055.5,405.634L1055.067,408.374L1055.645,411.546L1054.635,413.853L1052.761,413.42"
          stroke-width="1" stroke-linejoin="round"
          style="-webkit-tap-highlight-color: rgba(0, 0, 0, 0); stroke-width: 1; stroke-linejoin: round;"></path>
    <path fill="#615dff" stroke="#ffffff"
          d="M1054.637,381.262L1054.637,384.436L1054.637,387.031L1056.656,387.031L1056.079,384.58L1056.079,382.993L1056.079,381.119L1054.637,381.262"
          stroke-width="1" stroke-linejoin="round"
          style="-webkit-tap-highlight-color: rgba(0, 0, 0, 0); stroke-width: 1; stroke-linejoin: round;"></path>
    <path fill="#615dff" stroke="#ffffff"
          d="M830.314,416.809L828.44,412.436L828.44,409.105L826.254,406.919L828.18,404.993L828.752,400.673L824.172,398.695L820.425,398.695L820.008,396.508L822.611,395.987L821.257,393.281L821.986,388.18L818.863,387.659L815.74,384.431L818.446,383.806L818.759,379.851L817.51,378.602L816.781,376.519L817.822,373.917L815.74,371.835L817.51,369.44L816,367.93L816,364.339L819.384,362.569L821.674,361.319L824.38,361.632L826.618,359.394L829.585,358.197L830.002,355.282L828.076,353.356L829.169,350.598L833.021,349.869L838.122,344.768L837.914,339.042L841.558,337.793L841.558,335.919L837.966,332.327L837.186,329.777L833.178,325.769L830.627,325.197L830.106,321.97L830.731,318.118L828.701,316.088L831.772,312.081L831.772,308.541L831.98,304.169L830.418,302.607L829.586,299.484L828.128,298.026L828.024,294.175L830.938,293.55L833.437,294.175L836.664,295.945L839.892,294.279L842.495,293.446L845.098,290.844L846.971,287.512L849.469,287.616L850.927,286.679L852.02,287.772L853.425,287.304L853.425,284.5L853.218,279.919L855.875,279.995L859.25,275.995L865.625,276.37L871.625,279.87L873.875,280.62L873.875,283.12L876.375,286.495L873.25,288.245L873.25,291.995L875.125,294.745L877.375,294.62L879.875,291.62L882.75,291.745L884.75,292.745L886.25,291.37L888.25,291.37L891.875,294.995L892.666,297.62L890.666,297.62L888.666,299.454L890,301.62L891,302.62L888.166,304.454L884.333,304.454L880.583,308.203L878.166,310.62L875.499,315.12L872.666,317.954L869.833,323.62L869.333,329.12L872,334.454L869.5,336.954L868.667,342.287L870.166,346.12L872.5,348.454L870.5,351.787L870.5,356.287L870.5,362.287L869.5,366.454L869.5,372.12L871.167,373.954L871.167,377.954L871.167,382.454L869.667,388.12L869.667,392.787L867.167,396.954L867.167,401.12L865.833,404.787L867.333,408.162L869.875,408.162L871.833,406.204L874.582,406.204L876.75,404.036L879.166,401.62L880.833,403.287L882.833,404.287L882.833,406.454L884.417,409.37L886.417,411.37L888.167,409.62L888.167,406.954L885.833,405.954L885.833,403.454L887.667,401.454L887.667,403.12L889.667,404.62L890.667,404.287L891.667,405.287L891.667,408.287L891.667,410.454L895,409.12L895,407.454L896.833,404.954L898,403.954L899.833,405.287L900.25,402.537L898.667,400.954L897.167,398.12L895.333,394.787L898.333,393.121L900.167,391.287L903.833,390.454L908.167,390.454L911.75,390.871L913.333,392.454C913.333,392.454,917.167,391.787,918,391.787C918.833,391.787,921.166,390.786,921.166,390.786L923.25,392.87L921.666,394.454L920.5,395.62L919.5,397.454L922.333,397.454L925.333,397.454L926,399.62L928.5,402.12L931.584,401.704L933.167,403.287L934.833,406.454L935.333,412.787L937.5,419.454L940.916,424.37L945.166,428.62L946.833,430.288L947.666,433.12L951,436.454L953.333,440.454L954.167,442.788L957.25,447.538L959.833,450.12L959.833,457.12L958.833,463.12L960.667,469.12L957.956,471.425L955.106,469.359L955.889,467.648L954.892,465.584L952.541,465.725L950.725,463.909L948.409,462.093L946.414,462.378L945.203,466.939L941.854,469.716L942.424,471.995L945.487,472.352L946.27,474.704L949.049,474.419L950.117,472.353L951.399,472.708L952.681,475.915L952.326,479.192L951.328,481.542L947.339,482.968L946.769,485.747L948.764,486.315L948.764,491.018L946.128,494.366L942.708,494.866L942.423,495.934L939.003,495.436L938.22,496.575L935.94,496.647L935.262,495.969L932.948,495.293L930.027,499.281L929.599,502.486L931.416,504.302L931.416,505.693L928.164,506.121L927.331,502.455L923.998,498.955L926.498,496.455L926.498,492.787L924.415,490.705L922,488.285L921.333,486.119L921.692,484.176L920.624,483.106L920.909,480.399L918.058,481.54L914.638,481.968L912.929,485.103L908.368,486.099L906.231,489.021L902.954,485.103L900.247,483.82L897.753,484.888L896.47,485.601L893.62,485.103L890.913,485.458L891.198,488.948C891.198,488.948,890.023,490.837,889.667,490.479C889.311,490.124,888.063,493.366,888.063,493.366L886.139,492.868L885.996,488.878L884.143,487.452L882.718,487.097L882.433,484.745L879.298,482.466L878.657,479.829L875.023,479.474L873.598,480.898L871.745,478.048L870.035,478.048L868.219,476.232L867.541,469.5L869.108,466.65L867.113,463.658L869.393,460.951L869.536,458.672L872.386,456.035L872.742,451.191C872.742,451.191,875.734,448.199,875.734,447.841C875.734,447.486,875.591,445.632,875.591,445.632L872.206,442.247L873.524,440.433L876.446,440.503L881.86,438.509L883.072,434.376L880.008,432.239L879.154,427.18L876.269,424.295L873.169,424.615L871.388,427.75L869.642,429.494L866.401,430.101L865.547,432.736L866.259,435.871L865.155,436.976L861.985,438.152L860.418,440.359L858.922,442.64C858.922,442.64,857.069,442.355,856.856,442.568C856.642,442.783,854.861,444.349,854.861,444.349L850.23,438.079L847.595,438.934L846.17,440.217L842.108,439.647L839.97,437.083L841.182,434.304L843.176,433.163L843.176,430.884L841.396,427.892L842.322,425.613L843.462,425.754L843.462,420.625L845.528,417.775L845.457,415.496L846.597,412.574L843.605,410.865L840.613,411.434L838.298,413.749L835.626,414.141L833.773,416.493L831.636,417.561L830.314,416.809Z"
          stroke-width="1" stroke-linejoin="round"
          style="-webkit-tap-highlight-color: rgba(0, 0, 0, 0); stroke-width: 1; stroke-linejoin: round;"></path>
    <path fill="#615dff" stroke="#ffffff"
          d="M880.727,390.784L879.285,392.37L879.285,394.388L879.285,396.551L881.736,395.542L883.035,396.84L884.477,395.399L885.053,392.513L883.467,390.207L880.727,390.784"
          stroke-width="1" stroke-linejoin="round"
          style="-webkit-tap-highlight-color: rgba(0, 0, 0, 0); stroke-width: 1; stroke-linejoin: round;"></path>
    <path fill="#615dff" stroke="#ffffff"
          d="M965.166,112.953L965.166,106.953L964,101.62L961.166,97.287L962.416,96.037L958.5,93.454L959.5,91.954L963,91.954L965.166,87.287L968.5,85.954L968.5,82.454L966.083,80.037L964.833,77.12L962.166,79.12L960.333,77.62L958.166,77.953L956.416,79.703L953.5,79.703L952.666,81.286L949.666,81.286L949.666,78.953L946,79.12L944,79.453L941.5,79.286L940.5,80.953L938.416,83.036L934.833,83.119L932.833,84.619L932.833,87.786L930.666,88.619L929,86.954L931.666,83.787L929.833,83.787L927,84.953L928.166,82.286L931.666,80.786L934.166,80.786L936.833,76.453L936.166,72.62L934.833,67.787L932.083,65.037L929.499,62.453L927.999,63.953L927.833,60.786L925.333,60.786L921.666,61.786L919.416,59.536L919.416,57.286L916.5,56.786L917.5,55.786L919,55.119L917.75,53.869L918,52.286L919.666,53.286L921.5,54.786L924.666,54.786L926.833,53.119L929,54.786L931.75,52.036L931.75,47.786L930.5,45.286L933.333,41.119L936.5,41.119L939,42.119L942.5,40.952L944.333,36.952L947.833,33.119L951.666,32.786L953.166,28.453L950.333,27.62L950.333,26.287L953.833,26.287L952.666,23.62L952.666,21.453L950.833,23.786L949,24.286L946.833,20.953L943.75,17.87L943.75,19.62L939.833,18.12L938,19.953L935,19.453L938.833,16.953L938.833,13.453C938.833,13.453,939.833,10.453,938.833,11.453C937.833,12.453,935.333,12.453,935.333,12.453L937.166,8.62L935.5,6.953L933.333,5.12C933.333,5.12,934.333,1.287,933.333,2.287C932.333,3.287,929.5,4.12,929.5,4.12L926.5,8.287L925.333,8.287L921.333,9.787L919,12.12L917.333,14.453L917,17.453L915.166,17.286L915.166,18.786L917.833,19.453L914.666,21.62L913.666,24.62L916.666,25.453L921.333,25.786L925.333,24.953L925.333,26.953L921.333,29.12L919.083,31.37L915.666,28.787L911.833,29.954L909.166,27.287L906.833,28.62L903.166,30.287L900.166,33.454L894.5,35.12L891.5,39.453L887.333,41.12L883.916,44.537L880.582,47.87L877,49.953L872,52.12L869.416,54.704L863.75,60.371L858.666,65.288L857.333,70.121L854.5,74.288L853.5,77.288L854.5,80.121L852.167,80.121L849.5,81.621L849.167,85.121L846.167,86.621L845.333,89.788L845.333,91.621L848.667,91.621L849.667,93.954L853.833,93.287L859.5,95.787L861.333,96.12L862.333,98.787L861.5,101.454L858.167,102.287L854.5,103.954L851.833,104.954L848,104.954L845.5,102.454L847.917,100.037L844.75,96.87L843,98.62L841.167,101.953L843.5,105.286L842.833,107.286L844.5,108.953L843.5,112.953L839.333,115.953L839.333,119.286L837.166,121.453L834.666,121.453L833.166,124.286L833.166,129.786L834.48,131.682L838.436,133.036L841.767,133.453L842.599,135.535L845.619,136.681L848.222,141.053L844.786,143.655L843.224,147.611L843.224,150.942L840.934,152.504L840.934,155.939L838.956,159.062L840.309,162.393L842.912,163.85L842.912,167.702L846.243,168.222L849.366,169.576L852.802,168.43L855.508,168.43L857.487,170.409L859.257,173.948L861.13,173.948L864.878,172.386L866.596,174.104L868.625,176.967L871.436,176.967L874.767,175.717L875.808,173.635L879.244,174.364L883.2,173.947L886.739,169.054L892.048,169.887L894.391,167.544L897.566,163.433L896.318,162.078L896.318,159.163L897.776,156.144L900.482,154.687L902.148,153.021L900.899,151.772L901.731,150.939L904.23,149.273L907.04,149.481L907.769,146.358L909.955,144.692L909.955,141.777L913.911,140.528L915.681,141.048L917.035,139.07L916.202,136.571L920.158,135.946L922.552,136.987L924.27,135.269L927.133,133.239L929.215,133.864L930.152,137.3L931.506,139.902L932.547,142.713L934.576,144.742L937.127,141.359L940.042,140.838L942.332,138.548L944.83,137.715L946.704,139.589L949.515,137.923L951.18,134.175L952.846,129.074L951.388,126.888L953.887,123.036L955.136,118.768L955.865,114.5L958.363,113.667L960.445,115.749L963.36,115.541L965.166,112.953Z"
          stroke-width="1" stroke-linejoin="round"
          style="-webkit-tap-highlight-color: rgba(0, 0, 0, 0); stroke-width: 1; stroke-linejoin: round;"></path>
    <path fill="#615dff" stroke="#ffffff"
          d="M848.222,29.284L846.898,28.788L845.741,30L843.205,31.324L841.138,33.391L841.33,36.947L840.448,37.83L840.889,40.696L842.543,43.122L844.252,47.092L846.898,47.643L848.69,45.851L850.041,43.398L848.553,41.799L850.758,38.601L850.372,35.128L850.372,30.993L848.222,29.284"
          stroke-width="1" stroke-linejoin="round"
          style="-webkit-tap-highlight-color: rgba(0, 0, 0, 0); stroke-width: 1; stroke-linejoin: round;"></path>
</svg>