<svg xmlns="http://www.w3.org/2000/svg" version="1.1" width="1500" height="1000" viewBox="130 150 190 300" style="-webkit-tap-highlight-color: rgba(0, 0, 0, 0);">
    <desc style="-webkit-tap-highlight-color: rgba(0, 0, 0, 0);">Russian Map</desc>
    <defs style="-webkit-tap-highlight-color: rgba(0, 0, 0, 0);"></defs>
    <path fill="#615dff" stroke="#ffffff" d="M213.811,250.676L213.206,251.583L214.265,252.945L215.626,251.583L213.811,250.676" stroke-width="1" stroke-linejoin="round" style="-webkit-tap-highlight-color: rgba(0, 0, 0, 0); stroke-width: 1; stroke-linejoin: round;"></path>
    <path fill="#615dff" stroke="#ffffff" d="M451.125,104.12L449.875,104.495L450.875,105.87L450.875,107.12L452.625,107.12L452.625,104.745L451.125,104.12" stroke-width="1" stroke-linejoin="round" style="-webkit-tap-highlight-color: rgba(0, 0, 0, 0); stroke-width: 1; stroke-linejoin: round;"></path>
    <path fill="#615dff" stroke="#ffffff" d="M354.776,252.793L353.112,252.793L351.297,250.071L350.239,250.676L347.063,247.651L344.642,245.08L345.55,242.357L347.97,241.601L348.877,240.089L347.213,238.728L347.365,235.097L346.306,234.795L345.247,232.072L342.979,231.921L341.164,229.35L341.769,226.022L344.188,222.695L347.063,222.997L347.97,224.056L349.028,224.51L349.482,222.543L352.961,221.485L355.684,218.611L353.869,216.645L356.289,215.132L359.011,216.191L359.768,213.922L359.768,211.653L363.246,211.653L364.91,213.317L366.649,211.578L367.027,209.99L370.809,209.233L369.523,207.948L366.271,206.813L366.271,205.604L370.053,204.544L373.985,203.486L375.951,201.52L378.522,201.52L378.522,199.705L382.153,199.553L380.187,197.587L383.363,197.436L384.573,198.646L384.421,195.621L385.934,194.108L384.27,192.142L385.329,190.478L387.144,192.293L389.413,192.293L389.413,190.024L392.74,191.234L394.404,189.419L396.068,187.453L398.186,187.453L401.815,185.79L404.387,186.697L408.168,186.697L410.664,184.201L413.613,184.428L414.974,186.395L418.15,186.395L419.663,187.907L422.386,187.15L426.167,187.15L428.663,184.655L431.612,183.067L435.544,181.554L439.174,181.554L441.292,184.882L441.292,188.512L438.116,191.386L435.242,194.108L431.461,194.411L426.923,196.528L422.839,195.016L420.873,196.982L416.184,196.831L410.134,196.831L407.865,199.251L403.177,199.251L399.698,201.217L400.757,203.637L398.336,204.544L395.463,204.242L392.892,204.242L392.589,205.906L389.867,205.149L389.867,207.872L387.144,209.838L384.875,211.502L384.875,208.931L383.06,210.595L383.514,213.62L381.699,213.62L380.413,212.334L380.413,213.771L380.413,216.04L379.09,214.716L377.389,216.417L375.951,217.855L373.984,217.855L372.472,219.821L370.506,223.148L367.33,223.148L364.758,225.266L364.758,228.14L362.187,229.199L361.279,232.224L359.162,234.341L359.162,238.123L358.103,240.845L359.464,244.777L358.254,248.71L359.918,251.282L360.674,254.004L359.767,254.912L357.196,256.122L357.196,254.155L354.776,252.793" stroke-width="1" stroke-linejoin="round" style="-webkit-tap-highlight-color: rgba(0, 0, 0, 0); stroke-width: 1; stroke-linejoin: round;"></path>
    <path fill="#615dff" stroke="#ffffff" d="M450.75,114.745L449.875,116.12L446.625,116.745L444.5,117.87L446.125,118.62L445.375,120.37L446.75,120.745L449.5,120.745L451.688,118.557L453.313,116.932L452.75,114.495L450.75,114.745" stroke-width="1" stroke-linejoin="round" style="-webkit-tap-highlight-color: rgba(0, 0, 0, 0); stroke-width: 1; stroke-linejoin: round;"></path>
    <path fill="#615dff" stroke="#ffffff" d="M440.375,112.495L439.688,113.182L441,114.495L443.375,113.62L443.375,111.62L442,111.62L440.375,112.495" stroke-width="1" stroke-linejoin="round" style="-webkit-tap-highlight-color: rgba(0, 0, 0, 0); stroke-width: 1; stroke-linejoin: round;"></path>
    <path fill="#615dff" stroke="#ffffff" d="M438.563,116.432L436.75,114.37L435.375,115.745L434.375,117.745L434.375,120.245L436.5,120.62L437,122.12L439.625,121.495L441.313,119.807L442.563,118.557L443.25,116.495L441.375,116.495L438.563,116.432" stroke-width="1" stroke-linejoin="round" style="-webkit-tap-highlight-color: rgba(0, 0, 0, 0); stroke-width: 1; stroke-linejoin: round;"></path>
    <path fill="#615dff" stroke="#ffffff" d="M431.125,125.12L430.313,125.932L430.313,127.495L432,127.495L432.625,125.495L431.125,125.12" stroke-width="1" stroke-linejoin="round" style="-webkit-tap-highlight-color: rgba(0, 0, 0, 0); stroke-width: 1; stroke-linejoin: round;"></path>
    <path fill="#615dff" stroke="#ffffff" d="M427.625,118.745L426.75,117.87L424,117.87L424,119.745L422.5,121.245L423.375,122.12L426.375,121.495L427.5,122.62L430.125,121.995L430.875,120.245L432.75,120.87L431.75,118.62L430.063,116.932L427.625,118.745" stroke-width="1" stroke-linejoin="round" style="-webkit-tap-highlight-color: rgba(0, 0, 0, 0); stroke-width: 1; stroke-linejoin: round;"></path>
    <path fill="#615dff" stroke="#ffffff" d="M441.5,97.87L440.75,99.37L442.063,100.682L443.313,99.432L441.5,97.87" stroke-width="1" stroke-linejoin="round" style="-webkit-tap-highlight-color: rgba(0, 0, 0, 0); stroke-width: 1; stroke-linejoin: round;"></path>
    <path fill="#615dff" stroke="#ffffff" d="M438.75,101.37L436.75,101.37L436.75,103.62L438.875,105.745L438.875,107.495L440.75,106.62L439.625,104.245L438.75,101.37" stroke-width="1" stroke-linejoin="round" style="-webkit-tap-highlight-color: rgba(0, 0, 0, 0); stroke-width: 1; stroke-linejoin: round;"></path>
    <path fill="#615dff" stroke="#ffffff" d="M426.25,107.87L424.5,107.87L424.125,108.245L425.563,109.682L426.25,107.87" stroke-width="1" stroke-linejoin="round" style="-webkit-tap-highlight-color: rgba(0, 0, 0, 0); stroke-width: 1; stroke-linejoin: round;"></path>
    <path fill="#615dff" stroke="#ffffff" d="M427.75,110.745L426.563,111.932L427.75,113.245L429.125,113.12L427.75,110.745" stroke-width="1" stroke-linejoin="round" style="-webkit-tap-highlight-color: rgba(0, 0, 0, 0); stroke-width: 1; stroke-linejoin: round;"></path>
    <path fill="#615dff" stroke="#ffffff" d="M428.875,105.245L428.875,106.87L430.625,106.87L430.25,104.995L428.875,105.245" stroke-width="1" stroke-linejoin="round" style="-webkit-tap-highlight-color: rgba(0, 0, 0, 0); stroke-width: 1; stroke-linejoin: round;"></path>
    <path fill="#615dff" stroke="#ffffff" d="M431.313,109.307L431.313,110.745L432.75,110.745L431.625,109.62L431.313,109.307" stroke-width="1" stroke-linejoin="round" style="-webkit-tap-highlight-color: rgba(0, 0, 0, 0); stroke-width: 1; stroke-linejoin: round;"></path>
    <path fill="#615dff" stroke="#ffffff" d="M432.75,112.62L433.375,113.245L434.5,112.12L432.75,112.62" stroke-width="1" stroke-linejoin="round" style="-webkit-tap-highlight-color: rgba(0, 0, 0, 0); stroke-width: 1; stroke-linejoin: round;"></path>
    <path fill="#615dff" stroke="#ffffff" d="M434.5,105.995L434.5,107.745L436,107.87L436,105.995L434.5,105.995" stroke-width="1" stroke-linejoin="round" style="-webkit-tap-highlight-color: rgba(0, 0, 0, 0); stroke-width: 1; stroke-linejoin: round;"></path>
    <path fill="#615dff" stroke="#ffffff" d="M432.25,102.495L433.125,104.12L433.938,103.307L433.125,102.495L432.25,102.495" stroke-width="1" stroke-linejoin="round" style="-webkit-tap-highlight-color: rgba(0, 0, 0, 0); stroke-width: 1; stroke-linejoin: round;"></path>
    <path fill="#615dff" stroke="#ffffff" d="M416.125,112.995L415.188,113.932L416.813,115.557L418.625,115.62L418.625,112.62L417.375,110.995L416.125,112.995" stroke-width="1" stroke-linejoin="round" style="-webkit-tap-highlight-color: rgba(0, 0, 0, 0); stroke-width: 1; stroke-linejoin: round;"></path>
    <path fill="#615dff" stroke="#ffffff" d="M420.25,110.995L420.875,112.745L422.125,112.745L422.125,111.245L420.25,110.995" stroke-width="1" stroke-linejoin="round" style="-webkit-tap-highlight-color: rgba(0, 0, 0, 0); stroke-width: 1; stroke-linejoin: round;"></path>
    <path fill="#615dff" stroke="#ffffff" d="M413.25,100.995L412,102.245L412,103.62L410.563,105.057L408,103.245L405.875,104.37L405.875,105.87L403.25,103.995L401.25,104.745L401.875,107.745L403.75,107.12L403.75,109.12L405.75,109.62L407.563,107.807L410.125,106.745L412.25,107.37L415.375,107.37L417.625,105.12L415.5,102.995L416.938,101.557L414.5,100.12L413.25,100.995" stroke-width="1" stroke-linejoin="round" style="-webkit-tap-highlight-color: rgba(0, 0, 0, 0); stroke-width: 1; stroke-linejoin: round;"></path>
    <path fill="#615dff" stroke="#ffffff" d="M406.125,97.87L403.375,97.87L401.75,96.245L400.625,98.495L402.063,99.932L402.625,101.62L405.875,100.495L407,101.62L409.125,100.745L410,101.62L410,99.745L408.563,98.307L407.25,98.307L406.125,97.87" stroke-width="1" stroke-linejoin="round" style="-webkit-tap-highlight-color: rgba(0, 0, 0, 0); stroke-width: 1; stroke-linejoin: round;"></path>
    <path fill="#615dff" stroke="#ffffff" d="M408.563,111.057L407.5,111.057L407.875,112.62L410.125,112.745L408.563,111.057" stroke-width="1" stroke-linejoin="round" style="-webkit-tap-highlight-color: rgba(0, 0, 0, 0); stroke-width: 1; stroke-linejoin: round;"></path>
    <path fill="#615dff" stroke="#ffffff" d="M409,114.37L407.875,115.495L408.75,116.37L410.875,116.87L409.5,115.495L409,114.37" stroke-width="1" stroke-linejoin="round" style="-webkit-tap-highlight-color: rgba(0, 0, 0, 0); stroke-width: 1; stroke-linejoin: round;"></path>
    <path fill="#615dff" stroke="#ffffff" d="M418.125,98.245L418.125,99.87L419.375,99.87L420.625,98.62L418.125,98.245" stroke-width="1" stroke-linejoin="round" style="-webkit-tap-highlight-color: rgba(0, 0, 0, 0); stroke-width: 1; stroke-linejoin: round;"></path>
    <path fill="#615dff" stroke="#ffffff" d="M264.5,269.954L261.583,272.87L259.5,275.454L259.5,271.787L261.833,269.454L259,265.12L257.083,263.204L254,263.204L249.5,264.62L245.5,262.454L240.667,264.287L235.5,263.454L235.333,269.287L232.5,271.62L233.667,274.454L232.25,275.87L227.5,274.454L225.667,270.62L222.75,267.704L221.833,262.787L220.833,255.287L218,255.287L215.167,258.287L215.167,261.12L214.833,264.787L217,266.954L216.167,271.12L212,274.12L208.333,270.454L204.917,267.037L204,268.12L202.75,270.037L201,268.87L200.25,269.619L199,267.953L198,269.12L198.167,271.703L197.167,274.036L195.083,275.12L194.25,276.953L193.833,281.12L197.042,284.328L195.75,287.703L193,288.536L193.333,290.786L192.75,293.453L189.458,296.745L188.25,297.036L187,298.453L184.458,303.536L184.833,305.12L183.542,306.411L184.417,311.036L186.333,312.203L186.333,314.286L188.917,315.62L189.583,317.286L190.667,317.953L192.208,319.495L193.917,319.495L195.313,320.89L195.917,322.786L199.25,322.953L201.75,323.62L202.875,324.745L205,325.286L205.833,327.37L207.792,329.328L209.083,330.286L209.083,331.953L210.5,332.453L213.333,332.453L213.333,331.37L214.667,331.786L216.5,331.786L216.5,333.953L217.583,335.12L218.583,335.12L218.583,336.453L220.583,337.453L221.833,338.703L223.583,336.953L224.083,335.453L225.917,336.286L227.167,338.453L225.75,339.87L227.667,340.953L227.667,341.953L229.083,341.953L230.917,342.703L230.084,343.537L231.167,345.12L232.208,346.161L234,344.62L235.25,345.037L236.167,346.537L236.792,347.162L238.417,348.787L237.833,350.62L239.333,351.37L241.417,350.787L241.25,349.62L242.667,350.037L245.333,350.037L245.667,351.37L247.333,351.703L248.75,350.037L250.417,348.787L251.833,346.37L249.958,344.495L251.25,343.203L253.25,341.953L253.5,340.453L256.083,338.87L258.292,336.662L259.75,336.037L261.833,333.953L260.417,332.537L260.25,330.287L258.583,331.12L257.5,330.037L256,330.037L253.833,330.453L252.917,332.62L251.833,332.203L250.333,334.37L248.875,332.912L247.25,332.37L245.583,331.62L245.333,328.703L247.333,327.703L247,325.87L247.792,325.078L248.417,323.453L250.333,322.953L252.667,323.537L253.083,321.953L252.75,319.37L251.542,318.162L252.167,315.62L254.417,314.203L254.417,311.786L255.083,309.453L253.333,307.703L251.583,305.203L251.583,303.203L251.167,300.953L253.25,300.953L255.583,302.703L257.583,303.37L259,304.787L261.833,305.37L264.25,306.786L266.917,309.453L267.417,312.036L269.333,311.036L271.583,310.203L273.333,311.286L275.5,311.786L277.583,313.453L279.083,313.453L280.125,314.495L281.583,313.036L283.083,310.453L281.833,309.203L281.333,306.953L282.417,304.703L281.583,303.12L279.708,301.245L279,299.786L280.458,298.328L281.666,297.12L281.666,295.953L282.792,294.828L283.75,292.286L285.583,290.453L284.208,289.078L281,287.62L280.667,288.62L277.833,289.62L276.25,289.036L274.25,286.703L272.75,285.203L272.083,282.37L269.5,279.786L268,277.87L267.083,274.37L265.833,271.62L264.5,269.954" stroke-width="1" stroke-linejoin="round" style="-webkit-tap-highlight-color: rgba(0, 0, 0, 0); stroke-width: 1; stroke-linejoin: round;"></path>
    <path fill="#615dff" stroke="#ffffff" d="M156.603,330.011L156.603,326.669L157.465,323.867L155.094,323.112L152.399,323.651L148.95,322.035L150.136,320.849L150.567,318.37L148.411,314.92L146.04,314.058L147.792,310.495L149.583,308.703L152.75,309.203L153.75,307.703L155.917,307.12L158.083,304.37L159,302.12L160.5,299.287L164.25,297.203L166.75,293.62L168.583,294.62L171.667,292.953L174.417,292.036L177.167,292.536L179.583,293.62L182.333,293.036L184.5,294.37L184.667,295.87L187,298.453L184.458,303.536L184.833,305.12L183.542,306.411L184.417,311.036L186.333,312.203L186.333,314.286L188.917,315.62L189.583,317.286L190.667,317.953L192.208,319.495L193.917,319.495L195.313,320.89L195.917,322.786L199.25,322.953L201.75,323.62L202.875,324.745L205,325.286L205.833,327.37L207.792,329.328L209.083,330.286L209.083,331.953L210.5,332.453L213.333,332.453L213.333,331.37L214.667,331.786L216.5,331.786L216.5,333.953L217.583,335.12L218.583,335.12L218.583,336.453L220.583,337.453L221.833,338.703L223.583,336.953L224.083,335.453L225.917,336.286L227.167,338.453L225.75,339.87L227.667,340.953L227.667,341.953L229.083,341.953L230.917,342.703L230.084,343.537L232.208,346.161L228.545,349.825L226.279,352.09L223.122,350.687L221.368,352.295L225.022,356.096L222.684,357.265L222.684,360.335L221.587,361.431L217.713,357.996L215.667,361.212L212.012,360.335L210.478,361.87L208.212,358.581L204.85,356.68L202.072,355.365L200.903,352.149L197.613,348.86L193.301,348.056L191.109,343.378L187.747,344.986L184.092,343.378L179.999,344.401L176.345,346.009L172.397,342.062L172.397,338.554L172.397,335.484L169.255,332.342L167.647,333.95L163.481,331.099L161.727,329.345L158.657,329.637L156.603,330.011" stroke-width="1" stroke-linejoin="round" style="-webkit-tap-highlight-color: rgba(0, 0, 0, 0); stroke-width: 1; stroke-linejoin: round;"></path>
    <path fill="#615dff" stroke="#ffffff" d="M21.541,258.137L24.135,258.719L26.358,258.084L27.205,256.443L29.216,256.76L31.096,258.64L31.175,261.208L32.71,261.684L33.028,263.696L35.41,264.119L35.939,262.213L34.643,260.917L35.754,259.805L36.469,260.52L38.745,262.424L38.745,265.284L38.427,267.772L39.75,269.942L41.074,270.841L41.55,274.071L40.386,276.505L34.828,279.311L26.411,269.306L21.541,258.137" stroke-width="1" stroke-linejoin="round" style="-webkit-tap-highlight-color: rgba(0, 0, 0, 0); stroke-width: 1; stroke-linejoin: round;"></path>
    <path fill="#615dff" stroke="#ffffff" d="M144.258,256.787L144.258,261.693L146.059,267.908L152.364,286.102L156.327,287.903L158.669,292.316L160.5,299.287L164.25,297.203L166.75,293.62L168.583,294.62L171.667,292.953L174.417,292.036L177.167,292.536L179.583,293.62L182.333,293.036L184.5,294.37L184.667,295.87L187,298.454L188.25,297.036L189.458,296.745L192.75,293.454L193.333,290.786L193,288.536L195.75,287.704L197.042,284.328L193.833,281.12L194.25,276.954L195.083,275.12L197.167,274.036L198.167,271.704L198,269.12L199,267.954L200.25,269.62L201,268.87L202.75,270.037L204.917,267.037L207.333,262.787L204.833,254.953L207.916,251.87L209.167,245.953L212.417,242.703L216.5,241.453L218.833,236.287L219.5,232.62L217.083,230.203L218.916,228.37L218.833,224.12L216.75,224.286L215,223.245L212.208,223.912L210.417,222.12L211.292,219.661L211.667,216.661L203.667,209.453L197.5,220.953L194.667,219.62L188.833,224.287L186.167,224.453L186.167,230.12L183.167,231.287L183.167,235.62L179.167,238.787L174.5,238.787L173.333,249.787L173.333,254.12L166.333,256.62L144.258,256.787" stroke-width="1" stroke-linejoin="round" style="-webkit-tap-highlight-color: rgba(0, 0, 0, 0); stroke-width: 1; stroke-linejoin: round;"></path>
    <path fill="#615dff" stroke="#ffffff" d="M382.667,301.453L380.75,301.453L377.417,304.287L374.5,304.453L373.167,307.62L368.75,306.87L367.583,308.787L365.667,310.704L363.75,311.787L360,313.12L356.833,313.87L353.083,311.953L351.083,312.37L348.833,310.453L344.417,308.703L339.917,305.787L336.583,304.453L331.167,302.37L328.5,299.703L325.25,299.37L320,295.953L317.375,293.328L313.333,291.536L309.333,288.12L305.667,288.536L302.917,290.37L285.583,290.453L283.75,292.286L282.792,294.828L281.666,295.953L281.666,297.12L280.458,298.328L279,299.786L279.708,301.245L281.583,303.12L282.417,304.703L281.333,306.953L281.833,309.203L283.083,310.453L281.583,313.036L280.125,314.495L279.083,313.453L277.583,313.453L275.5,311.786L273.333,311.286L271.583,310.203L269.333,311.036L267.417,312.036L266.917,309.453L264.25,306.786L261.833,305.37L259,304.787L257.583,303.37L255.583,302.703L253.25,300.953L251.167,300.953L251.583,303.203L251.583,305.203L253.333,307.703L255.083,309.453L254.417,311.786L254.417,314.203L252.167,315.62L251.542,318.162L252.75,319.37L253.083,321.953L252.667,323.537L250.333,322.953L248.417,323.453L247.792,325.078L247,325.87L247.333,327.703L245.333,328.703L245.583,331.62L247.25,332.37L248.875,332.912L250.333,334.37L251.833,332.203L252.917,332.62L253.833,330.453L256,330.037L257.5,330.037L258.583,331.12L260.25,330.287L260.417,332.537L261.833,333.953L259.75,336.037L258.292,336.662L256.083,338.87L253.5,340.453L253.25,341.953L251.25,343.203L249.958,344.495L251.833,346.37L250.417,348.787L248.75,350.037L247.333,351.703L245.667,351.37L245.333,350.037L242.667,350.037L241.25,349.62L241.417,350.787L239.333,351.37L239.642,353.903L237.595,355.95L237.595,359.312L234.379,360.042L234.379,362.235L232.187,364.428L232.187,366.913L233.94,368.667L233.94,371.152L234.671,373.784L233.648,376.123L234.817,377.292L236.718,374.953L237.887,371.591L240.811,370.86L243.881,372.322L245.781,374.222L248.412,371.737L249.801,373.125L250.605,374.953L253.09,374.661L254.625,373.125L257.329,373.125L259.875,372.12L259.875,370.12L258.188,368.432L259.75,365.37L263.125,367.245L264.313,366.057L265.5,367.245L267.125,365.62L269.25,366.37L270.125,367.745L269.75,369.87L271.5,371.995L273.625,371.245L277.25,372.87L279.625,375.245L282.25,373.87L285.25,374.995L286.938,373.307L288.625,373.87L289.813,375.057L291.5,374.495L292.5,372.37L294.25,372.37L298.125,374.995L301.875,376.995L306.125,378.62L311.875,379.495L312.75,377.12L314.313,375.557L314.875,372.62L319,368.495L319,366.245L320.375,363.62L319.75,360.745L322,356.495L325.375,354.37L325.75,351.37L329.75,348.87L329.125,345.245L330.625,342.37L334.063,338.932L336.625,336.37L338.75,337.12L338.75,339.745L341.625,339.37L344.75,336.245L347.875,334.62L349.625,332.62L352.833,332.12L357.167,332.287L357.167,328.62L362.5,325.62L367.833,324.453L373.5,324.453L374.667,320.786L377.833,320.786L380.833,317.786L384.833,315.786L382.25,313.203L385.333,311.953L385.333,309.786L382,308.12L382.5,305.037L383.833,304.37L384.583,302.537L382.667,301.453" stroke-width="1" stroke-linejoin="round" style="-webkit-tap-highlight-color: rgba(0, 0, 0, 0); stroke-width: 1; stroke-linejoin: round;"></path>
    <path fill="#615dff" stroke="#ffffff" d="M129,256.787L144.258,256.787L144.258,261.693L146.059,267.908L152.364,286.102L156.327,287.903L158.669,292.316L160.5,299.287L158.083,304.37L155.917,307.12L153.75,307.357L152.75,309.203L149.583,308.703L147.792,310.495L146.5,305.537L145.167,304.203L143.25,303.537L144.25,301.453L144.25,299.453L142.167,298.537L141.917,296.537L139.5,296.37L138.083,297.787L136.25,295.537L136.833,291.203L135.333,290.87L133.625,289.162L132,290.537L130.333,290.953L127.75,289.87L125.083,289.62L121.25,289.62L120.083,287.287L118.667,287.953L117.459,289.162L115.25,288.953L114.583,285.703L115.5,282.703L114.417,280.287L114.25,277.87L112.125,275.745L113.167,273.453L111.167,271.12L114.5,269.12L119,270.12L119.667,267.62L121.167,266.12L124,267.453L126.333,269.953L130,271.12L131.333,274.12L130.75,274.703L130.75,275.62L130,278.62L131.167,278.37L132.667,279.453L133.333,278.953L134,278.953L135.5,278.286L135.5,276.953L136.25,276.036L136.25,274.786L135.833,274.203L134.667,275.454L134.333,270.62L131.333,267.953L131.333,262.287L134,261.62L134.833,260.787L131.167,259.287L129,256.787" stroke-width="1" stroke-linejoin="round" style="-webkit-tap-highlight-color: rgba(0, 0, 0, 0); stroke-width: 1; stroke-linejoin: round;"></path>
    <path fill="#615dff" stroke="#ffffff" d="M203.67,209.45L211.67,216.66L211.29,219.66L210.42,222.12L212.20999999999998,223.91L214.99999999999997,223.25L216.74999999999997,224.25L218.82999999999998,224.08H218.82999999999998L218.17,220.41000000000003L219.75,218.83L220.83,215.91000000000003L223.17000000000002,218.25000000000003L221.25000000000003,220.16000000000003L220.5,224L222.83,225L224,231.17L226.17,234.83999999999997L227.32999999999998,238.17L228.82999999999998,241.67L231.99999999999997,244.83999999999997V249.33999999999997L235.07999999999998,252.42L239.99999999999997,255.17L244.49999999999997,256.84L249.65999999999997,255.83999999999997H254.32999999999996L258.74999999999994,251.42L261.65999999999997,246.33999999999997L262.33,240.33999999999997L262.5,236.67L259.58,233.75L259.5,228.67L258.5,226.33999999999997L259.33,222.17V217.33999999999997L258,212.62L255.25,209.87V206L252.83,204.84V201.34L250.66000000000003,199.17000000000002L247.83,197.67000000000002V194.50000000000003L247,191.33000000000004L248.75,189.58000000000004L250.67,191.50000000000003L252.5,192.67000000000002L251.67,189.67000000000002V187L247.67,186.83L244.82999999999998,187.17000000000002L245.52999999999997,183.67000000000002L242.66999999999996,185.67000000000002L240.32999999999996,183.33H237.5L232.67,181.5L225.67,185L220.32999999999998,187.67V196.67L217.67,201.33999999999997H209.17L204.07999999999998,206.42L203.67,209.5H203.67" stroke-width="1" stroke-linejoin="round" style="-webkit-tap-highlight-color: rgba(0, 0, 0, 0); stroke-width: 1; stroke-linejoin: round;"></path>
    <path fill="#615dff" stroke="#ffffff" d="M386.943,289.037L385.584,291.037L383.959,292.662L382.959,293.662L384.584,295.204L384.917,296.454L386.167,296.871L386.167,299.454L386.167,302.537L384.584,302.537L382.667,301.454L380.75,301.454L377.417,304.287L374.5,304.454L373.167,307.621L368.75,306.871L367.583,308.788L365.666,310.705L363.749,311.788L360,313.12L356.833,313.87L353.083,311.953L351.083,312.37L348.833,310.453L344.416,308.703L339.916,305.786L336.583,304.453L331.166,302.37L328.499,299.703L325.249,299.37L319.999,295.953L317.374,293.328L313.332,291.536L309.332,288.119L305.665,288.536L302.915,290.369L285.582,290.452L284.207,289.077L281,287.62L280.667,288.62L277.834,289.62L276.251,289.037C276.251,289.037,274.584,287.037,274.251,286.704C273.918,286.371,272.751,285.204,272.751,285.204L272.084,282.371L269.501,279.788L268.001,277.871L267.084,274.371L265.834,271.621L264.5,269.955L268.5,269.121L271.833,264.287L271.833,260.121L273.166,257.287L277.499,255.121L277.499,252.455L281.666,249.955L281.666,245.788L280.999,241.788L283.832,241.788L284.749,243.871L288.499,247.621L291.332,251.955L291.332,257.787L290.332,260.788L288.832,262.287L286.332,259.787L282.832,258.955L277.499,260.787L277.499,265.121L278.832,269.121L278.832,272.455L282.665,273.455L286.332,275.121L290.499,273.121L290.499,270.121L294.832,269.121L298.999,271.121L298.332,268.455L304.832,269.621L308.332,268.955L314.665,269.787L318.332,269.787L320.165,273.121L321.832,273.121L321.832,270.121L327.165,268.455L330,268.455L331.167,272.787L328,272.787L327,275.787L324.5,276.621L328.333,280.121L331,280.121L336,277.955L340.75,278.871L345.917,284.038L347.667,282.288L351.167,282.288L355.584,280.871L357.334,282.621L356.834,284.955L354.167,286.788L354.167,289.621L357.334,292.288L357.584,289.205L359.001,287.788L362.334,288.621L362.334,285.955L365.501,285.455L366.168,281.455L365.668,276.621L368.668,275.121L371.251,274.371L374.334,277.455L375.667,276.121L379.084,280.371L383.001,284.288L386.168,287.455L386.943,289.037Z" stroke-width="1" stroke-linejoin="round" style="-webkit-tap-highlight-color: rgba(0, 0, 0, 0); stroke-width: 1; stroke-linejoin: round;"></path>
    <path fill="#615dff" stroke="#ffffff" d="M365.365,261.717L362.945,262.927L361.13,263.532L361.584,267.465L361.886,269.583L363.55,270.036L364.155,273.212L367.332,273.515L368.39,270.944L366.877,268.373L367.029,265.499L365.365,261.717" stroke-width="1" stroke-linejoin="round" style="-webkit-tap-highlight-color: rgba(0, 0, 0, 0); stroke-width: 1; stroke-linejoin: round;"></path>
    <path fill="#615dff" stroke="#ffffff" d="M311.822,248.559L308.495,249.466L306.528,252.038L305.016,254.004L306.074,256.877L308.495,257.786L310.763,258.692L312.881,257.18L315.452,257.633L316.813,254.458L314.696,251.735L314.544,249.466L311.822,248.559" stroke-width="1" stroke-linejoin="round" style="-webkit-tap-highlight-color: rgba(0, 0, 0, 0); stroke-width: 1; stroke-linejoin: round;"></path>
    <path fill="#615dff" stroke="#ffffff" d="M148.95,322.035L150.136,320.849L150.567,318.37L148.411,314.92L146.04,314.058L146.687,312.549L147.792,310.495L146.917,308.037L146.5,305.537L145.167,304.203L143.25,303.537L144.25,301.453L144.25,299.453L142.167,298.537L141.917,296.537L139.5,296.37L138.083,297.787L136.25,295.537L136.833,291.203L135.333,290.87L133.625,289.162L132,290.537L130.333,290.953L127.75,289.87L125.083,289.62L121.25,289.62L120.083,287.287L118.667,287.953L117.459,289.162L115.25,288.953L112.5,289.203L111.25,290.453L111.25,292.62L110.042,293.828L110.583,295.203L112.333,296.453L111.583,298.87L109.333,299.87L107.667,301.537L106.25,302.287L106.25,304.62L104.75,305.37L103.417,306.703L104.833,308.12L105.834,310.286L107.344,311.795L110.254,311.795L111.709,313.25L114.242,313.088L116.183,314.274L119.739,314.274L121.625,316.16L123.943,316.43L125.345,315.029L128.147,315.029L129.926,313.25L132.135,313.25L133.968,314.166L135.315,315.513L135.908,317.938L138.279,317.938L139.896,319.879L142.052,319.879L142.483,318.478L143.884,319.878L146.147,320.957L148.95,322.035" stroke-width="1" stroke-linejoin="round" style="-webkit-tap-highlight-color: rgba(0, 0, 0, 0); stroke-width: 1; stroke-linejoin: round;"></path>
    <path fill="#615dff" stroke="#ffffff" d="M92.667,321.203L94.917,323.953L95.917,321.12L98.25,321.12L99.25,319.37L100.167,317.37L100.5,313.87L102,312.37L102.25,310.287L104.833,308.12L103.417,306.703L104.75,305.37L106.25,304.62L106.25,302.287L107.667,301.537L109.333,299.87L111.583,298.87L112.333,296.453L110.583,295.203L110.042,293.828L111.25,292.62L111.25,290.453L112.5,289.203L115.25,288.953L114.583,285.703L115.5,282.703L114.417,280.287L114.25,277.87L112.125,275.745L113.167,273.453L111.167,271.12L107.333,270.954L104.5,274.787L101,276.12L100.833,278.62L99,280.787L94.833,280.954L93.167,282.954L93.167,286.454L89.167,288.954L86.5,289.62L87.333,292.62L85.5,295.954L82.333,299.12L81.833,301.454L83.333,304.786L85.667,307.12L84.833,309.786L83.833,312.286L87,313.12L89.833,315.786L89.833,321.454L92.667,321.203" stroke-width="1" stroke-linejoin="round" style="-webkit-tap-highlight-color: rgba(0, 0, 0, 0); stroke-width: 1; stroke-linejoin: round;"></path>
    <path fill="#615dff" stroke="#ffffff" d="M130.6387176513672,274.7748107910156C130.6387176513672,274.8733215332031,130.60986328125,274.9021911621094,130.5402069091797,274.97186279296875C130.47055053710938,275.0415344238281,130.5402069091797,275.16888427734375,130.5402069091797,275.2674255371094C130.5402069091797,275.3659362792969,130.44168090820312,275.4644470214844,130.44168090820312,275.56298828125C130.44168090820312,275.6614990234375,130.44168090820312,275.760009765625,130.44168090820312,275.8585510253906C130.44168090820312,275.9570617675781,130.41282653808594,275.98590087890625,130.34315490722656,276.0555725097656C130.2734832763672,276.125244140625,130.31430053710938,276.1829528808594,130.24464416503906,276.25262451171875C130.17498779296875,276.3222961425781,130.21578979492188,276.478515625,130.1461181640625,276.5481872558594C130.0764617919922,276.61785888671875,130.1172637939453,276.6755676269531,130.04759216308594,276.7452392578125C129.97793579101562,276.8149108886719,130.04759216308594,276.9422607421875,130.04759216308594,277.0408020019531C130.04759216308594,277.1393127441406,130.01873779296875,277.16815185546875,129.94908142089844,277.2378234863281C129.87940979003906,277.3074951171875,129.85055541992188,277.43487548828125,129.85055541992188,277.53338623046875C129.85055541992188,277.6319274902344,129.85055541992188,277.7304382324219,129.85055541992188,277.8289489746094C129.85055541992188,277.927490234375,129.85055541992188,278.0260009765625,129.85055541992188,278.12451171875C129.85055541992188,278.2230529785156,129.94908142089844,278.2230529785156,129.94908142089844,278.3215637207031C129.94908142089844,278.4200744628906,129.94908142089844,278.51861572265625,129.94908142089844,278.61712646484375C129.94908142089844,278.71563720703125,129.94908142089844,278.8141784667969,130.04759216308594,278.8141784667969C130.1461181640625,278.8141784667969,130.24464416503906,278.8141784667969,130.34315490722656,278.8141784667969C130.44168090820312,278.8141784667969,130.44918823242188,278.7533264160156,130.5402069091797,278.71563720703125C130.66891479492188,278.6623229980469,130.73724365234375,278.61712646484375,130.8357696533203,278.61712646484375C130.9342803955078,278.61712646484375,130.9342803955078,278.51861572265625,131.03280639648438,278.51861572265625C131.13133239746094,278.51861572265625,131.25869750976562,278.4489440917969,131.328369140625,278.51861572265625C131.3980255126953,278.5882873535156,131.45574951171875,278.5474548339844,131.52540588378906,278.61712646484375C131.59506225585938,278.6867980957031,131.55426025390625,278.7445068359375,131.62393188476562,278.8141784667969C131.69358825683594,278.88385009765625,131.7224578857422,278.9126892089844,131.7224578857422,279.0111999511719C131.7224578857422,279.1097412109375,131.75131225585938,279.1385803222656,131.8209686279297,279.208251953125C131.89064025878906,279.2779235839844,131.9483642578125,279.2370910644531,132.0180206298828,279.3067626953125C132.08767700195312,279.3764343261719,132.24391174316406,279.2370910644531,132.31358337402344,279.3067626953125C132.3832550048828,279.3764343261719,132.41209411621094,279.4053039550781,132.5106201171875,279.4053039550781C132.60914611816406,279.4053039550781,132.63800048828125,279.43414306640625,132.70765686035156,279.5038146972656C132.77732849121094,279.573486328125,132.80618286132812,279.6023254394531,132.9047088623047,279.6023254394531C133.0032196044922,279.6023254394531,133.10174560546875,279.6023254394531,133.2002716064453,279.6023254394531C133.2987823486328,279.6023254394531,133.42616271972656,279.6719970703125,133.49583435058594,279.6023254394531C133.56549072265625,279.53265380859375,133.59434509277344,279.5038146972656,133.69287109375,279.5038146972656C133.79139709472656,279.5038146972656,133.8974151611328,279.4430236816406,133.98843383789062,279.4053039550781C134.11717224121094,279.3519592285156,134.1552734375,279.2615661621094,134.28399658203125,279.208251953125C134.37503051757812,279.1705627441406,134.411376953125,279.1794128417969,134.4810333251953,279.1097412109375C134.5507049560547,279.0400695800781,134.67808532714844,279.1097412109375,134.77659606933594,279.1097412109375C134.8751220703125,279.1097412109375,134.9039764404297,279.08087158203125,134.97364807128906,279.0111999511719C135.04330444335938,278.9415283203125,135.1010284423828,278.98236083984375,135.17068481445312,278.9126892089844C135.2403564453125,278.843017578125,135.3375244140625,278.86749267578125,135.46624755859375,278.8141784667969C135.55728149414062,278.7764892578125,135.60997009277344,278.745849609375,135.6632843017578,278.61712646484375C135.70098876953125,278.526123046875,135.6632843017578,278.4200744628906,135.6632843017578,278.3215637207031C135.6632843017578,278.2230529785156,135.6632843017578,278.12451171875,135.6632843017578,278.0260009765625C135.6632843017578,277.927490234375,135.62557983398438,277.8214416503906,135.6632843017578,277.7304382324219C135.71661376953125,277.6017150878906,135.79066467285156,277.6030578613281,135.86033630371094,277.53338623046875C135.92999267578125,277.4637145996094,136.00404357910156,277.465087890625,136.057373046875,277.33636474609375C136.0950927734375,277.2453308105469,136.18475341796875,277.3074951171875,136.25440979003906,277.2378234863281C136.32406616210938,277.16815185546875,136.39813232421875,277.1695251464844,136.4514617919922,277.0408020019531C136.4891815185547,276.94976806640625,136.5499725341797,276.9422607421875,136.5499725341797,276.84375C136.5499725341797,276.7452392578125,136.5499725341797,276.6466979980469,136.5499725341797,276.5481872558594C136.5499725341797,276.4496765136719,136.5499725341797,276.35113525390625,136.5499725341797,276.25262451171875C136.5499725341797,276.15411376953125,136.5499725341797,276.0555725097656,136.5499725341797,275.8585510253906C136.5499725341797,275.760009765625,136.57882690429688,275.7311706542969,136.64849853515625,275.6614990234375C136.71815490722656,275.5918273925781,136.64849853515625,275.4644470214844,136.64849853515625,275.3659362792969C136.64849853515625,275.2674255371094,136.64849853515625,275.16888427734375,136.64849853515625,275.07037353515625C136.64849853515625,274.97186279296875,136.5499725341797,274.97186279296875,136.5499725341797,274.8733215332031C136.5499725341797,274.7748107910156,136.5211181640625,274.7459716796875,136.4514617919922,274.6763000488281C136.3817901611328,274.60662841796875,136.3077392578125,274.60797119140625,136.25440979003906,274.479248046875C136.21670532226562,274.38824462890625,136.22557067871094,274.35186767578125,136.15589904785156,274.2821960449219C136.0862274169922,274.2125244140625,135.98904418945312,274.23699951171875,135.86033630371094,274.1836853027344C135.76931762695312,274.14599609375,135.6632843017578,274.1836853027344,135.5647735595703,274.1836853027344C135.46624755859375,274.1836853027344,135.3677215576172,274.1836853027344,135.2692108154297,274.1836853027344C135.17068481445312,274.1836853027344,135.07215881347656,274.1836853027344,134.97364807128906,274.1836853027344C134.8751220703125,274.1836853027344,134.8751220703125,274.2821960449219,134.77659606933594,274.2821960449219C134.67808532714844,274.2821960449219,134.57955932617188,274.2821960449219,134.4810333251953,274.2821960449219C134.3825225830078,274.2821960449219,134.25514221191406,274.2125244140625,134.1854705810547,274.2821960449219C134.1157989501953,274.35186767578125,134.0869598388672,274.3807373046875,133.98843383789062,274.3807373046875C133.88990783691406,274.3807373046875,133.78390502929688,274.3430480957031,133.69287109375,274.3807373046875C133.56414794921875,274.4340515136719,133.49583435058594,274.479248046875,133.39730834960938,274.479248046875C133.2987823486328,274.479248046875,133.2002716064453,274.3807373046875,133.10174560546875,274.3807373046875C133.0032196044922,274.3807373046875,132.80618286132812,274.3807373046875,132.70765686035156,274.3807373046875C132.60914611816406,274.3807373046875,132.5106201171875,274.3807373046875,132.41209411621094,274.3807373046875C132.31358337402344,274.3807373046875,132.21505737304688,274.3807373046875,132.1165313720703,274.3807373046875C132.0180206298828,274.3807373046875,131.89064025878906,274.3110656738281,131.8209686279297,274.3807373046875C131.75131225585938,274.4504089355469,131.7224578857422,274.479248046875,131.52540588378906,274.479248046875C131.42689514160156,274.479248046875,131.42689514160156,274.5777587890625,131.328369140625,274.5777587890625C131.22984313964844,274.5777587890625,131.22984313964844,274.6763000488281,131.13133239746094,274.6763000488281L131.03280639648438,274.6763000488281L131.03280639648438,274.7748107910156L131.13133239746094,274.7748107910156" stroke-width="1" stroke-linejoin="round" style="-webkit-tap-highlight-color: rgba(0, 0, 0, 0); stroke-width: 1; stroke-linejoin: round;"></path>
    <path fill="#615dff" stroke="#ffffff" d="M21.541,258.137L24.135,258.719L26.358,258.084L27.205,256.443L29.216,256.76L31.096,258.64L31.175,261.208L32.71,261.684L33.028,263.696L35.41,264.119L35.939,262.213L34.643,260.917L35.754,259.805L36.469,260.52L38.745,262.424L38.745,265.284L38.427,267.772L39.75,269.942L41.074,270.841L41.55,274.071L40.386,276.505L34.828,279.311L26.411,269.306L21.541,258.137" stroke-width="1" stroke-linejoin="round" style="-webkit-tap-highlight-color: rgba(0, 0, 0, 0); stroke-width: 1; stroke-linejoin: round;"></path>
</svg>