<svg xmlns="http://www.w3.org/2000/svg" version="1.1" width="1500" height="1000" viewBox="150 120 720 500"
     style="-webkit-tap-highlight-color: rgba(0, 0, 0, 0);">
    <desc style="-webkit-tap-highlight-color: rgba(0, 0, 0, 0);">Russian Map</desc>
    <defs style="-webkit-tap-highlight-color: rgba(0, 0, 0, 0);"></defs>
    <path fill="#615dff" stroke="#ffffff"
          d="M514.5,596.453L510.584,597.369L507.833,600.119L502.833,599.953L498.667,602.285L496.5,604.453L491.667,603.619L490.167,601.119L488.333,597.785L487.417,594.369L484.833,596.953L480.5,598.619L476.5,597.285L472,596.119L472,592.119L468.5,589.953L467.167,586.953L464.333,585.119L463.667,581.119L466.938,580.869L466.938,577.932L465.5,576.494L463.25,574.244L464.875,572.619L468.375,571.494L472.75,569.869L475.625,569.869L479.625,565.744L479.625,563.244L481.625,561.244L484.75,563.244L486.375,561.119L488.125,561.119L489.438,559.182L487.625,557.369L489.125,554.744L491.75,553.494L495,556.369L498.25,556.369L501.125,557.869L502.75,557.869L502.875,560.869L500.813,562.932L498.375,565.369L499.125,568.619L497.5,570.244L500.938,573.682L503.625,573.682L505.25,570.369L507,570.369L507.5,574.244L508.625,577.869L512.438,581.682L515.5,584.619L514.75,586.994L512,587.619L510.75,588.869L513.25,591.369L513.25,594.119L514.5,596.453"
          stroke-width="1" stroke-linejoin="round"
          style="-webkit-tap-highlight-color: rgba(0, 0, 0, 0); stroke-width: 1; stroke-linejoin: round;"></path>
    <path fill="#615dff" stroke="#ffffff"
          d="M463.667,581.119L461.333,578.953L458.208,577.578L456.167,575.537L451.917,575.537L449.833,577.619L445.667,578.287L444,576.619L440.334,577.285L438.333,575.285L436.5,573.453L436.5,570.953L434.667,568.787L432,569.619L430.167,573.453L426.5,574.119L424.333,569.787L423.167,565.953L422.333,561.619L419.5,556.619L419.5,552.619L416.833,550.119L416.833,544.619L414.833,537.953L412,535.119L414.023,534.156L415.75,532.244L417.625,534.119L423.375,531.869L428.875,531.869L433.75,528.244L438.625,526.619L442.063,526.432L446.625,530.994L446.625,533.369L448.125,535.619L450,535.619L452.25,538.869L454.5,537.869L455.938,534.057L459.125,530.869L461.125,532.869L463.375,530.619L465.625,531.869L467.875,530.119L471.125,530.119L476.625,526.994L478.625,530.869L481.625,530.869L483.75,534.994L485.625,536.869L486.25,539.994L488.875,541.619L491.375,541.619L491.5,543.869L489,544.994L490.75,548.119L490.75,550.744L491.75,553.494L489.125,554.744L487.625,557.369L489.438,559.182L488.125,561.119L486.375,561.119L484.75,563.244L481.625,561.244L479.625,563.244L479.625,565.744L477.75,567.619L475.625,569.869L472.75,569.869L468.375,571.494L464.875,572.619L463.25,574.244L465.5,576.494L466.938,577.932L466.938,580.869L463.667,581.119"
          stroke-width="1" stroke-linejoin="round"
          style="-webkit-tap-highlight-color: rgba(0, 0, 0, 0); stroke-width: 1; stroke-linejoin: round;"></path>
    <path fill="#615dff" stroke="#ffffff"
          d="M727.258,423.576L725.904,419.829L723.822,419.621L723.822,417.226L721.584,414.78L719.762,412.958L717.106,412.958L717.106,415.508L714.765,417.85L711.122,417.33L711.122,414.936L709.561,413.583L709.561,410.564L706.333,410.147L702.586,408.377L699.046,408.794L695.507,408.274L693.529,410.667L692.54,413.947L690.198,416.289L691.135,419.516L689.886,423.264L686.763,426.387L686.763,432.217L682.391,435.234L682.391,438.67L680.518,436.068L680.518,433.152L678.331,430.967L676.249,431.904L675.729,434.609L670.211,436.691L667.609,436.691L666.568,439.814L664.902,442.313L661.311,442.572L657.304,438.566L656.887,430.238L657.407,425.242L657.407,420.557L658.032,416.393L658.032,412.333L655.117,411.084L653.035,410.355L652.723,408.377L651.76,406.114L649.86,404.213L649.86,401.975L651.161,400.674L651.525,397.603L649.704,395.782L647.31,395.782L644.707,394.533L644.707,392.138L645.748,391.097L644.603,389.952L643.666,386.309L641.584,382.561L639.086,380.792L636.275,381.625L633.568,381.833L633.568,378.606L635.807,377.981L635.807,375.846L633.465,373.504L632.584,375.37L631.167,376.786L629.209,376.328L627.001,378.536L624.751,379.37L623.417,382.37L623.417,385.454L624.584,388.703L623.625,391.453L623.625,393.829L626.542,396.745L628.334,398.537L627.501,400.953L626.334,402.953L628.459,405.078L626.417,407.12L624.917,408.203L624.917,412.62L623.167,413.703L622.501,416.703L619.584,417.87L620.334,421.87L619.084,423.119L618.584,426.785L619.334,430.119L621.001,430.869L623.792,433.66L624.917,432.535L627.584,433.535L627.584,436.453L628.501,438.953L626.667,438.703L625.417,440.953L624.417,442.869L625.001,444.453L627.667,444.453L628.917,447.119L629.834,449.535L628.334,451.035L626.751,453.535L626.751,455.703L625.917,457.578L623.459,457.578L621.417,455.535L618.584,455.535L617.501,453.619L614.917,452.453L614.334,450.703L612.167,450.203L609.251,452.037L608.509,455.336L610.026,458.75L607.75,462.07L604.145,465.676L601.678,469.188L600.824,472.791L599.543,475.875L601.867,478.199L599.591,479.813L596.365,477.631L594.751,473.834L592.001,471.084L589.439,472.412L588.301,476.018L584.127,477.535L580.807,476.967L577.296,477.82L577.226,482.777L575.257,484.746L575.257,489.441L577.581,491.766L579.193,495.561L579.193,497.742L576.632,499.07L575.398,502.105L573.027,502.105L572.363,505.236L571.225,507.893L573.027,510.549L573.122,513.207L571.794,514.154L571.794,518.045L572.458,520.227L571.319,522.314L571.698,524.971L566.86,525.256L566.86,527.342L564.773,526.963L564.015,529.049L567.145,531.041L571.889,535.785L574.125,537.119L577.125,537.119L579.625,538.994L583.375,539.494L586.5,542.494L588.625,543.494L592.25,543.494L593.75,541.994L596.875,545.119L603.938,538.057L606.6,539.844L605.75,541.744L608.875,543.244L610.75,544.994L614.875,546.244L616.75,548.119L618.875,549.244L621.25,551.619L626.625,550.494L631.125,554.744L633.75,554.744L633.75,557.119L635.625,560.119L640.375,560.119L641.25,563.119L645,560.994L647.75,560.994L647.75,556.119L651.625,552.244L656.125,546.869L658.375,541.119L664.313,535.182L671,527.119L672,515.244L674.375,507.369L670.75,506.244L667.25,489.869L668.5,487.494L670.25,485.744L667.375,483.744L664.625,482.869L663.625,478.369L668.875,474.494L671.5,474.494L671.5,471.119L674,469.994L677.625,471.244L681.375,469.869L681.375,466.619L684,464.744L685.375,466.244L689.625,466.244L692.125,464.494L693.688,466.057L698.875,467.119L701,464.994L703.25,466.244L706.563,462.932L709.125,462.932L709.125,456.369L712.125,454.869L714,450.994L717.125,451.744L718.625,453.244L715,456.619L718,456.869L720.5,455.494L724.25,456.494L725.75,453.619L728.375,451.994L729,448.744L727.813,447.557L727.813,445.494L725.125,446.619L720.313,441.807L721.625,438.369L720.125,436.869L721.375,433.994L720.188,432.807L723.063,429.932L725.75,430.119L727.313,431.682L729.375,431.682L731.422,430.135L731.994,428.313L727.258,423.576"
          stroke-width="1" stroke-linejoin="round"
          style="-webkit-tap-highlight-color: rgba(0, 0, 0, 0); stroke-width: 1; stroke-linejoin: round;"></path>
    <path fill="#615dff" stroke="#ffffff"
          d="M727.258,423.576L725.904,419.829L723.822,419.621L723.822,417.226L721.584,414.78L719.762,412.958L717.106,412.958L717.106,415.508L714.765,417.85L711.122,417.33L711.122,414.936L709.561,413.583L709.561,410.564L706.333,410.147L702.586,408.377L699.046,408.794L695.507,408.274L693.529,410.667L692.54,413.947L690.198,416.289L691.135,419.516L689.886,423.264L686.763,426.387L686.763,432.217L682.391,435.234L682.391,438.67L680.518,436.068L680.518,433.152L678.331,430.967L676.249,431.904L675.729,434.609L670.211,436.691L667.609,436.691L666.568,439.814L664.902,442.313L661.311,442.572L657.304,438.566L656.887,430.238L657.407,425.242L657.407,420.557L658.032,416.393L658.032,412.333L655.117,411.084L653.035,410.355L652.723,408.377L651.76,406.114L649.86,404.213L649.86,401.975L651.161,400.674L651.525,397.603L649.704,395.782L647.31,395.782L644.707,394.533L644.707,392.138L645.748,391.097L644.603,389.952L643.666,386.309L641.584,382.561L639.086,380.792L636.275,381.625L633.568,381.833L633.568,378.606L635.807,377.981L635.807,375.846L633.465,373.504L632.584,375.37L631.167,376.786L629.209,376.328L627.001,378.536L624.751,379.37L623.417,382.37L623.417,385.454L624.584,388.703L623.625,391.453L623.625,393.829L626.542,396.745L628.334,398.537L627.501,400.953L626.334,402.953L628.459,405.078L626.417,407.12L624.917,408.203L624.917,412.62L623.167,413.703L622.501,416.703L619.584,417.87L620.334,421.87L619.084,423.119L618.584,426.785L619.334,430.119L621.001,430.869L623.792,433.66L624.917,432.535L627.584,433.535L627.584,436.453L628.501,438.953L626.667,438.703L625.417,440.953L624.417,442.869L625.001,444.453L627.667,444.453L628.917,447.119L629.834,449.535L628.334,451.035L626.751,453.535L626.751,455.703L625.917,457.578L623.459,457.578L621.417,455.535L618.584,455.535L617.501,453.619L614.917,452.453L614.334,450.703L612.167,450.203L609.251,452.037L608.509,455.336L610.026,458.75L607.75,462.07L604.145,465.676L601.678,469.188L600.824,472.791L599.543,475.875L601.867,478.199L599.591,479.813L596.365,477.631L594.751,473.834L592.001,471.084L589.439,472.412L588.301,476.018L584.127,477.535L580.807,476.967L577.296,477.82L577.226,482.777L575.257,484.746L575.257,489.441L577.581,491.766L579.193,495.561L579.193,497.742L576.632,499.07L575.398,502.105L573.027,502.105L572.363,505.236L571.225,507.893L573.027,510.549L573.122,513.207L571.794,514.154L571.794,518.045L572.458,520.227L571.319,522.314L571.698,524.971L566.86,525.256L566.86,527.342L564.773,526.963L564.015,529.049L567.145,531.041L571.889,535.785L574.125,537.119L577.125,537.119L579.625,538.994L583.375,539.494L586.5,542.494L588.625,543.494L592.25,543.494L593.75,541.994L596.875,545.119L603.938,538.057L606.6,539.844L605.75,541.744L608.875,543.244L610.75,544.994L614.875,546.244L616.75,548.119L618.875,549.244L621.25,551.619L626.625,550.494L631.125,554.744L633.75,554.744L633.75,557.119L635.625,560.119L640.375,560.119L641.25,563.119L645,560.994L647.75,560.994L647.75,556.119L651.625,552.244L656.125,546.869L658.375,541.119L664.313,535.182L671,527.119L672,515.244L674.375,507.369L670.75,506.244L667.25,489.869L668.5,487.494L670.25,485.744L667.375,483.744L664.625,482.869L663.625,478.369L668.875,474.494L671.5,474.494L671.5,471.119L674,469.994L677.625,471.244L681.375,469.869L681.375,466.619L684,464.744L685.375,466.244L689.625,466.244L692.125,464.494L693.688,466.057L698.875,467.119L701,464.994L703.25,466.244L706.563,462.932L709.125,462.932L709.125,456.369L712.125,454.869L714,450.994L717.125,451.744L718.625,453.244L715,456.619L718,456.869L720.5,455.494L724.25,456.494L725.75,453.619L728.375,451.994L729,448.744L727.813,447.557L727.813,445.494L725.125,446.619L720.313,441.807L721.625,438.369L720.125,436.869L721.375,433.994L720.188,432.807L723.063,429.932L725.75,430.119L727.313,431.682L729.375,431.682L731.422,430.135L731.994,428.313L727.258,423.576"
          stroke-width="1" stroke-linejoin="round"
          style="-webkit-tap-highlight-color: rgba(0, 0, 0, 0); stroke-width: 1; stroke-linejoin: round;"></path>
    <path fill="#615dff" stroke="#ffffff"
          d="M505.833,499.621L505.333,496.953L506.167,493.453L503,494.787L499.5,498.287L497.667,496.453L494,498.453L491,497.121L487.5,497.121L481.833,502.121L476,502.121L472.625,503.869L473.125,509.369L474.25,511.744L475.125,516.744L474.5,523.869L476.625,526.994L478.625,530.869L481.625,530.869L483.75,534.994L485.625,536.869L486.25,539.994L488.875,541.619L491.375,541.619L491.5,543.869L489,544.994L490.398,547.49L490.75,550.744L491.75,553.494L495,556.369L498.25,556.369L501.125,557.869L502.75,557.869L502.875,560.869L505.167,560.869L505.167,558.121L507.5,555.787L510.417,552.871L508.917,551.371L507.833,549.287L508.167,547.453L509.417,546.203L507.833,544.121L506.167,542.453L509.167,537.953L509.167,534.453L509.167,533.121L510.25,532.037L510.25,529.953L507.333,529.453L505.417,531.371L503.083,529.037L506.084,528.203L506.084,525.121L506.833,522.453L505.167,519.121L504,515.787L506.5,513.621L509.5,510.621L511.5,509.787L511.5,505.453L509.5,501.621L507.167,500.787L505.833,499.621"
          stroke-width="1" stroke-linejoin="round"
          style="-webkit-tap-highlight-color: rgba(0, 0, 0, 0); stroke-width: 1; stroke-linejoin: round;"></path>
    <path fill="#615dff" stroke="#ffffff"
          d="M542.479,144.195L541.118,145.859L539.908,148.128L538.849,147.674L539.605,144.8L539.605,141.775L536.278,142.834C536.278,142.834,534.312,143.288,533.858,143.439C533.404,143.59,531.135,144.347,531.135,144.347L530.076,146.616L529.471,148.582L528.11,150.246L528.564,152.212L525.993,154.178L527.203,155.237L529.017,154.632L530.53,156.749L530.681,158.715L532.042,160.379L535.521,160.681L535.975,162.647L538.395,161.135L539.605,163.101L542.932,164.311L546.109,162.798L547.622,160.68L546.412,158.26L544.445,155.537L545.958,154.478L546.563,151.907L545.806,149.033L546.109,146.159L542.479,144.195Z"
          stroke-width="1" stroke-linejoin="round"
          style="-webkit-tap-highlight-color: rgba(0, 0, 0, 0); stroke-width: 1; stroke-linejoin: round;"></path>
    <path fill="#615dff" stroke="#ffffff"
          d="M498.919,231.316L497.104,232.224C497.104,232.224,497.86,234.493,497.86,234.19C497.86,233.887,499.221,233.585,499.221,233.585L498.919,231.316Z"
          stroke-width="1" stroke-linejoin="round"
          style="-webkit-tap-highlight-color: rgba(0, 0, 0, 0); stroke-width: 1; stroke-linejoin: round;"></path>
    <path fill="#615dff" stroke="#ffffff"
          d="M601.75,300.37L602.65,302.613L603.9,305.528L606.814,307.506L607.126,313.024L610.041,318.333L610.041,320.52L610.77,324.684L611.708,331.138L609.209,331.867L607.544,334.573L605.982,336.136L606.919,338.947L607.857,338.009L610.979,339.259L610.979,341.965L612.125,343.111L610.979,344.152L610.979,347.066L613.894,348.629L614.831,353.209L618.267,356.645L617.122,359.872L615.143,362.995L615.976,365.493L615.976,367.679L614.935,368.72L614.935,372.052L616.705,372.884L619.412,372.884L620.766,371.531L622.327,371.531L623.785,373.3L626.804,372.155L629.094,373.196L630.915,371.374L633.361,371.53L633.467,373.509L632.586,375.374L631.169,376.791L629.211,376.333L627.003,378.541L624.753,379.374L623.419,382.374L623.419,385.457L624.586,388.707L623.627,391.457L623.627,393.833L626.544,396.749L628.336,398.541L627.503,400.957L626.336,402.957L628.461,405.082L626.419,407.124L624.919,408.207L624.919,412.624L623.169,413.707L622.503,416.707L619.586,417.874L620.336,421.874L619.086,423.124L618.586,426.79L619.336,430.124L621.003,430.874L623.794,433.665L624.919,432.54L627.586,433.54L627.586,436.458L628.503,438.958L626.669,438.708L625.419,440.958L624.419,442.874L625.003,444.458L627.669,444.458L628.919,447.124L629.836,449.54L628.336,451.04L626.753,453.54L626.753,455.708L625.919,457.583L623.461,457.583L621.419,455.54L618.586,455.54L617.503,453.624L614.919,452.458L614.336,450.708L612.169,450.208L609.253,452.042L608.511,455.341L610.029,458.755L607.753,462.075L604.148,465.68L601.681,469.192L600.827,472.796L599.546,475.88L601.87,478.204L599.594,479.817L596.368,477.635L594.754,473.838L592.004,471.088L589.442,472.416L588.303,476.021L584.129,477.539L580.809,476.971L577.298,477.825L577.228,482.782L575.259,484.751L575.259,489.446L577.583,491.77L579.195,495.565L579.195,497.747L576.633,499.075L575.4,502.11L573.029,502.11L572.365,505.241L571.226,507.897L573.029,510.553L573.124,513.211L571.796,514.158L571.796,518.049L572.46,520.231L571.321,522.319L571.7,524.975L566.862,525.26L566.862,527.346L564.775,526.967L564.016,529.053L567.146,531.045L571.89,535.789L574.126,537.123L573.251,539.248L571.438,538.56L570,539.994L566.312,539.806L563.124,542.994L558.749,542.244L557.124,543.869L556.124,549.869L552.249,550.869L552.249,553.619L549.749,556.119L549.749,560.369L546.249,561.369L541.374,565.619L537.874,567.119L535.249,567.119L531.874,565.369L528.124,565.369L524.249,563.994L521.374,561.119L522.592,559.433L524.08,555.712L527.103,554.362L529.847,551.618L529.428,548.223L532.172,545.479L533.195,542.038L532.218,539.339L532.218,536.13L528.73,532.642L527.661,528.689L524.265,525.294L525.381,520.829L524.358,518.782L521.195,519.897L516.312,519.385L514.777,520.92L511.521,520.27L508.358,516.829L506.498,513.62L509.498,510.62L511.498,509.786L511.263,505.003L509.498,501.62L507.165,500.786L505.832,499.62L505.332,496.952L506.165,493.452L506.165,488.452L508.332,484.62L511.999,482.786L511.499,478.952L506.999,477.452L504.166,477.452L503.333,474.786L500.833,470.786L502.416,466.536L507.832,460.786L506.165,459.12L501.332,459.452L500.332,455.62L497.165,452.452L495.165,449.452L491.165,448.452L485.832,448.452L481.332,449.62L477.665,448.452L476.665,445.12L479.665,442.12L476.434,435.362L480.232,431.565L486.185,428.999L488.648,424.894L483.927,422.841L479.719,420.07L479.665,414.953L483.582,411.036L485,409.62L485.25,405.87L487.666,403.453L487.666,399.287L485.166,395.787L486.834,392.62L489.25,389.536L491.5,387.286L490.334,384.62L491,381.12L490.333,377.12L488.416,379.036L486.5,377.12L482.666,376.286L481.834,372.786L483.5,371.12L483.166,367.286L481.666,364.286L479.666,362.286L477.666,362.286L475.834,358.954L477.334,357.786L477.334,354.786L476.166,352.786L476.166,351.12L478.417,349.037L477,346.12L473.334,343.954L473.334,341.62L471.834,340.12L473.25,337.62L472.709,334.579L471.084,332.954L471.167,330.287L473.5,330.787L474.125,328.745L475.917,326.954L477,323.787L475.667,321.287L476.917,321.287L477.834,318.87L476.251,315.037L476.251,312.454L473.668,311.954L473.751,308.704C473.751,308.704,472.022,310.35,471.751,310.621C471.48,310.892,470.751,309.621,470.751,309.621L468.751,311.371L467.668,310.288L467.251,308.121L464.084,307.621L462,305.537L461.542,303.745L460.084,302.287L459.917,299.204L462.959,296.912L465.417,294.454L466.667,292.454L470,292.454L470,286.704L470.333,282.704L466.75,280.704L465.667,278.621L465,279.537L463.958,277.329L466.25,275.037L469.417,274.537L469.084,272.787L470.667,271.204L470.084,269.037L467.751,267.787L465.668,267.37L464.251,265.953L463.584,264.12L462,264.12L461.833,262.12L465.166,262.786L467.916,262.37L470.166,264.62L474.499,266.954L473.332,270.286L474.415,271.37L477.332,274.286L481.832,274.286L482.499,271.62L480.666,269.12L480.833,266.786L477.666,265.62L475.333,261.787L474,260.454L475,256.454L476.5,253.12L475.167,251.786L474.334,247.62L477.667,244.62L485.5,244.62L489.5,246.12L489.5,245.12L496,245.12L500.333,243.287L503.499,243.287L505.166,241.62L503.499,239.12L501.499,238.453L499.832,236.786C499.832,236.786,500.499,236.119,501.749,234.869C502.999,233.619,502.999,236.119,502.999,236.119L504.999,235.619L503.666,234.119L504.583,232.036L503.166,230.619L504.833,228.286L507.166,226.453L504.833,226.286L504.666,223.786L509.333,223.953L511.166,220.12L515.749,218.37L517.499,216.62L523.749,215.703L525.332,214.12L529.832,212.787L530.832,211.62L527.832,210.62L529.499,208.953L533.832,207.953L537.499,207.453L538.332,205.62L541.332,205.12L539.749,208.12L539.749,210.537L541.832,208.454L547,208.62L547.5,205.953L550.833,205.286L554.166,205.953L552.666,203.953L550.666,202.453L549.666,200.62L553.333,200.62L557.166,199.453L558.333,199.453L558,196.62L556.666,195.62L556.666,191.62L557.5,188.953L560,182.786L563,180.619L565.666,177.786L569,179.786L571.5,179.453L572.25,182.87L569.666,185.453L567.5,188.286L572.791,188.578L573.833,187.536L577.083,187.536L579.5,189.953L577.333,192.12C577.333,192.12,577.166,194.287,578.166,194.287C579.166,194.287,581.833,195.454,581.833,195.454L582.666,192.621L581.166,191.121L584.833,189.121L588.166,189.121L591.583,186.704L593.5,188.621L596.083,187.371L598,189.288L599.666,192.621L601.666,194.288L602.833,192.955L604.583,194.705L606.833,196.955L606.5,200.455L603.166,199.788L604.5,201.121L607.833,202.954L609.916,206.537L608,208.453L608,211.786L606.333,214.119L604.75,217.369L602.833,219.286L599.5,223.286L599.5,224.953L598.5,229.62L596,232.12L595,237.287L591,238.287L589.75,242.037L587,244.787L586.333,249.12L585.5,252.12L588.5,250.786L587.833,247.453L590.833,245.62C590.833,245.62,593.5,244.787,595,244.787C596.5,244.787,597,241.787,597,241.787L599.833,239.454L602.5,238.454L604.083,235.371L602.833,234.121L600.833,233.954L601,232.62L600.833,229.953L603.333,229.786L605.333,229.786L605.766,232.713L607.093,233.769L606.761,235.369L605.615,236.576L606.37,238.507L607.849,240.74L609.267,242.158L608.694,245.508L609.877,247.994L613.252,249.244L613.252,250.994L617.752,254.244L619.877,256.369L619.877,260.494L622.252,264.994L624.877,264.994L625.127,268.369L623.752,268.369L623.064,270.682L619.876,273.87L617.126,275.745L617.251,279.12L617.251,281.745L614.751,282.62L613.876,285.87L615.751,287.745L615.751,290.495L614.751,292.745L611.376,291.745L608.876,292.495L605.251,297.62L601.751,298.995L601.751,300.37"
          stroke-width="1" stroke-linejoin="round"
          style="-webkit-tap-highlight-color: rgba(0, 0, 0, 0); stroke-width: 1; stroke-linejoin: round;"></path>
    <path fill="#615dff" stroke="#ffffff"
          d="M577.419,181.252L576.813,182.16L578.175,183.067L578.779,182.008L577.419,181.252" stroke-width="1"
          stroke-linejoin="round"
          style="-webkit-tap-highlight-color: rgba(0, 0, 0, 0); stroke-width: 1; stroke-linejoin: round;"></path>
    <path fill="#615dff" stroke="#ffffff"
          d="M570.915,167.791L569.402,168.698L571.52,169.757L573.032,170.815L574.696,170.362L574.242,168.396L572.578,168.849L570.915,167.791"
          stroke-width="1" stroke-linejoin="round"
          style="-webkit-tap-highlight-color: rgba(0, 0, 0, 0); stroke-width: 1; stroke-linejoin: round;"></path>
    <path fill="#615dff" stroke="#ffffff"
          d="M556.092,160.379L556.092,158.262L556.243,154.48L555.185,152.363L553.672,152.514L551.555,155.085L551.706,157.354L550.798,158.867L551.403,162.951L549.588,164.766L549.739,168.849L548.832,172.328L548.075,175.807L549.437,176.563L552.311,174.294L553.975,173.236L557.756,171.27L560.781,170.967L564.563,168.093L566.377,164.614L565.167,161.589L563.806,159.32L561.991,160.077L560.176,156.9L558.814,155.539L557.15,157.505L556.092,160.379"
          stroke-width="1" stroke-linejoin="round"
          style="-webkit-tap-highlight-color: rgba(0, 0, 0, 0); stroke-width: 1; stroke-linejoin: round;"></path>
    <path fill="#615dff" stroke="#ffffff"
          d="M539.757,190.479L538.244,192.293L536.278,192.747L538.093,194.108L539.908,192.293L539.757,190.479"
          stroke-width="1" stroke-linejoin="round"
          style="-webkit-tap-highlight-color: rgba(0, 0, 0, 0); stroke-width: 1; stroke-linejoin: round;"></path>
    <path fill="#615dff" stroke="#ffffff"
          d="M514.498,189.874L513.742,191.083L514.8,191.991L516.162,190.024L514.498,189.874" stroke-width="1"
          stroke-linejoin="round"
          style="-webkit-tap-highlight-color: rgba(0, 0, 0, 0); stroke-width: 1; stroke-linejoin: round;"></path>
    <path fill="#615dff" stroke="#ffffff"
          d="M485.912,217.704L484.248,219.064L485.155,220.88L486.667,220.577L485.912,217.704" stroke-width="1"
          stroke-linejoin="round"
          style="-webkit-tap-highlight-color: rgba(0, 0, 0, 0); stroke-width: 1; stroke-linejoin: round;"></path>
    <path fill="#615dff" stroke="#ffffff"
          d="M485.306,237.518L485.004,239.181L487.575,239.181L488.937,240.542L489.088,238.273L487.575,237.971L485.306,237.518"
          stroke-width="1" stroke-linejoin="round"
          style="-webkit-tap-highlight-color: rgba(0, 0, 0, 0); stroke-width: 1; stroke-linejoin: round;"></path>
    <path fill="#615dff" stroke="#ffffff"
          d="M476.534,147.825L475.626,148.733L476.685,149.338L478.349,150.548L478.803,149.035L476.534,147.825"
          stroke-width="1" stroke-linejoin="round"
          style="-webkit-tap-highlight-color: rgba(0, 0, 0, 0); stroke-width: 1; stroke-linejoin: round;"></path>
    <path fill="#615dff" stroke="#ffffff"
          d="M467.308,253.247L466.249,254.608L466.854,256.423L467.913,257.785L469.425,256.122L470.03,254.155L468.669,252.793L467.308,253.247"
          stroke-width="1" stroke-linejoin="round"
          style="-webkit-tap-highlight-color: rgba(0, 0, 0, 0); stroke-width: 1; stroke-linejoin: round;"></path>
    <path fill="#615dff" stroke="#ffffff"
          d="M489.25,128.245L488,128.495L487.188,129.307L488.438,130.557L490.125,129.995L491.125,128.995L489.25,128.245"
          stroke-width="1" stroke-linejoin="round"
          style="-webkit-tap-highlight-color: rgba(0, 0, 0, 0); stroke-width: 1; stroke-linejoin: round;"></path>
    <path fill="#615dff" stroke="#ffffff"
          d="M517.875,125.745L516.75,126.87L517.625,127.745L518.563,128.682L520.5,126.87L520.5,125.62L517.875,125.745"
          stroke-width="1" stroke-linejoin="round"
          style="-webkit-tap-highlight-color: rgba(0, 0, 0, 0); stroke-width: 1; stroke-linejoin: round;"></path>
    <path fill="#615dff" stroke="#ffffff"
          d="M529.875,124.12L529.5,126.62L527.25,127.62L523.875,129.87L523.875,132.995L525.25,134.37L523.438,136.182L522.25,138.495L523.875,140.745L524.5,142.995L527.375,145.495L530,142.995L531.75,142.995L534.375,141.495L537.5,140.495L536.625,137.495L536.625,133.745L538.5,132.12L536.938,130.557L533.75,127.37L532.625,124.87L529.875,124.12"
          stroke-width="1" stroke-linejoin="round"
          style="-webkit-tap-highlight-color: rgba(0, 0, 0, 0); stroke-width: 1; stroke-linejoin: round;"></path>
    <path fill="#615dff" stroke="#ffffff"
          d="M522.5,144.87L520.375,144.62L520.75,147.37L520.75,149.12L523.5,149.87L524.625,150.995L526.313,149.307L527.25,146.87L525.625,145.62L522.5,144.87"
          stroke-width="1" stroke-linejoin="round"
          style="-webkit-tap-highlight-color: rgba(0, 0, 0, 0); stroke-width: 1; stroke-linejoin: round;"></path>
    <path fill="#615dff" stroke="#ffffff"
          d="M489.125,208.87L488.313,209.682L489.375,210.62L491.125,210.12L489.125,208.87" stroke-width="1"
          stroke-linejoin="round"
          style="-webkit-tap-highlight-color: rgba(0, 0, 0, 0); stroke-width: 1; stroke-linejoin: round;"></path>
    <path fill="#615dff" stroke="#ffffff"
          d="M412,535.119L410.167,533.287L408.25,529.203L406.167,527.119L403.333,525.953L403.333,522.953L405.667,522.953L407.667,520.287L406.833,517.953L403.833,517.953L401.333,520.453L397.833,520.619L395.25,520.703L396.719,516.713L398.563,514.869L398.563,512.932L396.875,511.244L396.875,507.869L396.125,501.994L398,497.369L401.125,493.744L403.25,492.869L405.625,493.744L406.875,492.494L406.875,489.994L406.313,488.182L409,485.494L409,477.494L412.625,478.369L414.625,480.369L418.75,480.369L423.25,480.994L427,482.994L431.5,484.869L434.313,487.682L436.563,489.932L439.875,494.494L447.125,494.494L450,498.494L453.375,498.494L457.375,497.494L459.75,495.119L461.875,496.119L462.5,500.369L462.5,503.494L463.813,504.807L462.25,506.369L464.063,508.182L466.188,506.057L468.375,503.619L472.625,503.869L473.125,509.369L474.25,511.744L475.125,516.744L474.5,523.869L476.625,526.994L471.125,530.119L467.875,530.119L465.625,531.869L463.375,530.619L461.125,532.869L459.125,530.869L455.938,534.057L454.5,537.869L452.25,538.869L450,535.619L448.125,535.619L446.625,533.369L446.625,530.994L443.625,527.994L442.063,526.432L438.625,526.619L433.75,528.244L428.875,531.869L423.375,531.869L420.125,533.244L417.625,534.119L415.75,532.244L414.625,533.869L412,535.119"
          stroke-width="1" stroke-linejoin="round"
          style="-webkit-tap-highlight-color: rgba(0, 0, 0, 0); stroke-width: 1; stroke-linejoin: round;"></path>
    <path fill="#615dff" stroke="#ffffff"
          d="M395.25,520.703L392.5,523.453L387.833,524.787L383.833,526.953L382,524.287L378.5,525.953L375.667,525.953L376.667,521.453L380.667,519.619L380.667,517.287L377.333,517.287L374.333,515.453L372.5,517.287L369.167,516.287L370.25,512.369L367.833,509.953L364.5,511.953L360.833,510.953L359.916,508.037L362,505.953L362,502.787L362.833,500.453L361.5,496.287L359,495.119L359,493.119L359.938,491.182L361.625,489.494L361.625,487.244L363,486.994L364.75,485.244L365.438,483.494L365.438,480.557L369.625,476.369L372.813,475.807L374,474.619L374,472.369L371.5,470.994L370.688,469.057L369.125,467.494L366.875,466.369L366.875,464.494L369.5,463.244L368.375,459.869L368.625,457.244L370.967,454.674L372.125,452.744L374.625,450.994L377.25,453.619L375.625,455.244L375.625,457.244L377.875,457.994L380.75,458.869L382.625,459.744L384.75,461.119L388.125,461.119L389.25,459.494L392.125,460.994L394.625,461.744L398.625,461.744L401.938,460.182L404.625,457.494L406.125,455.369L406.625,456.994L405.75,459.119L404.75,461.369L404.75,464.744L406.688,466.682L406.125,470.869L408,474.619L409,477.494L409,481.744L409,485.494L406.313,488.182L406.875,489.994L406.875,492.494L405.625,493.744L403.25,492.869L401.125,493.744L398,497.369L396.125,501.994L396.875,507.869L396.875,511.244L398.563,512.932L398.563,514.869L396.719,516.713L395.25,520.703"
          stroke-width="1" stroke-linejoin="round"
          style="-webkit-tap-highlight-color: rgba(0, 0, 0, 0); stroke-width: 1; stroke-linejoin: round;"></path>
    <path fill="#615dff" stroke="#ffffff"
          d="M476.435,435.363L478.333,439.287L479.667,442.121L476.667,445.121L477.667,448.453L481.333,449.621L485.833,448.453L491.167,448.453L495.167,449.453L497.167,452.453L500.333,455.621L501.333,459.453L506.167,459.121L507.833,460.787L505,463.953L502.417,466.537L500.833,470.787L503.333,474.787L504.167,477.453L507,477.453L511.5,478.953L512,482.787L508.333,484.621L506.167,488.453L506.167,493.453L503,494.787L499.5,498.287L497.667,496.453L494,498.453L491,497.121L487.5,497.121L481.833,502.121L476,502.121L472.625,503.869L468.375,503.619L464.063,508.182L462.25,506.369L463.813,504.807L462.5,503.494L462.5,500.369L461.875,496.119L459.75,495.119L457.375,497.494L453.375,498.494L450,498.494L447.125,494.494L439.875,494.494L436.563,489.932L434.313,487.682L431.5,484.869L427,482.994L423.25,480.994L418.75,480.369L414.625,480.369L412.625,478.369L409,477.494L408,474.619L406.125,470.869L406.688,466.682L404.75,464.744L404.75,461.369L406.625,456.994L406.125,455.369L410.849,452.607L411.362,449.117L415.878,445.832L421.421,444.293L421.113,439.059L425.013,430.334L430.351,429.514L434.354,431.258L440.101,431.258L441.538,433.414L446.875,434.029L451.032,432.439L454.881,436.287L458.063,435.467L462.477,437.725L463.708,433.619L470.277,430.848L476.435,435.363"
          stroke-width="1" stroke-linejoin="round"
          style="-webkit-tap-highlight-color: rgba(0, 0, 0, 0); stroke-width: 1; stroke-linejoin: round;"></path>
    <path fill="#615dff" stroke="#ffffff"
          d="M595.583,559.369L593,561.953L590.917,566.203L588.667,568.453L588,572.787L590.084,575.287L590.084,579.035L593,581.953L593,585.953L589.084,588.537L585.334,592.287L582.167,592.287L577.334,592.287L572.834,591.119L568.167,591.953L564.834,590.953L560,589.285L557.334,586.619L554.167,583.453L550.334,582.287L545.834,584.119L543,581.285L539.417,579.703L536.5,582.619L532.834,582.619L531.667,586.119L527.334,586.119L521.834,589.619L518.5,592.953L515.167,592.953L514.5,596.453L513.25,594.119L513.25,591.369L510.75,588.869L512,587.619L514.75,586.994L515.5,584.619L512.438,581.682L508.625,577.869L507.5,574.244L507,570.369L508.5,568.869L511.375,569.619L514.625,569.869L517.813,566.682L517.813,562.994L521.375,561.119L524.25,563.994L528.125,565.369L531.875,565.369L535.25,567.119L537.875,567.119L541.375,565.619L546.25,561.369L549.75,560.369L549.75,556.119L552.25,553.619L552.25,550.869L556.125,549.869L557.125,543.869L558.75,542.244L563.125,542.994L566.313,539.807L570,539.994L571.438,538.557L573.25,539.244L574.125,537.119L577.125,537.119L579.625,538.994L583.375,539.494L586.5,542.494L588.625,543.494L592.25,543.494L593.75,541.994L595.5,543.744L596.875,545.119L594.938,547.057L594.938,549.994L593.156,551.775L593.75,554.619L595.375,556.244L595.583,559.369"
          stroke-width="1" stroke-linejoin="round"
          style="-webkit-tap-highlight-color: rgba(0, 0, 0, 0); stroke-width: 1; stroke-linejoin: round;"></path>
    <path fill="#615dff" stroke="#ffffff"
          d="M506.5,513.621L508.36,516.83L511.523,520.271L514.779,520.922L516.314,519.387L521.197,519.898L524.36,518.783L525.384,520.83L524.268,525.295L527.663,528.689L528.732,532.643L532.221,536.131L532.221,539.34L533.197,542.039L532.174,545.48L529.43,548.225L529.849,551.619L527.104,554.363L524.081,555.713L522.593,559.434L521.375,561.119L517.813,562.994L517.813,566.682L514.625,569.869L508.5,568.869L507,570.369L505.25,570.369L503.625,573.682L500.938,573.682L497.5,570.244L499.125,568.619L498.375,565.369L502.875,560.869L505.167,560.869L505.167,558.121L510.417,552.871L508.917,551.371L507.833,549.287L508.167,547.453L509.417,546.203L507.833,544.121L506.167,542.453L508.922,538.32L509.167,533.121L510.25,532.037L510.25,529.953L507.333,529.453L505.417,531.371L503.083,529.037L506.084,527.807L506.084,525.121L506.833,522.453L505.167,519.121L504,515.787L506.5,513.621"
          stroke-width="1" stroke-linejoin="round"
          style="-webkit-tap-highlight-color: rgba(0, 0, 0, 0); stroke-width: 1; stroke-linejoin: round;"></path>
</svg>