<svg xmlns="http://www.w3.org/2000/svg" version="1.1" width="1500" height="1000" viewBox="0 420 140 120" style="-webkit-tap-highlight-color: rgba(0, 0, 0, 0);">
    <desc style="-webkit-tap-highlight-color: rgba(0, 0, 0, 0);">Russian Map</desc>
    <defs style="-webkit-tap-highlight-color: rgba(0, 0, 0, 0);"></defs>
    <path fill="#615dff" stroke="#ffffff" d="M36.125,483.932L35.125,482.369L33.219,480.463L32.25,480.869L32.25,482.494L33.063,483.994L36.563,487.619L38.25,487.619L38.75,486.994L40.563,488.119L41.531,490.4L40.438,491.494L38.625,491.369L37.625,493.307L36.063,493.307L36.063,496.057L36.688,497.682L36.25,498.994L32.625,498.994L31.344,498.4L29.875,499.869L32.438,502.994L33.375,504.744L34.125,503.994L35.875,503.682L35.875,502.432L37.094,501.4L38.938,499.557L40.688,497.057L42.188,495.557L43.75,494.869L44.438,497.057L45.313,495.244L45.313,491.557L45.313,489.182L44.188,488.432L43.188,487.432L41.688,486.619L41.188,484.807L39.063,484.119L38.188,484.557L36.125,483.932" stroke-width="1" stroke-linejoin="round" style="-webkit-tap-highlight-color: rgba(0, 0, 0, 0); stroke-width: 1; stroke-linejoin: round;"></path>
    <path fill="#615dff" stroke="#ffffff" d="M127.167,486.953L125.998,483.484L124.081,481.568L121.701,483.136L118.333,483.019L116.591,481.277L112.642,482.322L111.481,485.343L112.438,488.618L114.376,489.931L113.376,495.244L113.689,498.432L115.314,500.557L119.002,500.682L118.127,504.745L116.189,505.808L115.033,510.027L116.689,511.683L115.626,514.371L112.126,514.058L111.813,516.183L110.625,516.183L110.312,514.933L108.437,514.12L107.124,515.433L108.312,517.058L108.312,519.058L109.375,520.121L109.375,521.684L103.937,525.497L104.437,526.81L106.687,526.873L108.5,528.123L111.5,528.623L112.666,529.789L115.166,530.457C115.166,530.457,114.833,531.707,116.416,531.707C117.999,531.707,119.999,531.457,119.999,531.457L121.499,531.457L123.332,531.457L125.665,531.457L128.498,531.123L130.165,529.457L128.082,527.373L126.665,524.457L126.332,521.457L128.832,521.789L130.499,523.623L132.249,521.873L132.249,517.289L131.332,511.623L132.165,507.289L130.165,505.289L126.998,502.289L124.831,500.957L126.998,498.789L127.998,494.457L125.581,492.039L124.498,488.789L127.167,486.953Z" stroke-width="1" stroke-linejoin="round" style="-webkit-tap-highlight-color: rgba(0, 0, 0, 0); stroke-width: 1; stroke-linejoin: round;"></path>
    <path fill="#615dff" stroke="#ffffff" d="M121.932,435.518L121.701,438.422L122.746,442.371L126.462,442.836L128.669,443.998L128.669,445.973L132.037,445.855L135.986,449.688L136.451,454.334L133.431,457.238L135.638,459.328L136.857,458.109L139.238,458.98L139.935,462.348L141.502,463.916L143.883,463.916L144.348,466.412L146.38,468.445L146.5,471.785L145.333,474.453L143.167,476.035L139.917,476.035L137.333,478.619L135.167,480.785L135.167,483.785L132.333,484.953L129.334,484.785L127.167,486.953L125.998,483.484L124.081,481.568L121.701,483.137L118.333,483.02L116.59,481.277L112.642,482.322L111.48,485.344L108.46,484.646L106.718,482.904L106.718,480.813L105.093,480.232L103.931,483.484L102.189,484.182L100.505,482.496L98.473,483.252L96.673,481.453L93.711,484.182L90.11,480.813L89.297,477.793L90.343,475.008L90.343,471.986L86.626,469.316L88.717,467.227L88.717,465.135L91.504,463.973L93.711,466.18L97.195,465.6L99.518,461.07L98.008,455.146L101.956,451.199L103.35,447.598L101.027,443.998L100.794,441.789L104.686,437.898L105.905,433.893L110.667,433.893L112.989,431.801L115.428,432.266L116.009,434.125L118.564,435.518L121.932,435.518" stroke-width="1" stroke-linejoin="round" style="-webkit-tap-highlight-color: rgba(0, 0, 0, 0); stroke-width: 1; stroke-linejoin: round;"></path>
    <path fill="#615dff" stroke="#ffffff" d="M96.667,535.785L100.167,534.785L103.333,534.785L106.167,531.453L108.5,530.453L108.5,528.119L106.688,526.869L104.438,526.807L103.938,525.494L109.375,521.682L109.375,520.119L108.313,519.057L108.313,517.057L107.125,515.432L108.438,514.119L110.313,514.932L110.625,516.182L111.813,516.182L112.125,514.057L115.625,514.369L116.688,511.682L115.031,510.025L116.188,505.807L118.125,504.744L118.563,502.807L119,500.682L115.313,500.557L113.688,498.432L113.375,495.244L113.938,492.682L114.375,489.932L112.438,488.619L111.48,485.344L108.46,484.646L106.718,482.904L106.718,480.813L105.093,480.232L103.931,483.484L102.189,484.182L100.505,482.496L98.473,483.252L96.673,481.453L93.711,484.182L93.711,487.783L95.813,487.932L98.25,486.619L98.25,489.057L96.625,492.432L93.188,494.932L89.375,494.932L85.875,498.557L83.875,498.057L83.063,498.869L81.25,498.182L80,496.932L78.813,491.932L76.75,491.369L75.188,489.807L75.188,487.619L74.313,485.244L72.375,485.244L72.375,486.869L71.188,488.057L68.125,488.057L66.5,486.932L64.375,488.619L66.25,489.557L67,491.744L68.688,491.744L70.063,491.244L70.813,493.432L72.156,494.775L75.125,494.244L77,495.037L77.333,497.453L78.917,499.287L79.417,501.371L81,502.953L82.083,505.953L80.917,508.203L82.167,510.537L83.875,512.244L85.167,513.953L85.167,515.953L86.958,517.744L87.417,520.287L88.833,522.371L88.833,526.203L91.089,527.844L92.22,529.563L94.029,530.195L94.843,532.322L94.625,535.244L96.667,535.785" stroke-width="1" stroke-linejoin="round" style="-webkit-tap-highlight-color: rgba(0, 0, 0, 0); stroke-width: 1; stroke-linejoin: round;"></path>
    <path fill="#615dff" stroke="#ffffff" d="M62.625,482.412L61.333,480.703L59.5,479.869L57.667,477.037L56.292,475.662L58.584,473.869L58.084,471.287L59.917,470.703L58.584,469.369L54.084,464.619L52.167,465.703L50.417,463.953L50.584,462.287L51.167,460.119L48.834,459.119L47.334,460.619L45.334,458.787L43.501,457.453L41.501,457.119L40.834,459.287L42.167,461.787L41.667,465.953L39.167,465.119L37.167,465.119L33.334,465.287L30.501,466.453L29.334,468.953L26.834,468.119L24.167,464.787L22.167,465.119L20.334,466.953L21.167,470.287L20.167,473.287L21.5,475.953L23.5,477.787L23.167,482.787L24.834,485.287L26.167,488.119L26.834,493.787L26.334,501.453L27.667,505.453L29.834,505.119L31.501,507.453L32.834,509.119L34.667,509.453L36.688,507.432L39.063,507.057L40.719,505.401L42.375,505.401L43.313,507.432L44.751,509.557L48,509.557L50.5,506.432L51.375,504.619L50.75,502.244L52.5,501.744L55.25,499.619L53.625,497.994L55,495.807L54,493.807L52.75,492.744L54.125,490.744L54.125,488.744L55.375,487.306L56.688,487.744L57.563,489.119L59.876,488.806L61.345,487.337L61.085,483.952L62.625,482.412ZM45.313,491.557L45.313,495.245L44.438,497.058L43.75,494.87L42.187,495.558L40.687,497.058L38.937,499.558L37.093,501.402L35.874,502.433L35.874,503.683L34.124,503.996L33.374,504.746L32.436,502.996L29.873,499.871L31.342,498.402L32.623,498.996L36.248,498.996L36.686,497.683L36.061,496.058L36.061,493.308L37.624,493.308L38.624,491.37L40.437,491.495L41.531,490.401L40.562,488.12L38.749,486.995L38.249,487.62L36.561,487.62L35.342,486.276L33.967,484.901L33.061,483.995L32.248,482.495L32.248,480.87L33.217,480.464L34.373,481.62L35.123,482.37L36.123,483.933L38.186,484.558L39.061,484.12L41.186,484.808L41.686,486.621L43.186,487.434L44.186,488.434L45.311,489.184L45.311,491.557L45.313,491.557Z" stroke-width="1" stroke-linejoin="round" style="-webkit-tap-highlight-color: rgba(0, 0, 0, 0); stroke-width: 1; stroke-linejoin: round;"></path>
    <path fill="#615dff" stroke="#ffffff" d="M-4.782,433.757L-1.546,433.757L-0.00099999999999767,434.847L2.011,435.12L2.011,433.985L3.763,433.757L4.832,435.453L9.205,435.453L9.325,433.985L10.895,434.322L10.895,437.118L12.686,438.877L11.618,441.452L13.691,443.619L13.691,447.419L14.243,448.927L13.624,450.685L12.56,452.18L14.075,453.72L14.791,455.249L17.377,456.104L20.205,456.544L23.556,462.022L21.625,462.337L19.974,464.063L16.519,462.901L13.912,460.577L13.409,459.134L13.11,457.769L11.367,456.526L7.973,457.312L5.711,456.181L2.947,454.642L-1.043,455.333L-3.948,454.784L-5.268,452.491L-6.178,449.005L-4.042,448.911L-1.577,445.88L-0.981,442.739L-1.327,440.854L-1.327,438.595L-2.583,436.427L-4.688,434.856Z" stroke-width="1" stroke-linejoin="round" style="-webkit-tap-highlight-color: rgba(0, 0, 0, 0); stroke-width: 1; stroke-linejoin: round;"></path>
    <path fill="#615dff" stroke="#ffffff" d="M93.711,487.783L93.711,484.182L90.11,480.813L89.297,477.793L90.343,475.008L90.343,471.986L86.626,469.316L88.717,467.227L88.717,465.135L91.504,463.973L93.711,466.18L97.195,465.6L99.518,461.07L98.008,455.146L101.956,451.199L103.35,447.598L101.027,443.998L100.794,441.789L96.497,441.789L94.987,443.299L92.665,443.299L91.502,441.674L88.615,441.674L88.615,439.568L87.333,438.287L86,439.953L84.833,442.787L78.667,443.619L78.833,446.287L76.5,445.953L74.167,448.285L74.833,451.953L72.333,453.453L68.667,457.119L64.667,452.787L62,449.953L59.167,451.119L56,449.787L52.333,451.453L49.833,454.119L51.833,454.787L53.667,456.619L56.5,457.287L58.5,458.787L57.833,461.787L55,460.619L51.167,460.119L50.583,462.287L50.417,463.953L52.214,465.75L54.083,464.619L59.917,470.703L58.083,471.287L58.583,473.869L56.292,475.662L57.667,477.037L59.5,479.869L61.333,480.703L62.625,482.412L61.083,483.953L61.344,487.338L63.188,487.338L64.375,488.619L66.5,486.932L68.125,488.057L71.188,488.057L72.375,486.869L72.375,485.244L74.313,485.244L75.188,487.619L75.188,489.807L76.75,491.369L78.813,491.932L79.438,494.807L80,496.932L81.25,498.182L83.063,498.869L83.875,498.057L85.875,498.557L89.375,494.932L93.188,494.932L96.625,492.432L98.25,489.057L98.25,486.619L95.813,487.932L93.711,487.783" stroke-width="1" stroke-linejoin="round" style="-webkit-tap-highlight-color: rgba(0, 0, 0, 0); stroke-width: 1; stroke-linejoin: round;"></path>
</svg>