<svg xmlns="http://www.w3.org/2000/svg" version="1.1" width="1500" height="1000" viewBox="270 240 320 270"
     style="-webkit-tap-highlight-color: rgba(0, 0, 0, 0);">
    <desc style="-webkit-tap-highlight-color: rgba(0, 0, 0, 0);">Russian Map</desc>
    <defs style="-webkit-tap-highlight-color: rgba(0, 0, 0, 0);"></defs>
    <path fill="#615dff" stroke="#ffffff"
          d="M298.639,459.477L302.954,456.555L305.551,457.729L307.73,457.729L310.244,458.816L312.003,458.146L314.266,462.002L318.205,458.984L321.808,458.984L323.148,460.744L321.221,464.18L324.07,468.285L326.081,468.957L326.081,472.727L328.679,473.23L330.606,475.074L333.539,475.074L334.544,477.252L336.807,477.588L336.22,480.688L342.84,484.793L343.333,489.785L341.333,492.619L337.167,492.619L333.5,493.619L330.5,491.953L326.833,492.619L322.333,492.619L318,490.369L316.25,490.369L314.333,492.285L311,492.953L307.833,491.285L305,491.285L301.167,490.119L295.5,490.285L296.357,487.879L298.809,485.428L297.456,482.131L294.159,482.131L293.736,480.609L291.623,480.525L289.679,478.58L290.271,476.299L292.468,476.299L294.075,474.691L293.103,471.521L294.751,469.873L297.625,469.873L299.231,467.422L298.724,463.195L298.639,459.477"
          stroke-width="1" stroke-linejoin="round"
          style="-webkit-tap-highlight-color: rgba(0, 0, 0, 0); stroke-width: 1; stroke-linejoin: round;"></path>
    <path fill="#615dff" stroke="#ffffff"
          d="M321.808,458.984L318.205,458.984L314.266,462.002L312.004,458.146L310.244,458.816L307.73,457.729L305.551,457.729L302.953,456.555L298.639,459.477L296.906,457.744L295.089,455.926L292.722,454.574L290.566,456.645L288.327,454.404L286.128,454.15L285.537,452.883L282.494,451.869L281.564,450.178L278.774,448.318L276.492,449.248L274.374,451.365L272.401,448.486L270.014,448.486L266.145,445.688L264.004,442.725L266.188,440.307L267.5,438.994L267.5,436.119L268.625,433.869L269.625,434.869L272.875,434.869L275.625,433.494L276.375,430.369L278.125,427.494L280.375,427.494L282.375,430.494L283.625,429.244L285.438,427.432L284.125,426.119L284,424.494L287,422.494L289.875,423.119L291.938,421.432L294,419.37L292.188,417.495L292.188,416.307L293.875,414.62L295,410.87L292.875,407.495L292.875,403.245L295.625,400.87L298.5,400.87L300.75,398.62L303.25,394.87L306.625,391.87L308.5,387.245L308.5,383.87L311.875,382.12L311.875,379.495L312.75,377.12L314.313,375.557L316.646,377.047L316.646,379.125L317.981,380.46L319.466,381.499L321.691,383.725L325.624,387.658L328.073,392.183L330.076,394.186L330.076,398.713L328.369,400.939L329.26,406.132L328.221,410.288L330.372,412.439L330.372,415.778L328.406,417.745L329.111,421.566L331.931,423.049L333.86,425.424L334.008,428.096L335.938,428.096L337.866,430.023L336.828,431.953L336.828,435.811L338.683,437.666L337.718,440.857L338.46,443.082L338.46,445.902L334.602,447.832L332.376,446.941L330.372,448.945L327.924,448.277L325.03,451.17L325.698,454.807L324.363,456.141L325.253,459.109L323.148,460.744L321.808,458.984"
          stroke-width="1" stroke-linejoin="round"
          style="-webkit-tap-highlight-color: rgba(0, 0, 0, 0); stroke-width: 1; stroke-linejoin: round;"></path>
    <path fill="#615dff" stroke="#ffffff"
          d="M356,495.119L354.5,492.119L350.333,492.119L347,490.119L343.334,489.785L342.84,484.793L336.221,480.688L336.807,477.588L334.545,477.252L333.539,475.074L330.605,475.074L328.679,473.23L326.081,472.727L326.081,468.957L324.07,468.285L321.221,464.18L323.148,460.744L325.253,459.109L324.363,456.141L325.698,454.807L325.03,451.17L327.924,448.277L330.372,448.945L332.376,446.941L334.602,447.832L338.46,445.902L338.46,443.082L337.718,440.857L338.683,437.666L341,439.494L344.5,439.494L347.125,438.744L347.125,436.494L348.375,435.244L353,436.494L354.875,434.619L359.875,434.619L361.313,433.182L364,432.244L366.75,431.244L368.063,429.932L367.875,427.244L369.75,427.244L372,429.119L374,430.119L376.25,432.369L378.75,432.369L382,433.244L384.625,435.869L386.5,439.244L388.75,442.869L388.75,445.869L392.125,446.369L392.125,449.244L393.813,450.932L396.625,451.869L398.25,453.494L401.25,453.494L403.375,455.369L406.125,455.369L404.625,457.494L401.938,460.182L398.625,461.744L394.625,461.744L392.125,460.994L389.25,459.494L387.5,461.119L384.75,461.119L382.625,459.744L380.75,458.869L377.875,457.994L375.625,457.244L375.625,455.244L377.25,453.619L374.625,450.994L372.125,452.744L370.625,455.244L368.625,457.244L368.375,459.869L369.5,463.244L366.875,464.494L366.875,466.369L369.125,467.494L370.688,469.057L371.5,470.994L374,472.369L374,474.619L372.813,475.807L369.625,476.369L367.813,478.182L365.438,480.557L365.438,483.494L364.75,485.244L363,486.994L361.625,487.244L361.625,489.494L359.938,491.182L359,493.119L359,495.119L356,495.119"
          stroke-width="1" stroke-linejoin="round"
          style="-webkit-tap-highlight-color: rgba(0, 0, 0, 0); stroke-width: 1; stroke-linejoin: round;"></path>
    <path fill="#615dff" stroke="#ffffff"
          d="M352.834,332.12L352.5,337.62L353.167,342.12L351.916,346.204L348.833,349.287L350.416,350.87L353.25,353.704L356.5,356.954L361,355.954L364.5,357.454L368,355.954L371.834,357.954L375.584,361.204L372.667,364.12L375.167,366.954L379.666,367.786L382,365.453L384.5,367.953L386.334,366.12L390.834,366.12L394.834,370.12L395.75,374.62L395.75,377.537L399.5,381.287L398.667,384.62L399.834,387.954L405.667,387.287L408.5,387.287L411,391.287L413.834,391.287L417.167,394.787L420,394.12L424.084,395.203L426.75,397.87L428.334,396.287L432.834,398.12L431.666,401.287L435.166,403.12L437.834,405.787L444,405.787L449.834,405.787L451.166,403.453L454.166,401.787L457.666,399.453L459,402.953L462.417,407.37L464,405.787L468.834,407.287L471.334,411.453L473.834,410.62L476.166,410.62L479.666,414.954L479.72,420.071L483.928,422.842L488.649,424.895L486.186,429L480.233,431.566L476.435,435.363L470.277,430.847L463.708,433.618L462.477,437.723L458.063,435.465L454.881,436.285L451.032,432.437L446.875,434.027L441.538,433.412L440.101,431.256L434.353,431.256L430.35,429.512L425.013,430.332L423.063,434.232L421.113,439.056L421.421,444.29L415.879,445.829L411.363,449.114L410.85,452.604L406.126,455.366L403.376,455.366L401.251,453.491L398.251,453.491L396.626,451.866L393.813,450.928L392.125,449.24L392.125,446.365L388.75,445.865L388.75,442.865L386.5,439.24L384.625,435.865L382,433.244L378.75,432.369L376.25,432.369L374,430.119L369.75,427.244L367.875,427.244L368.063,429.932L366.75,431.245L361.312,433.183L359.874,434.621L354.874,434.621L353,436.494L348.375,435.244L347.125,436.494L347.125,438.744L344.5,439.494L341,439.494L338.683,437.666L336.828,435.811L336.828,431.954L337.867,430.024L335.938,428.096L334.009,428.096L333.861,425.424L331.932,423.049L329.113,421.566L328.407,417.745L330.373,415.778C330.373,415.778,330.885,412.951,330.373,412.439C329.861,411.927,328.222,410.288,328.222,410.288L329.082,406.85L328.371,400.94C328.371,400.94,329.486,399.306,330.078,398.714C330.67,398.122,330.078,394.187,330.078,394.187L328.075,392.184L325.626,387.659L321.693,383.726L319.467,381.5L316.647,379.126L316.647,377.048L314.314,375.558L314.877,372.62L319.002,368.495L319.002,366.245L320.377,363.62L319.752,360.745L322.002,356.495L325.377,354.37L325.752,351.37L329.752,348.87L329.127,345.245L330.627,342.37L334.065,338.932L336.628,336.369L338.753,337.119L338.753,339.744L341.628,339.369L344.753,336.244L347.878,334.619L349.628,332.619L352.834,332.12Z"
          stroke-width="1" stroke-linejoin="round"
          style="-webkit-tap-highlight-color: rgba(0, 0, 0, 0); stroke-width: 1; stroke-linejoin: round;"></path>
    <path fill="#615dff" stroke="#ffffff"
          d="M295.5,490.285L291.333,489.453L288.333,490.285L285.667,487.953L281.833,485.953L278.333,485.953L277.167,489.619L278.333,492.119L276,494.453L277.833,495.619L279.667,497.453L281.917,499.703L279.833,501.785L277.5,501.785L274.667,498.953L270.333,499.119L267.5,500.285L268.667,504.453L267.5,507.453L264.667,508.285L261.333,507.453L260,510.953L259.5,508.332L257.725,508.332L257.471,506.219L260.599,504.697L261.444,502.584L260.261,500.471L258.57,500.471L255.865,499.287L253.921,500.049L248.003,500.049L249.018,498.275L251.639,497.092L252.062,494.641L254.344,490.498L256.119,490.498L256.119,487.623L258.317,484.666L258.317,482.805L261.74,479.381L264.319,478.494L264.319,477.311L267.108,477.057L268.292,478.664L270.236,478.664L270.236,475.453L269.053,471.818L264.995,470.549L263.22,471.732L259.078,471.311L256.964,467.93L256.457,463.449L254.851,461.842L254.175,458.631L257.81,455.926L260.346,456.686L263.051,458.039L264.91,459.898L264.91,462.182L268.376,463.449L270.616,461.209L274.378,460.32L274.378,458.293L276.407,454.572L277.168,452.037L276.492,449.248L278.774,448.318L281.564,450.178L282.494,451.869L285.537,452.883L286.128,454.15L288.327,454.404L290.566,456.645L292.722,454.574L295.089,455.926L296.906,457.744L298.639,459.477L298.724,463.195L299.231,467.422L297.625,469.873L294.751,469.873L293.103,471.521L294.075,474.691L292.468,476.299L290.271,476.299L289.679,478.58L291.623,480.525L293.736,480.609L294.159,482.131L297.456,482.131L298.809,485.428L296.357,487.879L295.5,490.285"
          stroke-width="1" stroke-linejoin="round"
          style="-webkit-tap-highlight-color: rgba(0, 0, 0, 0); stroke-width: 1; stroke-linejoin: round;"></path>
    <path fill="#615dff" stroke="#ffffff"
          d="M382.328,306.87L382.578,305.037L383.911,304.37L384.661,302.537L386.244,302.537L386.244,296.87L384.994,296.453L384.661,295.203L383.036,293.661L385.661,291.036L387.02,289.036L388.327,291.702L392.244,295.619L394.911,299.786L397.744,303.619L397.744,306.953L400.077,310.619L403.41,308.619L403.41,305.119L407.243,301.619L404.576,300.786L402.743,296.453L403.41,291.786L400.243,289.619L398.493,286.035L400.076,284.453L403.409,282.786L403.409,280.119L404.242,276.119L405.742,274.119L405.742,271.619L403.575,270.953L404.742,267.619L406.575,265.286L409.908,264.119L413.491,262.369L414.741,261.119L417.574,258.286L419.741,253.453L421.408,249.453L423.241,245.453L426.408,243.786L428.408,246.619L432.408,246.619L434.408,248.619L437.908,248.619L439.408,254.286L437.741,255.953L436.991,262.036L432.241,266.786L430.908,271.119L433.741,273.619L432.741,279.286L431.908,283.786L428.575,288.786L427.408,295.953L425.575,302.286L424.242,305.453L425.492,309.869L428.409,312.786L427.909,315.453L424.242,318.286L423.575,324.453L419.908,325.453L415.575,329.786L413.075,333.453L410.742,334.786L406.575,333.953L404.075,335.619L401.325,333.869L399.575,332.119L397.075,331.286L397.075,334.453L399.575,338.286L402.075,339.453L405.408,341.786L408.241,341.619L410.241,344.453L413.241,344.453C413.241,344.453,414.491,342.203,413.824,341.536C413.157,340.869,415.574,339.786,415.574,339.786L417.741,339.786L418.741,338.786L422.908,337.619L426.241,335.786L426.241,332.286L427.741,330.786L430.324,328.203L432.407,326.119L433.407,322.119L432.574,318.619L432.241,315.453L434.491,313.203L436.741,310.953L440.241,310.953L444.074,310.453L445.157,313.702L446.74,315.285L448.74,320.452L446.073,323.119L446.24,327.119L446.24,329.619L449.573,332.953L453.406,333.785L453.406,331.453L449.656,330.369L448.239,328.953L448.239,326.953L447.906,323.953L450.573,323.119L451.573,320.953L450.573,317.785L451.74,315.119L450.073,311.785L447.906,309.786L446.573,308.453L442.49,307.036L440.157,304.703L438.24,306.619L435.74,307.785L434.407,305.953L431.407,305.953L430.907,302.785L432.907,300.785L432.407,295.453L434.74,291.785L436.24,287.453L439.573,284.119L438.406,280.453L437.406,277.285L437.823,273.869L435.406,271.453L438.073,268.786L442.24,264.619L445.74,264.619L447.74,261.453L449.073,257.953L447.906,255.119L449.073,252.619L451.74,252.619L450.907,256.119L450.907,260.953L450.24,265.286L447.24,268.285L447.24,272.453L447.24,275.453L450.74,278.119L452.74,279.785L455.323,278.202L457.906,280.785L460.739,283.453L460.739,281.453L459.656,278.869L457.739,276.953L454.739,275.453L454.739,274.119L452.239,271.619L451.072,267.953L454.572,265.619L456.239,267.286L458.906,269.953L460.906,268.119L460.239,265.953L459.989,264.036L461.906,262.119L462.073,264.119L463.656,264.119L464.323,265.952L465.573,267.202L467.823,267.785L470.156,269.035L470.739,271.202L469.156,272.785L469.489,274.535L466.322,275.035L464.905,276.452L464.03,277.327L465.072,279.535L465.864,278.743L466.822,280.701L470.405,282.701L470.072,286.701L470.072,292.451L466.739,292.451L465.489,294.451L463.031,296.909L459.989,299.201L460.156,302.284L461.614,303.742L462.072,305.534L464.155,307.617L467.322,308.117L467.739,310.284L468.822,311.367L470.822,309.617L471.822,310.617L473.822,308.7L473.739,311.95L476.322,312.45L476.322,315.033L477.905,318.866L476.988,321.283L475.738,321.283L477.071,323.783L475.988,326.95L474.196,328.742L473.571,330.784L471.238,330.284L471.155,332.951L472.78,334.576L473.322,337.618L471.905,340.118L473.405,341.618L473.405,343.951L477.072,346.118L478.489,349.035L476.239,351.118L476.239,352.785L477.406,354.785L477.406,357.785L475.906,358.952L477.739,362.285L479.739,362.285L481.739,364.285L483.239,367.285L483.572,371.118L481.905,372.785L482.738,376.285L486.571,377.118L488.488,379.035L490.405,377.118L491.072,381.118L490.405,384.618L491.572,387.285L489.322,389.535L486.905,392.619L485.238,395.786L487.738,399.286L487.738,403.452L485.321,405.869L485.071,409.619L483.654,411.036L479.737,414.953L476.237,410.619L473.904,410.619L471.404,411.452L468.904,407.286L464.071,405.786L462.488,407.369L459.071,402.952L457.738,399.452L454.238,401.786L451.238,403.452L449.905,405.786L444.072,405.786L437.905,405.786L435.238,403.119L431.738,401.286L432.905,398.119L428.405,396.286L426.822,397.869L424.155,395.202L420.072,394.119L417.239,394.786L413.906,391.286L411.073,391.286L408.573,387.286L405.74,387.286L399.907,387.953L398.74,384.619L399.573,381.286L395.823,377.536L395.823,374.619L394.906,370.119L390.906,366.119L386.406,366.119L384.573,367.952L382.073,365.452L379.74,367.785L375.24,366.952L372.74,364.119L375.657,361.202L371.907,357.952L368.074,355.952L364.574,357.452L361.074,355.952L356.574,356.952L353.324,353.702L350.491,350.869L348.908,349.286L351.991,346.203L353.241,342.12L352.574,337.62L352.907,332.12L357.24,332.287L357.24,328.62L362.573,325.62L367.906,324.453L373.573,324.453L374.74,320.786L377.907,320.786L380.907,317.786L384.907,315.786L382.324,313.203L385.407,311.953L385.407,309.786L382.074,308.119L382.328,306.87Z"
          stroke-width="1" stroke-linejoin="round"
          style="-webkit-tap-highlight-color: rgba(0, 0, 0, 0); stroke-width: 1; stroke-linejoin: round;"></path>
    <path fill="#615dff" stroke="#ffffff"
          d="M454.149,241.601L452.788,242.811L453.695,244.172L455.51,242.962L457.779,243.567L457.174,242.206L454.149,241.601"
          stroke-width="1" stroke-linejoin="round"
          style="-webkit-tap-highlight-color: rgba(0, 0, 0, 0); stroke-width: 1; stroke-linejoin: round;"></path>
    <path fill="#615dff" stroke="#ffffff"
          d="M447.191,247.651L446.435,249.617L447.645,250.676L449.006,249.012L447.191,247.651" stroke-width="1"
          stroke-linejoin="round"
          style="-webkit-tap-highlight-color: rgba(0, 0, 0, 0); stroke-width: 1; stroke-linejoin: round;"></path>
    <path fill="#615dff" stroke="#ffffff"
          d="M431.009,237.82L429.345,239.03L429.95,240.392L428.74,242.055L429.042,243.114L431.765,243.87L434.336,242.66L435.849,242.812L435.849,241.299L433.429,240.694L434.639,239.333L433.277,237.367L431.614,237.972L431.009,237.82"
          stroke-width="1" stroke-linejoin="round"
          style="-webkit-tap-highlight-color: rgba(0, 0, 0, 0); stroke-width: 1; stroke-linejoin: round;"></path>
</svg>