<svg xmlns="http://www.w3.org/2000/svg" version="1.1" viewBox="110 330 200 200"
     style="-webkit-tap-highlight-color: rgba(0, 0, 0, 0);">
    <desc style="-webkit-tap-highlight-color: rgba(0, 0, 0, 0);">Russian Map</desc>
    <defs style="-webkit-tap-highlight-color: rgba(0, 0, 0, 0);"></defs>
    <path fill="#615dff" stroke="#ffffff"
          d="M276.492,449.248L274.374,451.365L272.401,448.486L270.014,448.486L266.145,445.688L264.004,442.725L262.111,443.549L259.971,442.807L258.654,438.279L255.938,437.785L254.456,434.74L251.081,434.74L247.623,432.023L247.623,430.047L245.565,429.223L243.795,430.992L237.333,432.846L236.264,433.916L237.663,436.057L237.663,438.279L234.206,440.912L231.736,440.912L229.76,441.818L228.772,440.83L227.044,441.736L227.62,443.959L227.62,445.439L228.731,446.551L227.373,447.91L225.315,449.967L223.422,449.967L222.846,451.613L221.611,453.508L219.593,454.277L220.446,455.84L220.277,460.15L221.545,461.418L220.615,465.982L222.475,467.166L224.715,469.406L226.109,473.084L226.109,476.719L227.208,479L226.278,481.283L226.278,484.496L225.602,486.102L227.546,487.201L229.279,485.467L232.111,485.467L233.125,487.285L232.111,489.82L229.406,490.918L229.998,492.188L231.773,492.609L231.266,495.906L230.209,496.963L230.759,499.541L232.365,499.541L232.703,500.979L234.689,502.965L236.676,501.992L238.156,500.514L239.888,501.4L240.564,503.092L242.34,504.359L244.453,504.951L246.566,503.346L248.003,500.049L249.018,498.275L251.639,497.092L252.062,494.641L254.344,490.498L256.119,490.498L256.119,487.623L258.317,484.666L258.317,482.805L261.74,479.381L264.319,478.494L264.319,477.311L267.108,477.057L268.292,478.664L270.236,478.664L270.236,475.453L269.053,471.818L264.995,470.549L263.22,471.732L259.078,471.311L256.964,467.93L256.457,463.449L254.851,461.842L254.175,458.631L257.81,455.926L260.346,456.686L263.051,458.039L264.91,459.898L264.91,462.182L268.376,463.449L270.616,461.209L274.378,460.32L274.378,458.293L276.407,454.572L277.168,452.037L276.492,449.248"
          stroke-width="1" stroke-linejoin="round"
          style="-webkit-tap-highlight-color: rgba(0, 0, 0, 0); stroke-width: 1; stroke-linejoin: round;"></path>
    <path fill="#615dff" stroke="#ffffff"
          d="M196.518,391.472L198.93,388.037L200.903,386.063L203.681,385.479L207.262,387.598L211.939,382.92L207.627,378.608L204.082,376.012L206.677,373.417L210.697,372.029L212.378,373.71L214.351,371.591L219.029,371.591L219.614,363.697L221.587,361.431L222.684,360.335L222.684,357.265L225.022,356.096L221.368,352.295L223.122,350.687L226.279,352.09L232.208,346.161L234,344.62L235.25,345.037L238.417,348.787L237.833,350.62L239.333,351.37L239.642,353.903L237.595,355.95L237.595,359.312L234.379,360.042L234.379,362.235L232.187,364.428L232.187,366.913L233.94,368.667L233.94,371.152L234.671,373.784L233.648,376.123L234.817,377.292L236.718,374.953L237.887,371.591L240.811,370.86L243.881,372.322L245.781,374.222L248.412,371.737L249.801,373.125L250.605,374.953L253.09,374.661L254.625,373.125L257.329,373.125L258.9,374.697L261.861,376.123L264.127,378.388L265.954,379.923L265.515,382.847L262.738,385.186L260.106,386.209L257.11,389.206L257.11,391.91L258.828,393.627L257.914,396.295L257.914,399.073L254.259,401.412L251.336,401.412L251.189,398.049L247.828,398.196L243.881,394.395L240.811,396.587L238.911,399.803L238.034,402.727L235.914,404.846L233.063,404.846L231.419,403.202L228.386,406.381L228.386,411.206L225.608,413.983L223.562,416.03L222.1,419.831L219.323,416.614L218.445,412.521L218.445,409.89L217.568,407.405L217.568,402.142L214.791,400.535L213.622,396.587L209.967,395.857L207.189,394.249L206.02,396.295L204.12,394.395L201.05,396.149L198.419,394.395L196.518,391.472"
          stroke-width="1" stroke-linejoin="round"
          style="-webkit-tap-highlight-color: rgba(0, 0, 0, 0); stroke-width: 1; stroke-linejoin: round;"></path>
    <path fill="#615dff" stroke="#ffffff"
          d="M189.867,390.815L191.986,388.695L196.518,391.472L198.419,394.395L201.05,396.149L204.12,394.395L206.02,396.295L207.189,394.249L209.967,395.857L213.622,396.587L214.791,400.535L217.568,402.142L217.568,407.405L218.445,409.89L215.522,411.498L213.476,409.452L209.821,409.452L208.286,407.917L204.412,410.182L199.003,411.645L197.103,408.136L197.979,405.505L196.079,403.605L195.641,400.536L189.501,400.536L186.578,399.074L184.97,396.15L186.724,394.396L186.431,390.741L189.867,390.815"
          stroke-width="1" stroke-linejoin="round"
          style="-webkit-tap-highlight-color: rgba(0, 0, 0, 0); stroke-width: 1; stroke-linejoin: round;"></path>
    <path fill="#615dff" stroke="#ffffff"
          d="M189.867,390.815L191.986,388.695L196.518,391.472L198.419,394.395L201.05,396.149L204.12,394.395L206.02,396.295L207.189,394.249L209.967,395.857L213.622,396.587L214.791,400.535L217.568,402.142L217.568,407.405L218.445,409.89L215.522,411.498L213.476,409.452L209.821,409.452L208.286,407.917L204.412,410.182L199.003,411.645L197.103,408.136L197.979,405.505L196.079,403.605L195.641,400.536L189.501,400.536L186.578,399.074L184.97,396.15L186.724,394.396L186.431,390.741L189.867,390.815"
          stroke-width="1" stroke-linejoin="round"
          style="-webkit-tap-highlight-color: rgba(0, 0, 0, 0); stroke-width: 1; stroke-linejoin: round;"></path>
    <path fill="#615dff" stroke="#ffffff"
          d="M149.606,391.009L149.606,387.966L151.495,386.063L154.272,385.479L156.318,383.432L159.68,382.847L163.334,381.677L167.647,381.166L169.767,379.046L170.644,375.538L172.544,373.637L174.883,375.976L178.245,375.976L179.561,372.614L182.923,372.614L186.87,373.491L191.986,372.175L193.886,370.275L196.81,370.275L197.979,373.052L199.807,374.879L202.949,374.879L204.082,376.012L207.627,378.608L211.939,382.92L209.309,385.551L207.262,387.598L203.681,385.479L200.903,386.063L198.93,388.037L196.518,391.472L191.986,388.695L189.867,390.815L186.431,390.741L186.724,394.396L184.97,396.15L186.578,399.074L181.753,401.851L181.753,405.944L178.684,408.575L177.249,411.001L175.516,411.001L174.291,409.776L174.713,407.747L171.923,407.917L171.078,408.761L167.105,408.846L165.837,410.875L163.132,410.114L162.287,407.409L160.173,405.295L160.173,402.083L158.567,400.477L157.806,398.153L154.721,398.153L152.903,396.335L152.312,394.813L152.312,393.207L149.606,391.009"
          stroke-width="1" stroke-linejoin="round"
          style="-webkit-tap-highlight-color: rgba(0, 0, 0, 0); stroke-width: 1; stroke-linejoin: round;"></path>
    <path fill="#615dff" stroke="#ffffff"
          d="M260,510.953L261.083,513.369L263.417,515.703L265,517.285L265.667,520.119L268,522.453L265.667,525.619L263.5,527.785L259.833,527.785L256.083,528.035L254.167,526.119L252.833,523.41L251.125,523.41L249.333,525.203L246.417,525.203L243.167,521.953L242.542,520.078L240.083,517.619L240.083,513.369L238,511.285L234.167,511.285L231,512.453L229.833,509.953L226.667,507.453L223.833,505.953L220,507.787L216.5,508.287L213.667,507.453L211.667,503.619L208.833,501.119L206.833,504.453L204.667,504.453L204.667,501.787L206.667,499.787L205.333,496.953L203.667,492.619L203,488.119L200.5,485.119L196.5,483.619L195.334,480.787L193.167,478.619L189.167,479.287L186.833,479.287L186.833,476.119L185.667,472.787L185.787,470.887L191.705,470.887L193.395,467.422L196.607,465.139L198.467,465.646L199.481,463.449L204.046,462.604L206.329,457.277L210.133,455.164L213.007,452.291L214.105,447.641L216.811,447.641L219.601,450.432L217.656,452.375L219.431,453.98L220.446,455.84L220.277,460.15L221.545,461.418L220.615,465.982L222.475,467.166L224.715,469.406L226.109,473.084L226.109,476.719L227.208,479L226.278,481.283L226.278,484.496L225.602,486.102L227.546,487.201L229.279,485.467L232.111,485.467L233.125,487.285L232.111,489.82L229.406,490.918L229.998,492.188L231.773,492.609L231.266,495.906L230.209,496.963L230.759,499.541L232.365,499.541L232.703,500.979L234.689,502.965L236.676,501.992L238.156,500.514L239.888,501.4L240.564,503.092L242.34,504.359L244.453,504.951L246.566,503.346L248.003,500.049L250.708,500.049L253.921,500.049L255.865,499.287L258.57,500.471L260.261,500.471L261.444,502.584L260.599,504.697L257.471,506.219L257.725,508.332L259.5,508.332L260,510.953"
          stroke-width="1" stroke-linejoin="round"
          style="-webkit-tap-highlight-color: rgba(0, 0, 0, 0); stroke-width: 1; stroke-linejoin: round;"></path>
    <path fill="#615dff" stroke="#ffffff"
          d="M139.801,404.366L141.407,405.126L141.661,407.24L143.521,406.564L145.042,408.085L148,409.311L149.986,409.311L152.65,411.974L152.65,415.186L156.031,418.229L156.961,417.299L160.342,417.299L164.569,421.526L166.936,421.78L168.542,424.23L168.542,428.373L166.894,430.021L166.894,432.262L168.225,433.592L167.528,435.389L166.26,435.98L164.738,438.939L162.709,441.814L160.765,439.447L158.313,440.123L156.2,440.123L152.734,438.264L148.93,436.658L146.648,435.135L145.803,432.178L142.252,432.346L139.716,429.979L137.856,429.303L136.377,427.824L136.082,425.838L133.63,424.484L134.56,422.793L137.349,422.793L137.688,417.553L136.335,415.101L136.927,410.706L136.335,408.085L139.801,404.366"
          stroke-width="1" stroke-linejoin="round"
          style="-webkit-tap-highlight-color: rgba(0, 0, 0, 0); stroke-width: 1; stroke-linejoin: round;"></path>
    <path fill="#615dff" stroke="#ffffff"
          d="M257.914,399.073L254.259,401.412L253.529,405.066L253.382,409.305L251.336,412.959L250.751,417.052L248.851,421.292L243.442,424.07L243.442,425.969L245.565,429.223L247.623,430.047L247.623,432.023L251.081,434.74L254.456,434.74L255.938,437.785L258.654,438.279L259.971,442.807L262.111,443.549L264.004,442.725L266.188,440.307L267.5,438.994L267.5,436.119L268.625,433.869L269.625,434.869L272.875,434.869L275.625,433.494L276.375,430.369L278.125,427.494L280.375,427.494L282.375,430.494L283.625,429.244L285.438,427.432L284.125,426.119L284,424.494L287,422.494L289.875,423.119L291.938,421.432L294,419.37L292.188,417.495L292.188,416.307L293.875,414.62L295,410.87L292.875,407.495L292.875,403.245L295.625,400.87L298.5,400.87L300.75,398.62L303.25,394.87L306.625,391.87L308.5,387.245L308.5,383.87L311.875,382.12L311.875,379.495L306.125,378.62L301.875,376.995L298.125,374.995L294.25,372.37L292.5,372.37L291.5,374.495L289.813,375.057L288.625,373.87L286.938,373.307L285.25,374.995L282.25,373.87L279.625,375.245L277.25,372.87L273.625,371.245L271.5,371.995L269.75,369.87L270.125,367.745L269.25,366.37L267.125,365.62L265.5,367.245L264.313,366.057L263.125,367.245L259.75,365.37L258.188,368.432L259.875,370.12L259.875,372.12L257.329,373.125L258.9,374.697L261.861,376.123L264.127,378.388L265.954,379.923L265.515,382.847L262.738,385.186L260.106,386.209L257.11,389.206L257.11,391.91L258.828,393.627L257.914,396.295L257.914,399.073"
          stroke-width="1" stroke-linejoin="round"
          style="-webkit-tap-highlight-color: rgba(0, 0, 0, 0); stroke-width: 1; stroke-linejoin: round;"></path>
    <path fill="#615dff" stroke="#ffffff"
          d="M214.105,447.641L212.875,444.871L213.725,442.744L209.614,439.201L206.921,439.201L205.007,441.113L200.684,436.791L198.416,440.336L195.297,441.752L193.809,443.24L191.329,439.768L187.785,438.352L186.155,439.98L183.107,436.65L180.981,438.775L178.146,438.066L175.948,440.264L175.948,444.021L177.401,445.475L176.87,448.131L173.894,448.557L175.453,451.533L175.453,454.51L178.854,455.502L179.847,460.039L182.894,463.086L182.256,466.701L184.666,469.109L185.787,470.887L191.705,470.887L193.395,467.422L196.607,465.139L198.467,465.646L199.481,463.449L204.046,462.604L206.329,457.277L210.133,455.164L213.007,452.291L214.105,447.641"
          stroke-width="1" stroke-linejoin="round"
          style="-webkit-tap-highlight-color: rgba(0, 0, 0, 0); stroke-width: 1; stroke-linejoin: round;"></path>
    <path fill="#615dff" stroke="#ffffff"
          d="M162.709,441.814L163.971,444.445L166.097,446.572L171.909,446.572L173.894,448.557L175.453,451.533L175.453,454.51L178.854,455.502L179.847,460.039L182.894,463.086L182.256,466.701L184.666,469.109L185.787,470.887L185.667,472.787L181.583,472.035L179.5,474.119L175.667,475.453L172.333,473.619L168.833,473.619L167.167,476.119L163.667,476.119L159.833,476.119L159,477.953L156.833,480.119L156.5,483.285L152.417,482.537L150,480.119L150,476.785L151.084,473.535L149.333,471.785L146.5,471.785L146.38,468.445L144.348,466.412L143.883,463.916L141.502,463.916L139.935,462.348L139.238,458.98L136.857,458.109L135.638,459.328L133.431,457.238L136.451,454.334L135.986,449.688L132.037,445.855L128.669,445.973L128.669,443.998L126.462,442.836L122.746,442.371L121.701,438.422L121.932,435.518L123.151,434.299L121.816,430.873L124.162,429.811L125.768,429.725L127.417,428.076L130.333,426.514L133.63,424.484L136.082,425.838L136.377,427.824L137.856,429.303L139.716,429.979L142.252,432.346L145.803,432.178L146.648,435.135L148.93,436.658L152.734,438.264L156.2,440.123L158.313,440.123L160.765,439.447L162.709,441.814"
          stroke-width="1" stroke-linejoin="round"
          style="-webkit-tap-highlight-color: rgba(0, 0, 0, 0); stroke-width: 1; stroke-linejoin: round;"></path>
    <path fill="#615dff" stroke="#ffffff"
          d="M236.264,433.916L237.663,436.057L237.663,438.279L234.206,440.912L231.736,440.912L229.76,441.818L228.772,440.83L227.044,441.736L227.62,443.959L227.62,445.439L228.731,446.551L225.315,449.967L223.422,449.967L221.611,453.508L219.593,454.277L217.656,452.375L219.601,450.432L216.811,447.641L214.105,447.641L212.875,444.871L213.725,442.744L209.614,439.201L206.921,439.201L205.007,441.113L200.684,436.791L199.834,434.666L197.424,432.256L196.502,428.357L195.156,427.01L192.604,428.004L187.643,423.326L185.091,422.191L181.689,423.041L181.689,420.207L184.97,418.954L187.893,420.124L191.109,418.954L191.109,414.861L194.91,412.668L199.003,411.645L204.412,410.182L208.286,407.917L209.821,409.452L213.476,409.452L215.522,411.498L218.445,409.89L218.445,412.521L219.323,416.614L222.1,419.831L225.537,420.204L227.108,422.391L230.025,423.738L231.147,425.365L233.111,425.422L233.448,428.451L235.692,430.191L233.504,431.48L233.672,432.939L236.264,433.916"
          stroke-width="1" stroke-linejoin="round"
          style="-webkit-tap-highlight-color: rgba(0, 0, 0, 0); stroke-width: 1; stroke-linejoin: round;"></path>
    <path fill="#615dff" stroke="#ffffff"
          d="M223.562,416.03L228.386,411.206L228.386,406.381L231.419,403.202L233.063,404.846L235.914,404.846L238.034,402.727L238.911,399.803L240.811,396.587L243.881,394.395L247.828,398.196L251.189,398.049L251.336,401.412L254.259,401.412L253.529,405.066L253.382,409.305L251.336,412.959L250.751,417.052L248.851,421.292L243.442,424.07L243.442,425.969L245.565,429.223L243.795,430.992L237.333,432.846L236.264,433.916L233.672,432.939L233.504,431.48L235.692,430.191L233.448,428.451L233.111,425.422L231.147,425.365L230.025,423.738L227.108,422.391L225.537,420.204L222.1,419.831L223.562,416.03"
          stroke-width="1" stroke-linejoin="round"
          style="-webkit-tap-highlight-color: rgba(0, 0, 0, 0); stroke-width: 1; stroke-linejoin: round;"></path>
    <path fill="#615dff" stroke="#ffffff"
          d="M177.333,417.214L181.689,420.207L181.689,423.041L185.091,422.191L187.643,423.326L190.194,425.877L192.604,428.004L195.156,427.01L196.502,428.357L197.424,432.256L199.834,434.666L200.684,436.791L198.416,440.336L195.297,441.752L193.809,443.24L191.329,439.768L187.785,438.352L186.155,439.98L183.107,436.65L180.981,438.775L178.146,438.066L175.948,440.264L175.948,444.021L177.401,445.475L176.87,448.131L173.894,448.557L171.909,446.572L166.097,446.572L163.971,444.445L162.709,441.814L164.738,438.939L166.26,435.98L167.528,435.389L168.225,433.592L166.894,432.262L166.894,430.021L168.542,428.373L168.542,424.23L166.936,421.78L169.557,419.919L171.163,421.611L175.474,421.019L175.938,418.61L177.333,417.214"
          stroke-width="1" stroke-linejoin="round"
          style="-webkit-tap-highlight-color: rgba(0, 0, 0, 0); stroke-width: 1; stroke-linejoin: round;"></path>
    <path fill="#615dff" stroke="#ffffff"
          d="M178.179,412.988L177.249,411.001L178.684,408.575L181.753,405.944L181.753,401.851L186.578,399.074L189.501,400.536L195.641,400.536L196.079,403.605L197.979,405.505L197.103,408.136L199.003,411.645L194.91,412.668L191.109,414.861L191.109,418.954L187.893,420.124L184.97,418.954L181.689,420.207L177.333,417.214L176.488,415.44L178.179,412.988"
          stroke-width="1" stroke-linejoin="round"
          style="-webkit-tap-highlight-color: rgba(0, 0, 0, 0); stroke-width: 1; stroke-linejoin: round;"></path>
</svg>
